<?xml version="1.0" encoding="UTF-8"?>
<svg id="Layer_1" data-name="Layer 1" xmlns="http://www.w3.org/2000/svg" viewBox="0 0 81.27 39.62">
  <defs>
    <style>
      .cls-1 {
        fill: #f6b817;
      }

      .cls-2 {
        fill: #23170f;
      }

      .cls-3 {
        font-family: AirStripArabic, 'Air Strip Arabic';
        font-size: 2.92px;
      }

      .cls-3, .cls-4 {
        fill: #23190f;
      }
    </style>
  </defs>
  <g>
    <rect class="cls-1" x=".12" y=".12" width="81.03" height="39.38" rx="3.55" ry="3.55"/>
    <path class="cls-2" d="M77.43,39.62H3.84c-2.12,0-3.84-1.72-3.84-3.84V3.84C0,1.72,1.72,0,3.84,0h73.59c2.12,0,3.84,1.72,3.84,3.84v31.94c0,2.12-1.72,3.84-3.84,3.84ZM3.84.24C1.86.24.24,1.86.24,3.84v31.94c0,1.99,1.62,3.6,3.6,3.6h73.59c1.99,0,3.6-1.62,3.6-3.6V3.84c0-1.99-1.62-3.6-3.6-3.6H3.84Z"/>
  </g>
  <g>
    <g>
      <rect class="cls-4" x="2.5" y="2.53" width="29.62" height=".87"/>
      <rect class="cls-4" x="2.5" y="29.28" width="29.62" height=".44"/>
      <path class="cls-4" d="M32.11,28.11H2.5v-.44h14.43s.07-.03.07-.06c0-.05,0-.11-.03-.17-.1-.18-.36-.14-.63-.25-.13-.06-.29-.16-.45-.37-.02-.03,0-.07.03-.06.59.08,1.24.13,1.95.13.41,0,.81,0,1.18-.03.12-.02.29-.06.44-.18.16-.13.44-.45.42-2.23,0-.74-.07-1.32.19-1.43,0,0,.09-.04.16,0,.21.09.18.59.14,1.35-.07,1.46-.05,1.91.24,2.2.12.12.25.18.34.21.5.07.91.07,1.19.06.32-.01.51-.04.96-.06.26,0,.49,0,.66,0,.06,0,.1.07.06.12-.1.14-.21.22-.3.26-.22.1-.38.03-.57.16-.12.08-.19.2-.22.3-.01.03.01.06.05.06h9.3s0,.44,0,.44Z"/>
      <path class="cls-4" d="M32.28,5.38H5.7v.63c4.54-.01,9.08-.03,13.61-.04.18.24.47.59.94.9.47.32.92.46,1.21.53h10.82v-.77h-9.52c-.06,0-.5-.05-.7-.39-.04-.08-.07-.16-.08-.23h10.29v-.63ZM20.99,6.45c-.31.07-.66-.14-.77-.51h1.24c-.06.25-.24.45-.47.51Z"/>
      <path class="cls-4" d="M5.7,6.67v.54h10.88c.06.06.24.21.52.25.25.04.45-.03.53-.06.09-.06.2-.15.32-.27.1-.1.17-.2.22-.28.02-.02.26-.27.56-.2.09.02.16.06.21.1.22.08.55.23.88.52.36.31.57.65.68.86-.06.1-.16.24-.33.34-.21.12-.43.11-.77.08-.67-.07-1-.11-1.29-.21-.57-.2-.59-.37-1.1-.49-.26-.06-.56-.13-.89-.02-.56.18-.82.72-.88.87H5.7v.64h13.16c.22-.06.49-.13.81-.23.53-.17.97-.33,1.3-.47.34-.14.73-.31,1.15-.52.2-.02.49-.04.83-.01.35.03.6.04.82.15.54.26.72.92.77,1.16h7.66v-.72h-7.18c-.41-.64-.9-.85-1.1-.92-.54-.19-1.11-.13-1.31-.1-.31.04-.5.11-.92.11-.27,0-.5-.02-.64-.04-.25-.19-.6-.52-1.11-.86-.3-.2-.59-.37-.86-.52-.23-.12-.42-.16-.62-.14-.2.02-.36.1-.46.15-.12.08-.24.16-.37.24l-11.93.04Z"/>
      <path class="cls-4" d="M5.7,12.33v-1.39h8.17c.16-.3.43-.71.88-.99.81-.48,1.68-.26,2.3-.18,3,.39,4.62-2.06,6.14-1.16.28.17.66.51.91,1.3.05.17.22.28.39.25.08-.01.17-.02.27-.04.59-.09.71-.13.86-.08.11.04.38.18.51.86h6.08v1.42h-7.08c-.26-.13-.59-.34-.88-.67-.55-.64-.47-1.2-1.02-1.75-.36-.36-.76-.49-.93-.54-1.22-.4-1.84.55-3.95.9-1.3.21-1.62-.05-2.22.38-.55.4-.67.9-1.39,1.31-.46.26-.92.35-1.24.38h-7.79Z"/>
      <path class="cls-4" d="M5.7,14.35v1.44h7.57c.16-.05.38-.14.55-.34.22-.27.18-.54.3-1.27.08-.47.12-.7.21-.93.19-.49.45-.64.82-1.1.23-.29.52-.84.77-1.46-.57.76-1.04,1.14-1.47,1.4-.35.22-.73.48-1.01.79-.4.45-.49,1.02-.51,1.44-2.41,0-4.82.01-7.22.02Z"/>
      <path class="cls-4" d="M5.7,19.11v-.48h6.6c.04-.24.1-.59.18-1.01.14-.73.19-.84.25-.94.3-.46.76-.39,1.16-.68.68-.48.44-1.42.68-2.3.51-1.83,2.92-2.83,4.37-3.11.1-.02,2.56-.47,4.03.54.12.08.39.28,1.2.86.53.38.97.68,1.26.88h.71c.21,0,.41.06.58.19.08.06.17.14.25.24.32.4.29.85.28.96,1.65,0,3.29-.02,4.94-.03v1.56h-5.09c-.12,0-.37,0-.63-.12-.21-.1-.35-.34-.45-.56-.04-.08-.16-.05-.16.03.06.37.11.82.1,1.34,0,.3-.03.57-.06.82-.02.17-.09.34-.19.48-.32.47-.36.84-.36,1.04,0,.1,0,.34.1.38.06.02.17-.03.4-.33.5-.66.52-1.11.91-1.69.06-.09.19-.28.35-.48.15-.19.44-.11.49.12l.33,1.73h4.26v.66h-5.68c-.12.14-.66.72-1.11.58-.58-.18-.62-1.45-.63-1.74-.04-1.31.53-1.73.44-2.98-.01-.21-.07-.8-.34-1.37-.81-1.72-3.1-2.36-4.65-2.4-.43-.01-2.52-.02-3.89,1.34-.27.27-.65.64-.88,1.24-.2.51-.1.67-.4,1.77-.15.55-.26.81-.4,1.06-.2.36-.27.34-.43.66-.27.53-.16.76-.38,1.16-.11.19-.3.45-.68.68-2.49-.03-4.97-.07-7.46-.1Z"/>
      <path class="cls-4" d="M5.7,20.85h6.47c.16,0,.29-.13.3-.29.01-.28.08-.63.3-.92.09-.11.15-.16.18-.18.42-.28,1.03.03,1.11.08.26.13.36.27.78.73.19.21.48.53.86.91h.19c.19,0,.34-.16.33-.35,0,0,0,0,0,0-.03-.47-.27-.81-.32-.89-.45-.7-.47-2.75-.33-4.12.14-1.36.21-2.04.73-2.63.59-.67,1.4-.88,1.85-.96.43-.04.86-.09,1.29-.13.42-.04.84-.08,1.26-.13.04,0,.17,0,.28.01.68.05,1.2.39,1.79.75,1.29.78,1.22.59,1.44.83.72.76.71,1.83.71,2.05,0,1.16-.64,1.31-.94,3.01-.11.67-.26,1.56.25,2.02.04.04.36.32.76.28.67-.06.79-.94,1.62-1.29.26-.11.52-.14.74-.13.18,0,.32.15.32.33v1.02h4.51v.58h-4.69c-.22-.04-.54-.07-.88.05-.65.22-.67.72-1.29,1.04-.51.26-1.32.35-1.82-.1-.36-.33-.42-.8-.43-.99v-1.97c.04-.31.13-.77.35-1.29.3-.7.52-.77.71-1.37.24-.75.14-1.4.08-1.69-.07-.32-.18-.79-.56-1.19-.2-.21-.22-.13-1.16-.73-.45-.29-.56-.38-.83-.48-.35-.13-.64-.16-.88-.18-.11-.01-.14-.05-1.27.06-.67.06-.73.09-1.14.16-.33.05-.5.08-.55.09-.32.1-.67.35-1.06,1.04-.85,1.48-.82,3.09-.81,3.56.01.63.02,1.08.25,1.62.2.47.41.65.66,1.29.24.62.36.93.23,1.16-.26.44-1.26.32-2.31.19-.53-.07-.96-.16-1.28-.23-.09-.02-.18-.03-.27-.03h-7.55v-.58Z"/>
      <path class="cls-4" d="M5.7,22.14h6.69c.13,0,.24-.07.3-.19.04-.08.09-.16.17-.21.32-.19.82.18,1.31.46.9.5,2.51,1.07,3.31.51.15-.11.37-.32.5-.78.08-.29.03-.6-.13-.85-.55-.85-1.68-2.94-1.11-5.22.14-.57.51-1.93,1.59-2.44.56-.26,1.31-.3,1.37-.3,0,0,.6-.03,1.21.13,1.16.29,2.07,1.19,2.51,1.71.17.2.27.46.27.73v.38c0,.14-.03.29-.08.42-.14.36-.32.83-.55,1.39-.42,1.03-.48,1.09-.56,1.42-.25,1.09.02,1.98.13,2.3.19.59.32,1,.72,1.26.71.47,1.63.09,1.76.03.47-.32.94-.64,1.41-.96.28-.29.63-.34.78-.2.06.05.09.13.1.2.01.08.08.13.16.13h4.64v2.12h-6.04c-.08,0-.15.01-.22.04-.35.12-.86.24-1.49.22-.37-.01-.86-.03-1.29-.28-1.07-.62-1.04-2.28-1.04-2.43-.03-.74-.07-1.48-.1-2.22.21-.89.48-1.57.69-2.05.39-.89.65-1.17.59-1.68-.09-.75-.8-1.25-1.2-1.53-.7-.49-1.41-.64-1.87-.68h-.91c-.63.14-1.04.42-1.26.61-.97.8-1.26,2.16-1.04,3.16.13.58.31.48.53,1.29.25.93.07,1.28.43,1.87.31.51.57.45.75.86.39.86-.36,1.96-.4,2.02-.77,1.11-2.7,1.44-4.85.86-.12-.03-.25-.05-.37-.05h-7.42v-2.02Z"/>
      <path class="cls-4" d="M5.7,25.7v.56h11.65c.34-.08.85-.25,1.29-.66.59-.56.69-1.23,1.01-2.71.11-.49.26-1.18.48-2.04.06-.23.38-.25.47-.03.22.56.37,1.06.49,1.47.53,1.89.47,2.97,1.3,3.58.41.3.89.37,1.26.38h8.56v-.56h-6.74c0-.11.02-.26.1-.4.14-.24.34-.25.4-.46.05-.16,0-.39-.1-.43-.17-.06-.35.4-.86.61-.22.09-.42.1-.56.1h-1.09c-.22-.1-.55-.28-.83-.61-.52-.6-.52-1.23-.78-2.2-.11-.42-.31-1.01-.66-1.7-.05-.11-.08-.22-.07-.34.01-.17.05-.38.12-.61.16-.53.43-.88.53-1.01.28-.39.57-1.09.54-2.4v-.25c-.26-.96-.97-1.69-1.79-1.82-1.17-.19-2.52.83-2.68,2.43v.96c.02.43.08.8.13,1.06.19,1.02.46,1.39.53,1.49.12.16.24.28.33.35h.43c.29-.16.45-.34.54-.47.37-.53.12-1.01.54-1.56.14-.18.18-.15.35-.38.24-.32.35-.64.4-.86v-.53c-.01-.4-.1-.7-.18-.88-.15-.38-.29-.46-.35-.48-.12-.04-.23-.02-.3,0,0,0-.13.28-.1.51.01.11.06.17.28.46.08.11.2.27.35.48.02.11.04.28,0,.48-.1.53-.47.58-.73,1.11-.23.47-.04.62-.35,1.26-.12.26-.26.46-.5.54-.13.04-.26.03-.34.02-.13-.16-.29-.39-.43-.68-.07-.14-.26-.55-.34-1.13-.04-.25-.06-.59-.01-1v-.62c.21-1.58,1.55-2.48,2.55-2.25.68.16,1.22.84,1.42,1.67v.3c.03.91-.19,1.51-.4,1.9-.28.51-.58.7-1.14,1.42-.36.47-.63.89-.82,1.2-.06.1-.1.22-.11.34-.07.69-.18,1.27-.29,1.7-.24.97-.44,1.27-.68,1.47-.29.24-.6.31-.78.35-.46.11-.83.05-1.47-.05-.37-.06-.58-.12-1.02-.15-.41-.03-.66,0-.81.16-.02.02-.23.21-.11.31.13.11.24.23.23.34-.01.16-.14.28-.3.28H5.7Z"/>
      <text class="cls-3" transform="translate(2.56 17.02) rotate(90)"><tspan x="0" y="0">0334</tspan></text>
    </g>
    <rect class="cls-4" x="34.73" y="2.53" width="7.58" height="27.18" rx=".94" ry=".94"/>
    <path class="cls-4" d="M44.7,2.91c0-.21.17-.37.37-.37h26.1c.63.03,3.78.23,6.14,2.84,1.78,1.96,2.11,4.16,2.2,4.98,0,.01,0,.03,0,.04v11.74s0,.01,0,.02c-.04.63-.27,3.18-2.39,5.26-2.25,2.21-5,2.3-5.57,2.31h-26.48c-.21,0-.37-.17-.37-.37v-15.86c0-.21.17-.37.37-.37h7.15c.21,0,.37.17.37.37v9.14c0,.21.17.37.37.37h14.72c.26,0,1.84,0,3.05-1.29,1.12-1.18,1.12-2.61,1.12-2.9v-5.69c-.01-.35-.11-1.8-1.29-2.99-1.38-1.4-3.17-1.34-3.48-1.33,0,0-.01,0-.02,0h-21.99c-.21,0-.37-.17-.37-.37V2.91Z"/>
  </g>
  <g>
    <path class="cls-4" d="M5.52,32.93c.09,0,.13.04.13.13v3.88c0,.09-.04.13-.13.13h-.64c-.09,0-.13-.04-.13-.13v-3.88c0-.09.04-.13.13-.13h.64Z"/>
    <path class="cls-4" d="M9.64,32.93h-2.76c-.12,0-.18.06-.18.18v.66h.94s.02,0,.04,0h1.94c.7,0,.93.21.93.91v.65c0,.7-.24.91-.93.91h-1.94c-.05,0-.08-.02-.08-.08v-1.43h-.9v2.17c0,.12.06.18.18.18h2.76c1.28,0,1.81-.51,1.81-1.67v-.8c0-1.15-.53-1.67-1.81-1.67Z"/>
    <path class="cls-4" d="M17.13,33.96v-1.04h-2.76c-.08,0-.13.04-.13.13v.58c0,.09.05.13.13.13h1.86v3.17c0,.09.05.13.13.13h.64c.09,0,.12-.04.12-.13v-2.96s0,0,0-.01Z"/>
    <path class="cls-4" d="M25.31,32.93c.08,0,.13.04.13.13v.57c0,.08-.05.13-.13.13h-2.59c-.61,0-.77.17-.77.79v.03h3.33c.08,0,.13.04.13.13v.53c0,.09-.05.13-.13.13h-3.33v.07c0,.62.16.79.77.79h2.59c.08,0,.13.05.13.13v.57c0,.09-.05.13-.13.13h-2.6c-1.2,0-1.65-.43-1.65-1.56v-1.02c0-1.13.46-1.56,1.65-1.56h2.6Z"/>
    <path class="cls-4" d="M30.32,32.93c.09,0,.13.04.13.13v.58c0,.09-.04.13-.13.13h-2.63c-.61,0-.79.18-.79.81v.84c0,.63.18.81.79.81h2.63c.09,0,.13.04.13.13v.58c0,.09-.04.13-.13.13h-2.66c-1.2,0-1.65-.43-1.65-1.56v-1.02c0-1.13.46-1.56,1.65-1.56h2.66Z"/>
    <rect class="cls-4" x="31.11" y="32.93" width=".9" height="4.14" rx=".13" ry=".13"/>
    <path class="cls-4" d="M35.88,32.93h-.64c-.08,0-.13.04-.13.13v1.52h-2.25v.8h2.25v1.55c0,.09.05.13.13.13h.64c.09,0,.14-.04.14-.13v-3.88c0-.09-.05-.13-.14-.13Z"/>
    <path class="cls-4" d="M38.02,32.93c.43,0,.5.09.69.35l2.17,2.88s.04.04.08.04h.05s.05-.02.05-.06v-3.08c0-.09.04-.13.13-.13h.63c.09,0,.13.04.13.13v3.39c0,.47-.16.61-.53.61h-.53c-.43,0-.5-.09-.68-.35l-2.18-2.88s-.04-.04-.08-.04h-.05s-.05.02-.05.06v3.08c0,.09-.05.13-.13.13h-.63c-.09,0-.13-.04-.13-.13v-3.39c0-.47.15-.61.53-.61h.53Z"/>
    <path class="cls-4" d="M46.43,32.93c1.2,0,1.65.43,1.65,1.56v1.02c0,1.13-.46,1.56-1.65,1.56h-1.82c-1.2,0-1.65-.43-1.65-1.56v-1.02c0-1.13.46-1.56,1.65-1.56h1.82ZM43.86,35.44c0,.62.17.79.79.79h1.76c.61,0,.79-.17.79-.79v-.89c0-.62-.17-.79-.79-.79h-1.76c-.61,0-.79.17-.79.79v.89Z"/>
    <path class="cls-4" d="M49.71,32.93c.09,0,.13.04.13.13v2.36c0,.63.18.81.79.81h2.39c.08,0,.13.04.13.13v.58c0,.09-.05.13-.13.13h-2.42c-1.2,0-1.65-.43-1.65-1.56v-2.45c0-.09.04-.13.13-.13h.64Z"/>
    <path class="cls-4" d="M57.3,32.93c1.2,0,1.65.43,1.65,1.56v1.02c0,1.13-.46,1.56-1.65,1.56h-1.82c-1.2,0-1.65-.43-1.65-1.56v-1.02c0-1.13.46-1.56,1.65-1.56h1.82ZM54.73,35.44c0,.62.17.79.79.79h1.76c.61,0,.79-.17.79-.79v-.89c0-.62-.17-.79-.79-.79h-1.76c-.61,0-.79.17-.79.79v.89Z"/>
    <path class="cls-4" d="M64.19,32.93c.08,0,.13.04.13.13v.58c0,.09-.05.13-.13.13h-2.96c-.61,0-.79.18-.79.81v.85c0,.63.18.8.79.8h1.95c.21,0,.3-.09.3-.35v-.44c0-.06-.02-.08-.07-.08h-1.73c-.08,0-.13-.04-.13-.13v-.52c0-.08.05-.13.13-.13h2.46c.12,0,.18.06.18.18v1.41c0,.66-.25.9-.73.9h-2.38c-1.2,0-1.65-.43-1.65-1.56v-1.02c0-1.13.46-1.56,1.65-1.56h2.99Z"/>
    <path class="cls-4" d="M65.88,32.93c.09,0,.13.04.13.13v3.88c0,.09-.04.13-.13.13h-.64c-.09,0-.13-.04-.13-.13v-3.88c0-.09.04-.13.13-.13h.64Z"/>
    <path class="cls-4" d="M71.13,32.93c.08,0,.13.04.13.13v.57c0,.08-.05.13-.13.13h-2.59c-.61,0-.77.17-.77.79v.03h3.33c.08,0,.13.04.13.13v.53c0,.09-.05.13-.13.13h-3.33v.07c0,.62.16.79.77.79h2.59c.08,0,.13.05.13.13v.57c0,.09-.05.13-.13.13h-2.6c-1.2,0-1.65-.43-1.65-1.56v-1.02c0-1.13.46-1.56,1.65-1.56h2.6Z"/>
    <path class="cls-4" d="M76.23,32.93c.08,0,.13.04.13.13v.57c0,.08-.05.13-.13.13h-2.96c-.21,0-.31.1-.31.32v.2c0,.21.09.3.31.3h2.21c.66,0,1.03.38,1.03,1.04v.48c0,.61-.37.96-1.05.96h-3.27c-.09,0-.13-.04-.13-.13v-.57c0-.08.04-.13.13-.13h3.1c.21,0,.31-.1.31-.32v-.24c0-.21-.09-.3-.31-.3h-2.22c-.66,0-1.03-.38-1.03-1.04v-.44c0-.61.36-.96,1.04-.96h3.13Z"/>
    <path class="cls-4" d="M17.58,33.96v-1.04s2.76,0,2.76,0c.08,0,.13.04.13.13v.58c0,.09-.05.13-.13.13h-1.86v3.17c0,.09-.05.13-.13.13h-.64c-.09,0-.12-.04-.12-.13v-2.96s0,0,0-.01Z"/>
  </g>
</svg>