<?xml version="1.0" encoding="UTF-8"?>
<svg id="Layer_1" data-name="Layer 1" xmlns="http://www.w3.org/2000/svg" xmlns:xlink="http://www.w3.org/1999/xlink" viewBox="0 0 208.8 156.82">
  <defs>
    <style>
      .cls-1 {
        fill: #f6b817;
      }

      .cls-2 {
        fill: #23190f;
      }

      .cls-3 {
        fill: #fff;
        filter: url(#drop-shadow-1);
      }
    </style>
    <filter id="drop-shadow-1" x="0" y="0" width="208.8" height="147.36" filterUnits="userSpaceOnUse">
      <feOffset dx="5" dy="5"/>
      <feGaussianBlur result="blur" stdDeviation="4"/>
      <feFlood flood-color="#3f2711" flood-opacity=".45"/>
      <feComposite in2="blur" operator="in"/>
      <feComposite in="SourceGraphic"/>
    </filter>
  </defs>
  <g>
    <path class="cls-3" d="M25.06,7.22h148.59c9.89,0,17.92,8.03,17.92,17.92v105.14H7.14V25.15C7.14,15.26,15.17,7.22,25.06,7.22Z"/>
    <rect class="cls-1" x="7.14" y="125.21" width="184.43" height="5.08"/>
    <rect class="cls-2" x="73.18" y="103.77" width="53.05" height="53.05" rx="8.97" ry="8.97"/>
  </g>
  <g>
    <path class="cls-1" d="M103.48,114.65c5.71,1.46,10.33,6.08,11.79,11.79,2.67.04,4.65,2.44,4.06,5.07-.41,1.83-2.18,3.21-4.06,3.19-1.45,5.71-6.08,10.33-11.78,11.79,0,1.9-1.34,3.63-3.19,4.06-2.59.6-5.05-1.41-5.07-4.06-5.7-1.46-10.34-6.08-11.78-11.79-1.89.01-3.64-1.35-4.06-3.19-.6-2.61,1.41-5.04,4.06-5.06,1.44-5.71,6.08-10.34,11.78-11.79.04-2.66,2.44-4.65,5.07-4.06,1.84.42,3.19,2.18,3.19,4.06ZM99.24,111.41c-4.24.16-3.92,6.73.44,6.34,4-.36,3.59-6.49-.44-6.34ZM95.42,115.6c-5.32,1.31-9.73,5.71-11.04,11.04,4.1.91,4.1,6.95,0,7.86,1.3,5.31,5.71,9.74,11.04,11.04.91-4.09,6.93-4.11,7.86,0,5.32-1.32,9.73-5.71,11.04-11.04-4.1-.91-4.1-6.95,0-7.86-1.31-5.32-5.71-9.72-11.04-11.04-.91,4.11-6.96,4.09-7.86,0ZM82.96,127.41c-3.97.52-3.4,6.59.63,6.33,4.25-.27,3.65-6.89-.63-6.33ZM114.95,127.41c-4.51.49-3.04,7.64,1.38,6.15,3.57-1.21,2.36-6.56-1.38-6.15ZM98.86,143.4c-4.49.61-2.79,7.85,1.74,6.04,3.29-1.31,2.05-6.56-1.74-6.04Z"/>
    <path class="cls-1" d="M108.8,124.3c-.96,6.45-3.84,13.11-9.48,16.73-5.57-3.71-8.47-10.27-9.41-16.73,3.46-.39,7-1.51,9.41-4.11.15-.03.83.77,1.02.93,2.37,1.96,5.45,2.84,8.46,3.18ZM102.34,128.79v-2.85s-.25-.63-.3-.73c-1.08-2.17-4.32-2.17-5.39,0-.05.1-.3.69-.3.73v2.85h-1.31v4.07c0,.48.62,1.66.94,2.06,1.72,2.14,5.01,2.14,6.73,0,.32-.4.94-1.58.94-2.06v-4.07h-1.31Z"/>
    <path class="cls-1" d="M101.41,128.79h-4.12v-2.57s.23-.57.28-.66c.71-1.25,2.64-1.35,3.45-.17.07.1.39.77.39.83v2.57Z"/>
    <path class="cls-1" d="M99.91,134.21h-1.12c.01-.29-.02-.59,0-.89.02-.31.21-1.16.16-1.39-.05-.27-.57-.24-.44-1.03.19-1.16,2.05-.8,1.66.54-.06.22-.42.32-.45.58l.19,2.2Z"/>
  </g>
</svg>