<?xml version="1.0" encoding="UTF-8"?>
<svg id="Layer_1" data-name="Layer 1" xmlns="http://www.w3.org/2000/svg" xmlns:xlink="http://www.w3.org/1999/xlink" viewBox="0 0 208.8 156.72">
  <defs>
    <style>
      .cls-1 {
        fill: #f6b817;
      }

      .cls-2 {
        fill: #23190f;
      }

      .cls-3 {
        fill: #fff;
        filter: url(#drop-shadow-1);
      }
    </style>
    <filter id="drop-shadow-1" x="0" y="0" width="208.8" height="147.36" filterUnits="userSpaceOnUse">
      <feOffset dx="5" dy="5"/>
      <feGaussianBlur result="blur" stdDeviation="4"/>
      <feFlood flood-color="#3f2711" flood-opacity=".45"/>
      <feComposite in2="blur" operator="in"/>
      <feComposite in="SourceGraphic"/>
    </filter>
  </defs>
  <g>
    <path class="cls-3" d="M25.13,7.12h148.59c9.89,0,17.92,8.03,17.92,17.92v105.14H7.21V25.05C7.21,15.15,15.24,7.12,25.13,7.12Z"/>
    <rect class="cls-1" x="7.21" y="125.11" width="184.43" height="5.08"/>
    <rect class="cls-2" x="73.25" y="103.66" width="53.05" height="53.05" rx="8.97" ry="8.97"/>
  </g>
  <g>
    <path class="cls-1" d="M90.72,118.77c.17-.11.17-.24.19-.41.18-1.52-.15-3.37,0-4.93l.32-.4,17.28.08.17.32v5.21s2.76.19,2.76.19c.05.03.24.33.24.36v5.7h3.78c.61,0,1.41.77,1.49,1.39-.23,3.51.34,7.47.01,10.92-.07.72-.49,1.48-1.27,1.61-.96.16-4.36.12-5.4.01-.62-.06-.8-.27-.54-.89.07-.11.21-.15.33-.17,1.03-.2,5.08.2,5.56-.09.2-.12.22-.5.24-.72.3-3.28-.24-7.01,0-10.34l-.4-.56-31.31-.04c-.27.11-.49.28-.48.6.24,3.33-.3,7.05,0,10.34.02.22.04.6.24.72.45.27,4.38-.08,5.34.07.77.12.72.96.12,1.07-1.7-.14-3.74.21-5.4,0-.69-.08-1.27-.7-1.37-1.39.24-3.5-.35-7.48-.02-10.92.07-.73.73-1.61,1.51-1.61h3.78v-5.7c0-.08.23-.34.32-.41.21-.14.27,0,.34,0h2.16ZM107.59,114.09h-15.61v9.55c0,.42-1.08.5-1.08.12v-3.9h-1.92v5.04h21.61v-5.04h-1.92v3.9c0,.38-1.08.3-1.08-.12v-9.55Z"/>
    <path class="cls-1" d="M91.38,146.27h16.93l-.73-10.27c.53-1.27,1.11-.61,1.21.49.27,3.07.49,6.51.61,9.6,0,.24.06,1.27-.3,1.27h-18.61c-.07,0-.31-.4-.28-.53.21-2.92.38-5.85.58-8.77.06-.82-.2-3.96,1.21-2.15l-.6,10.38Z"/>
    <path class="cls-1" d="M89.81,136.48c-.09.32-.7.39-.93.15s-.23-3.04,0-3.3l.4-.14c6.78.27,13.9-.4,20.65-.02.22.01.65-.02.78.21.18.34.2,2.9,0,3.19-.22.34-.97.16-.97-.1v-2.04l-.18-.18h-19.57l-.18.18c-.1.55.13,1.57,0,2.04Z"/>
    <path class="cls-1" d="M93.6,144.47c-.38-.12-.36-1.08.12-1.08h12.49c.38,0,.38,1.08,0,1.08h-12.61Z"/>
    <path class="cls-1" d="M105.88,141.56c-.13.13-.44.14-.63.15-3.5.29-7.4-.23-10.94,0-.64.07-1.02-.46-.61-.98l12.08-.05c.3.15.3.66.09.87Z"/>
    <path class="cls-1" d="M94.34,137.77l10.66-.03c.83-.01.94.99.12,1.09l-11.06-.11c-.33-.37-.23-.85.28-.95Z"/>
    <path class="cls-1" d="M86.9,129.24c1.15-.34,1.03,2.16-.09,1.6-.37-.18-.39-1.46.09-1.6Z"/>
    <path class="cls-1" d="M112.71,129.24c1.15-.34,1.03,2.16-.09,1.6-.37-.18-.39-1.46.09-1.6Z"/>
    <path class="cls-1" d="M88.88,130.75c-.24-.24-.24-1.3.12-1.45,1.38-.58.89,2.47-.12,1.45Z"/>
  </g>
</svg>