<?xml version="1.0" encoding="UTF-8"?>
<svg id="Layer_1" data-name="Layer 1" xmlns="http://www.w3.org/2000/svg" xmlns:xlink="http://www.w3.org/1999/xlink" viewBox="0 0 208.56 156.77">
  <defs>
    <style>
      .cls-1, .cls-2 {
        fill: #f6b817;
      }

      .cls-3 {
        fill: #23190f;
      }

      .cls-4 {
        fill: #fff;
        filter: url(#drop-shadow-1);
      }

      .cls-2 {
        stroke: #f5b819;
        stroke-miterlimit: 10;
        stroke-width: .25px;
      }
    </style>
    <filter id="drop-shadow-1" x="0" y="0" width="208.56" height="147.36" filterUnits="userSpaceOnUse">
      <feOffset dx="5" dy="5"/>
      <feGaussianBlur result="blur" stdDeviation="4"/>
      <feFlood flood-color="#3f2711" flood-opacity=".45"/>
      <feComposite in2="blur" operator="in"/>
      <feComposite in="SourceGraphic"/>
    </filter>
  </defs>
  <g>
    <path class="cls-4" d="M25.01,7.17h148.59c9.89,0,17.92,8.03,17.92,17.92v105.14H7.09V25.1C7.09,15.2,15.12,7.17,25.01,7.17Z"/>
    <rect class="cls-1" x="7.09" y="125.16" width="184.43" height="5.08"/>
    <rect class="cls-3" x="73.14" y="103.71" width="53.05" height="53.05" rx="8.97" ry="8.97"/>
  </g>
  <g>
    <path class="cls-2" d="M83.61,136.4c-.5-.63-.33-1.3.38-1.64.98-.48,2.22-.77,3.22-1.25.05,0,.33.51.2.6l-3.21,1.28c-.26.14-.31.42-.05.6l15.2,5.91,15.12-5.91c.26-.18.21-.46-.05-.6l-3.21-1.28c-.12-.09.15-.59.21-.61.72.45,3.27,1.03,3.69,1.6.4.54.15,1.32-.48,1.54l-14.57,5.73c-.72.35-1.24.08-1.92-.16-4.89-1.74-9.7-3.92-14.54-5.79Z"/>
    <path class="cls-2" d="M83.61,141.61c-.56-.56-.27-1.32.38-1.64.98-.48,2.22-.77,3.22-1.25.05,0,.33.51.2.6l-3.21,1.28c-.26.14-.31.42-.05.6l15.2,5.91,15.12-5.91c.26-.18.21-.46-.05-.6l-3.21-1.28c-.12-.09.15-.59.21-.61.72.45,3.27,1.03,3.69,1.6.4.54.15,1.32-.48,1.54l-14.57,5.73c-.72.35-1.24.08-1.92-.16-4.75-1.69-9.35-3.85-14.1-5.54-.13-.06-.34-.16-.44-.25Z"/>
    <path class="cls-2" d="M86.84,129.17l-2.69,1.02c-.26.18-.21.46.05.6,4.35,1.64,8.62,3.48,12.97,5.13.41.16,1.79.75,2.1.76s.81-.24,1.12-.35c4.74-1.7,9.36-3.81,14.08-5.56.27-.21.21-.43-.05-.6-.41-.27-1.73-.71-2.27-.91-.12-.05-.24-.08-.37-.08l.28-.63c.65.38,2.78.83,3.11,1.44.31.58.05,1.2-.54,1.43l-14.57,5.73-.79.19c-5.25-1.92-10.46-4.01-15.63-6.11-1.31-1.82,1.88-2.03,2.92-2.67l.28.63Z"/>
    <path class="cls-2" d="M95.18,126.51c.22-.22.65-.3.95-.27v.65c-.74-.12-.74.84-.96,1.36-1.7,4.01-7.58,3.03-7.92-1.32-.15-1.87-.15-5.14,0-7.01.11-1.42,1.16-2.65,2.61-2.73-.08-.77.22-1.31,1.02-1.39.48-.04,2.6-.06,2.94.08.6.24.85,1.52.49,1.81-.27.21-3.82-.02-4.55.09-.94.15-1.79,1.1-1.86,2.06.14,2.31-.18,4.82,0,7.1.28,3.51,5.02,4.44,6.58,1.28.21-.43.41-1.41.7-1.7ZM93.77,117.11c0-.22.05-.56-.22-.64-.18-.05-2.64-.05-2.82,0-.08.02-.14.08-.18.15l-.04.49h3.26Z"/>
    <path class="cls-2" d="M108.76,117.19c1.43.06,2.52,1.33,2.61,2.73-.16,2.3.21,4.89-.01,7.17-.41,4.1-6.04,5.12-7.8,1.38-.15-.31-.4-1.35-.54-1.5-.13-.14-.36-.07-.53-.08v-.65c1.31-.13,1.23,1.14,1.64,1.99,1.52,3.13,6.32,2.24,6.59-1.29.18-2.28-.14-4.79,0-7.1-.49-3.1-4.02-1.79-6.16-2.07-.21-.03-.32-.07-.36-.29-.14-.75.08-1.57.94-1.67.46-.05,2.69-.06,3.02.08.52.21.67.8.61,1.31ZM108.11,117.11c0-.22.05-.56-.22-.64-.18-.05-2.64-.05-2.82,0-.08.02-.14.08-.18.15l-.04.49h3.26Z"/>
    <path class="cls-2" d="M95.87,115.82c2.14.12,4.56-.22,6.67-.02.48.04.91.3,1,.8.06.34.06,1.49-.03,1.8-.11.35-.52.66-.88.67-2.1-.15-4.46.2-6.52,0-1.19-.11-1.11-1.31-1.02-2.25.05-.52.29-.86.8-1ZM95.93,116.46c-.27,0-.23,1.27-.21,1.51.01.12.06.44.21.44h6.76c.27,0,.23-1.27.21-1.51-.01-.12-.06-.44-.21-.44h-6.76Z"/>
    <path class="cls-2" d="M91.96,119.73c.41-.07.88.14,1.06.53.09.2.07.51.17.64.12.14.54.12.78.28.58.37.6,1.19.04,1.59-.27.2-.71.17-.83.31-.1.13-.08.45-.17.64-.33.71-1.42.71-1.76,0-.09-.2-.07-.51-.17-.64-.16-.19-.79-.05-1.1-.61-.26-.47-.07-1.13.42-1.36.2-.09.51-.07.64-.17.22-.18.07-1.08.91-1.21ZM92.03,120.38c-.3.09-.15.9-.77,1.19-.27.13-.8.03-.76.46.04.4.91.21,1.21.84.13.27.03.8.46.76.4-.04.21-.91.84-1.21.27-.13.8-.03.76-.46-.04-.4-.91-.21-1.21-.84-.12-.26-.04-.88-.53-.75Z"/>
    <path class="cls-2" d="M98.96,123.65c2.78-.4,3.64,3.59,1.08,4.42-3.17,1.03-4.23-3.97-1.08-4.42ZM98.96,124.3c-1.97.34-1.59,3.61.69,3.22,1.97-.34,1.59-3.61-.69-3.22Z"/>
    <path class="cls-2" d="M106.3,120.06c.96-.19,1.12,1.18.28,1.27-.9.11-.98-1.14-.28-1.27Z"/>
    <path class="cls-2" d="M104.99,121.36c.96-.19,1.12,1.18.28,1.27-.9.11-.98-1.14-.28-1.27Z"/>
    <path class="cls-2" d="M107.6,121.36c.96-.19,1.12,1.18.28,1.27-.9.11-.98-1.14-.28-1.27Z"/>
    <path class="cls-2" d="M106.3,122.66c.96-.19,1.12,1.18.28,1.27-.9.11-.98-1.14-.28-1.27Z"/>
    <rect class="cls-2" x="96.7" y="122.32" width="1.3" height=".65"/>
    <rect class="cls-2" x="100.61" y="122.32" width="1.3" height=".65"/>
  </g>
</svg>