<?xml version="1.0" encoding="UTF-8"?>
<svg id="Layer_1" data-name="Layer 1" xmlns="http://www.w3.org/2000/svg" xmlns:xlink="http://www.w3.org/1999/xlink" viewBox="0 0 208.56 156.77">
  <defs>
    <style>
      .cls-1, .cls-2 {
        fill: #f6b817;
      }

      .cls-3 {
        fill: #23190f;
      }

      .cls-4 {
        fill: #fff;
        filter: url(#drop-shadow-1);
      }

      .cls-2 {
        stroke: #23190f;
        stroke-miterlimit: 10;
        stroke-width: .25px;
      }
    </style>
    <filter id="drop-shadow-1" x="0" y="0" width="208.56" height="147.36" filterUnits="userSpaceOnUse">
      <feOffset dx="5" dy="5"/>
      <feGaussianBlur result="blur" stdDeviation="4"/>
      <feFlood flood-color="#3f2711" flood-opacity=".45"/>
      <feComposite in2="blur" operator="in"/>
      <feComposite in="SourceGraphic"/>
    </filter>
  </defs>
  <g>
    <path class="cls-4" d="M25.04,7.17h148.59c9.89,0,17.92,8.03,17.92,17.92v105.14H7.11V25.1C7.11,15.2,15.14,7.17,25.04,7.17Z"/>
    <rect class="cls-1" x="7.11" y="125.16" width="184.43" height="5.08"/>
    <rect class="cls-3" x="73.16" y="103.71" width="53.05" height="53.05" rx="8.97" ry="8.97"/>
  </g>
  <g>
    <path class="cls-2" d="M101.24,138.41h13.2c.16,0,.56-.48.48-.69v-21.92c0-.52-.33-.8-.85-.77l-29.76.02c-.37.07-.54.32-.57.68v5.21c-.51.15-.9.47-1.32.78v-6.07c0-1.1,1.11-1.98,2.17-1.95h29.49c1.37.1,2.07.8,2.17,2.17v21.69c.04,1.01-.83,2.17-1.88,2.17h-13.01l-.11-.11v-1.21Z"/>
    <path class="cls-2" d="M100.65,122.82v11.95l-1.32,1.4v9.49c-.14,1.23-.99,1.8-2.17,1.88-3.25.21-6.73-.17-10.01,0-1.11-.08-1.89-.6-2.09-1.73v-9.63s-1.32-1.4-1.32-1.4v-11.95h16.91ZM99.33,124.15h-14.26v10.11l1.25,1.33v9.85c.04.35.15.63.51.74l10.79-.02c.17-.12.39-.26.39-.49v-10s1.32-1.4,1.32-1.4v-10.11Z"/>
    <rect class="cls-2" x="109.69" y="116.35" width="2.65" height="20.73"/>
    <rect class="cls-2" x="103.22" y="116.35" width="1.32" height="20.73"/>
    <rect class="cls-2" x="107.12" y="116.35" width="1.32" height="20.73"/>
    <rect class="cls-2" x="88.96" y="116.35" width="2.57" height="4.56"/>
    <rect class="cls-2" x="96.75" y="116.35" width="2.57" height="4.56"/>
    <path class="cls-2" d="M101.9,116.35v5.37c-.37-.32-.75-.65-1.25-.74v-4.63h1.25Z"/>
    <polygon class="cls-2" points="87.64 116.35 87.64 120.91 86.42 120.91 86.31 120.8 86.31 116.35 87.64 116.35"/>
    <polygon class="cls-2" points="95.43 116.35 95.43 120.91 94.22 120.91 94.11 120.8 94.11 116.35 95.43 116.35"/>
    <path class="cls-2" d="M101.9,137.09h-.66c-.13-.12.53-.72.62-.81l.04.81Z"/>
    <path class="cls-2" d="M96.75,135.84v9.04h-9.12v-9.04h9.12ZM90.21,137.09h-1.25v1.32h1.25v-1.32ZM92.86,137.09h-1.32v1.32h1.32v-1.32ZM95.43,137.09h-1.21l-.11.11v1.21h1.32v-1.32ZM90.21,139.73h-1.25v1.25h1.25v-1.25ZM92.86,139.73h-1.32v1.25h1.32v-1.25ZM95.43,139.73h-1.32v1.25h1.32v-1.25ZM90.21,142.31h-1.25v1.32h1.25v-1.32ZM92.86,142.31h-1.32v1.32h1.21l.11-.11v-1.21ZM95.43,142.31h-1.32v1.21l.11.11h1.21v-1.32Z"/>
    <path class="cls-2" d="M98,125.4v7.79h-11.69v-7.68l.11-.11h11.58ZM96.75,126.72h-9.12v5.22h9.01l.11-.11v-5.11Z"/>
  </g>
</svg>