<?xml version="1.0" encoding="UTF-8"?>
<svg xmlns="http://www.w3.org/2000/svg" version="1.1" viewBox="0 0 1080 1080">
  <!-- Generator: Adobe Illustrator 29.0.0, SVG Export Plug-In . SVG Version: 2.1.0 Build 186)  -->
  <defs>
    <style>
      .st0 {
        opacity: .58;
      }

      .st0, .st1, .st2, .st3, .st4, .st5, .st6, .st7, .st8, .st9, .st10, .st11, .st12, .st13, .st14, .st15, .st16, .st17, .st18, .st19, .st20, .st21, .st22, .st23, .st24, .st25, .st26, .st27, .st28, .st29, .st30, .st31, .st32, .st33, .st34, .st35, .st36, .st37, .st38, .st39, .st40, .st41, .st42, .st43, .st44, .st45, .st46, .st47, .st48, .st49, .st50, .st51, .st52, .st53, .st54, .st55, .st56, .st57, .st58, .st59, .st60, .st61, .st62, .st63, .st64, .st65, .st66, .st67, .st68, .st69, .st70, .st71, .st72, .st73, .st74, .st75, .st76, .st77, .st78, .st79, .st80, .st81, .st82, .st83, .st84, .st85, .st86, .st87, .st88, .st89, .st90, .st91, .st92, .st93, .st94, .st95, .st96, .st97, .st98, .st99, .st100, .st101, .st102, .st103, .st104, .st105, .st106, .st107, .st108, .st109, .st110, .st111, .st112, .st113, .st114, .st115, .st116, .st117, .st118, .st119, .st120, .st121, .st122, .st123, .st124, .st125, .st126, .st127, .st128, .st129, .st130, .st131, .st132, .st133, .st134, .st135, .st136, .st137, .st138, .st139, .st140, .st141, .st142, .st143, .st144, .st145, .st146, .st147, .st148, .st149, .st150, .st151, .st152, .st153, .st154, .st155, .st156, .st157, .st158, .st159, .st160, .st161, .st162, .st163, .st164, .st165, .st166, .st167, .st168, .st169, .st170, .st171, .st172, .st173, .st174, .st175, .st176, .st177, .st178, .st179, .st180, .st181, .st182, .st183, .st184, .st185, .st186, .st187, .st188, .st189, .st190, .st191, .st192, .st193, .st194, .st195, .st196, .st197, .st198, .st199, .st200, .st201, .st202, .st203, .st204, .st205, .st206, .st207, .st208, .st209, .st210, .st211, .st212, .st213, .st214, .st215, .st216, .st217, .st218, .st219, .st220, .st221, .st222, .st223, .st224, .st225, .st226, .st227, .st228, .st229, .st230, .st231, .st232, .st233, .st234, .st235, .st236, .st237, .st238, .st239, .st240, .st241, .st242, .st243, .st244, .st245, .st246, .st247, .st248, .st249, .st250, .st251, .st252, .st253, .st254, .st255, .st256, .st257, .st258, .st259, .st260, .st261, .st262, .st263, .st264, .st265, .st266, .st267, .st268, .st269, .st270, .st271, .st272, .st273, .st274, .st275, .st276, .st277, .st278, .st279, .st280, .st281, .st282, .st283, .st284, .st285, .st286, .st287, .st288, .st289, .st290, .st291, .st292, .st293, .st294, .st295, .st296, .st297, .st298, .st299, .st300, .st301, .st302, .st303, .st304, .st305, .st306, .st307, .st308, .st309, .st310, .st311, .st312, .st313, .st314, .st315, .st316, .st317, .st318, .st319, .st320, .st321, .st322, .st323, .st324, .st325, .st326, .st327, .st328, .st329, .st330, .st331, .st332, .st333, .st334, .st335, .st336, .st337, .st338, .st339, .st340, .st341, .st342 {
        mix-blend-mode: color-dodge;
      }

      .st1 {
        opacity: .04;
      }

      .st1, .st40, .st58, .st105, .st113, .st176, .st224, .st231, .st259, .st279, .st336 {
        fill: #9ba3a3;
      }

      .st2 {
        opacity: .82;
      }

      .st3 {
        opacity: .21;
      }

      .st4 {
        opacity: .01;
      }

      .st4, .st8, .st17, .st28, .st43, .st48, .st55, .st64, .st76, .st83, .st89, .st99, .st118, .st122, .st126, .st132, .st146, .st148, .st151, .st154, .st164, .st172, .st183, .st185, .st186, .st187, .st188, .st189, .st191, .st202, .st205, .st212, .st219, .st221, .st226, .st227, .st229, .st235, .st239, .st249, .st252, .st256, .st260, .st261, .st262, .st266, .st268, .st277, .st300, .st311, .st323 {
        fill: #b2b2b2;
      }

      .st5 {
        opacity: .05;
      }

      .st5, .st14, .st18, .st19, .st24, .st25, .st31, .st35, .st41, .st53, .st60, .st61, .st69, .st70, .st71, .st77, .st78, .st91, .st92, .st93, .st94, .st96, .st100, .st104, .st111, .st115, .st119, .st129, .st130, .st141, .st143, .st144, .st158, .st184, .st194, .st198, .st200, .st201, .st206, .st214, .st217, .st220, .st233, .st234, .st247, .st251, .st265, .st270, .st278, .st283, .st284, .st286, .st287, .st292, .st296, .st297, .st306, .st316, .st317, .st319, .st322, .st326, .st328, .st334, .st338 {
        fill: #b6baba;
      }

      .st6 {
        opacity: .67;
      }

      .st7 {
        opacity: .53;
      }

      .st8 {
        opacity: .11;
      }

      .st9 {
        opacity: .04;
      }

      .st9, .st22, .st34, .st50, .st54, .st82, .st98, .st103, .st125, .st135, .st165, .st169, .st209, .st215, .st218, .st225, .st238, .st253, .st291, .st294, .st295, .st309, .st340, .st341 {
        fill: #929696;
      }

      .st10 {
        opacity: .95;
      }

      .st11 {
        opacity: .83;
      }

      .st12 {
        opacity: .6;
      }

      .st13 {
        opacity: .75;
      }

      .st14 {
        opacity: .05;
      }

      .st15 {
        opacity: .85;
      }

      .st16 {
        opacity: .9;
      }

      .st17 {
        opacity: .12;
      }

      .st18 {
        opacity: .05;
      }

      .st19 {
        opacity: .13;
      }

      .st20 {
        opacity: .14;
      }

      .st21 {
        opacity: .09;
      }

      .st21, .st72, .st101, .st120, .st293, .st315 {
        fill: #959999;
      }

      .st22 {
        opacity: .02;
      }

      .st23 {
        opacity: .36;
      }

      .st24 {
        opacity: .11;
      }

      .st25 {
        opacity: .08;
      }

      .st26 {
        opacity: .78;
      }

      .st27 {
        opacity: .11;
      }

      .st27, .st44, .st49, .st51, .st66, .st112, .st128, .st190, .st204, .st255, .st274, .st289, .st305 {
        fill: #b6b7b7;
      }

      .st28 {
        opacity: .09;
      }

      .st29 {
        opacity: .4;
      }

      .st30 {
        opacity: .46;
      }

      .st31 {
        opacity: .1;
      }

      .st32 {
        opacity: .83;
      }

      .st33 {
        opacity: .39;
      }

      .st34 {
        opacity: .03;
      }

      .st35 {
        opacity: .03;
      }

      .st36 {
        opacity: .77;
      }

      .st37 {
        opacity: .45;
      }

      .st38 {
        opacity: .62;
      }

      .st39 {
        opacity: .6;
      }

      .st40 {
        opacity: .01;
      }

      .st41 {
        opacity: 0;
      }

      .st42 {
        opacity: .81;
      }

      .st43 {
        opacity: .01;
      }

      .st44 {
        opacity: .06;
      }

      .st45 {
        opacity: 0;
      }

      .st45, .st80, .st123, .st258, .st312 {
        fill: #a5a8a8;
      }

      .st46 {
        opacity: .73;
      }

      .st47 {
        opacity: .67;
      }

      .st48 {
        opacity: .02;
      }

      .st49 {
        opacity: .09;
      }

      .st50 {
        opacity: .04;
      }

      .st51 {
        opacity: .04;
      }

      .st52 {
        opacity: .67;
      }

      .st53 {
        opacity: 0;
      }

      .st54 {
        opacity: .1;
      }

      .st55 {
        opacity: .09;
      }

      .st57 {
        opacity: .36;
      }

      .st58, .st64, .st80, .st101, .st197, .st255, .st291, .st322 {
        opacity: .13;
      }

      .st59 {
        opacity: .93;
      }

      .st60 {
        opacity: .08;
      }

      .st61 {
        opacity: .09;
      }

      .st62 {
        opacity: .18;
      }

      .st63 {
        opacity: .12;
      }

      .st63, .st157, .st180, .st197, .st216, .st246, .st254, .st271 {
        fill: #c9c9c9;
      }

      .st65 {
        opacity: .83;
      }

      .st66 {
        opacity: .12;
      }

      .st67 {
        opacity: .79;
      }

      .st68 {
        opacity: .6;
      }

      .st69 {
        opacity: .07;
      }

      .st70 {
        opacity: .05;
      }

      .st71 {
        opacity: .03;
      }

      .st72 {
        opacity: .08;
      }

      .st73 {
        opacity: .64;
      }

      .st74 {
        opacity: .91;
      }

      .st75 {
        opacity: .45;
      }

      .st76 {
        opacity: .02;
      }

      .st77 {
        opacity: .09;
      }

      .st78 {
        opacity: .02;
      }

      .st79 {
        opacity: .83;
      }

      .st81 {
        opacity: .18;
      }

      .st82 {
        opacity: 0;
      }

      .st83 {
        opacity: 0;
      }

      .st84 {
        opacity: .52;
      }

      .st85 {
        opacity: .78;
      }

      .st86 {
        opacity: .52;
      }

      .st87 {
        opacity: .26;
      }

      .st88 {
        opacity: .33;
      }

      .st89 {
        opacity: .12;
      }

      .st90 {
        opacity: .68;
      }

      .st91 {
        opacity: .01;
      }

      .st92 {
        opacity: .04;
      }

      .st93 {
        opacity: .06;
      }

      .st94 {
        opacity: .06;
      }

      .st95 {
        opacity: .72;
      }

      .st96 {
        opacity: 0;
      }

      .st97 {
        opacity: .66;
      }

      .st98 {
        opacity: .04;
      }

      .st99 {
        opacity: .06;
      }

      .st100 {
        opacity: .03;
      }

      .st102 {
        opacity: .86;
      }

      .st103 {
        opacity: .1;
      }

      .st104 {
        opacity: 0;
      }

      .st105, .st217 {
        opacity: 0;
      }

      .st106 {
        opacity: .61;
      }

      .st107 {
        opacity: .89;
      }

      .st108 {
        opacity: .99;
      }

      .st109 {
        opacity: .2;
      }

      .st110 {
        opacity: .98;
      }

      .st111 {
        opacity: .09;
      }

      .st112 {
        opacity: .09;
      }

      .st113 {
        opacity: .04;
      }

      .st114 {
        opacity: .53;
      }

      .st115 {
        opacity: .1;
      }

      .st116 {
        opacity: .8;
      }

      .st117 {
        opacity: .92;
      }

      .st118 {
        opacity: 0;
      }

      .st119 {
        opacity: .07;
      }

      .st120 {
        opacity: .05;
      }

      .st121 {
        opacity: .71;
      }

      .st122 {
        opacity: .02;
      }

      .st123 {
        opacity: .06;
      }

      .st124 {
        opacity: .74;
      }

      .st125 {
        opacity: .06;
      }

      .st126 {
        opacity: .07;
      }

      .st127 {
        opacity: .35;
      }

      .st128 {
        opacity: .08;
      }

      .st129 {
        opacity: .08;
      }

      .st130 {
        opacity: .03;
      }

      .st131 {
        opacity: .94;
      }

      .st132 {
        opacity: .08;
      }

      .st133 {
        opacity: .93;
      }

      .st134 {
        opacity: .84;
      }

      .st135 {
        opacity: .08;
      }

      .st136 {
        opacity: .4;
      }

      .st137 {
        opacity: .67;
      }

      .st138 {
        opacity: .49;
      }

      .st139 {
        opacity: .71;
      }

      .st140 {
        opacity: .69;
      }

      .st141 {
        opacity: .08;
      }

      .st142 {
        opacity: .58;
      }

      .st143 {
        opacity: .13;
      }

      .st144 {
        opacity: .01;
      }

      .st145 {
        opacity: .87;
      }

      .st146 {
        opacity: .08;
      }

      .st343 {
        isolation: isolate;
      }

      .st147 {
        opacity: .34;
      }

      .st148 {
        opacity: .05;
      }

      .st149 {
        opacity: .65;
      }

      .st150 {
        opacity: .93;
      }

      .st151 {
        opacity: .02;
      }

      .st152 {
        opacity: .85;
      }

      .st153 {
        opacity: .79;
      }

      .st154 {
        opacity: .03;
      }

      .st155 {
        opacity: .33;
      }

      .st156 {
        opacity: .92;
      }

      .st157 {
        opacity: .08;
      }

      .st158 {
        opacity: .06;
      }

      .st159 {
        opacity: .79;
      }

      .st160 {
        opacity: .72;
      }

      .st161 {
        opacity: .97;
      }

      .st162 {
        opacity: .39;
      }

      .st163 {
        opacity: .86;
      }

      .st164 {
        opacity: .03;
      }

      .st165 {
        opacity: .08;
      }

      .st166 {
        opacity: .52;
      }

      .st167 {
        opacity: .73;
      }

      .st168 {
        opacity: .4;
      }

      .st169 {
        opacity: .03;
      }

      .st170 {
        opacity: .46;
      }

      .st171 {
        opacity: .65;
      }

      .st172 {
        opacity: .1;
      }

      .st173 {
        opacity: .63;
      }

      .st174 {
        fill: #a2bef9;
        opacity: .02;
      }

      .st175 {
        opacity: .41;
      }

      .st176 {
        opacity: .13;
      }

      .st177 {
        opacity: .47;
      }

      .st178 {
        opacity: .78;
      }

      .st179 {
        opacity: .31;
      }

      .st180 {
        opacity: .11;
      }

      .st181 {
        opacity: .64;
      }

      .st182 {
        opacity: .34;
      }

      .st183 {
        opacity: .13;
      }

      .st184 {
        opacity: .06;
      }

      .st185 {
        opacity: 0;
      }

      .st186 {
        opacity: .12;
      }

      .st187 {
        opacity: .07;
      }

      .st188 {
        opacity: 0;
      }

      .st189 {
        opacity: .08;
      }

      .st190 {
        opacity: .1;
      }

      .st191 {
        opacity: .04;
      }

      .st192 {
        opacity: .98;
      }

      .st193 {
        opacity: .92;
      }

      .st194 {
        opacity: .07;
      }

      .st195 {
        opacity: .7;
      }

      .st196 {
        opacity: .81;
      }

      .st198 {
        opacity: .08;
      }

      .st199 {
        opacity: .72;
      }

      .st200 {
        opacity: .09;
      }

      .st201 {
        opacity: .07;
      }

      .st202 {
        opacity: .04;
      }

      .st203 {
        opacity: .88;
      }

      .st204 {
        opacity: .1;
      }

      .st205 {
        opacity: .07;
      }

      .st344 {
        fill: #a5aaaa;
      }

      .st206 {
        opacity: .09;
      }

      .st207 {
        fill: #8b8e8e;
      }

      .st208 {
        opacity: .96;
      }

      .st209 {
        opacity: .03;
      }

      .st210 {
        opacity: .66;
      }

      .st211 {
        opacity: .76;
      }

      .st212 {
        opacity: .07;
      }

      .st213 {
        opacity: .56;
      }

      .st214 {
        opacity: .08;
      }

      .st215 {
        opacity: .07;
      }

      .st216 {
        opacity: .08;
      }

      .st218 {
        opacity: .12;
      }

      .st219 {
        opacity: .02;
      }

      .st220 {
        opacity: .05;
      }

      .st221 {
        opacity: .04;
      }

      .st222 {
        opacity: .47;
      }

      .st223 {
        opacity: .8;
      }

      .st224 {
        opacity: .1;
      }

      .st225 {
        opacity: .07;
      }

      .st226 {
        opacity: .09;
      }

      .st227 {
        opacity: 0;
      }

      .st228 {
        opacity: .39;
      }

      .st229 {
        opacity: .01;
      }

      .st230 {
        opacity: .38;
      }

      .st231 {
        opacity: .1;
      }

      .st232 {
        opacity: .27;
      }

      .st233 {
        opacity: .03;
      }

      .st234 {
        opacity: .1;
      }

      .st235 {
        opacity: .08;
      }

      .st236 {
        opacity: .19;
      }

      .st237 {
        opacity: .95;
      }

      .st238 {
        opacity: .13;
      }

      .st239 {
        opacity: .06;
      }

      .st240 {
        opacity: .94;
      }

      .st241 {
        opacity: .64;
      }

      .st242 {
        opacity: .76;
      }

      .st243 {
        opacity: .96;
      }

      .st244 {
        opacity: .45;
      }

      .st245 {
        opacity: .91;
      }

      .st246 {
        opacity: .01;
      }

      .st247 {
        opacity: .03;
      }

      .st248 {
        opacity: .93;
      }

      .st249 {
        opacity: .11;
      }

      .st250 {
        opacity: .34;
      }

      .st251 {
        opacity: .08;
      }

      .st252 {
        opacity: .06;
      }

      .st253 {
        opacity: .07;
      }

      .st254 {
        opacity: .1;
      }

      .st345 {
        fill: #888989;
      }

      .st256 {
        opacity: .09;
      }

      .st257 {
        opacity: .7;
      }

      .st258 {
        opacity: .12;
      }

      .st259 {
        opacity: .05;
      }

      .st260 {
        opacity: .12;
      }

      .st261 {
        opacity: .02;
      }

      .st262 {
        opacity: .11;
      }

      .st263 {
        opacity: .86;
      }

      .st264 {
        opacity: .16;
      }

      .st265 {
        opacity: .03;
      }

      .st266 {
        opacity: .08;
      }

      .st346 {
        fill: #9ba5a5;
      }

      .st267 {
        opacity: .61;
      }

      .st268 {
        opacity: .03;
      }

      .st269 {
        opacity: .67;
      }

      .st270 {
        opacity: .04;
      }

      .st271 {
        opacity: .03;
      }

      .st272 {
        opacity: .82;
      }

      .st273 {
        opacity: .6;
      }

      .st274 {
        opacity: 0;
      }

      .st275 {
        opacity: .57;
      }

      .st276 {
        opacity: .47;
      }

      .st277 {
        opacity: .07;
      }

      .st278 {
        opacity: .09;
      }

      .st279 {
        opacity: .08;
      }

      .st280 {
        opacity: .34;
      }

      .st347 {
        fill: #6c6d6d;
      }

      .st281 {
        opacity: .79;
      }

      .st282 {
        opacity: .47;
      }

      .st283 {
        opacity: .06;
      }

      .st284 {
        opacity: .08;
      }

      .st285 {
        opacity: .51;
      }

      .st286 {
        opacity: .07;
      }

      .st287 {
        opacity: .12;
      }

      .st288 {
        opacity: .7;
      }

      .st289 {
        opacity: .11;
      }

      .st290 {
        opacity: .55;
      }

      .st292 {
        opacity: .05;
      }

      .st293 {
        opacity: .02;
      }

      .st294 {
        opacity: .02;
      }

      .st295 {
        opacity: .02;
      }

      .st296 {
        opacity: .07;
      }

      .st297 {
        opacity: .04;
      }

      .st298 {
        opacity: .97;
      }

      .st299 {
        opacity: .52;
      }

      .st300 {
        opacity: .11;
      }

      .st301 {
        opacity: .72;
      }

      .st302 {
        opacity: .89;
      }

      .st303 {
        opacity: .71;
      }

      .st304 {
        opacity: .68;
      }

      .st305 {
        opacity: .12;
      }

      .st306 {
        opacity: .03;
      }

      .st307 {
        opacity: .5;
      }

      .st308 {
        opacity: .3;
      }

      .st309 {
        opacity: .04;
      }

      .st310 {
        opacity: .3;
      }

      .st311 {
        opacity: .07;
      }

      .st312 {
        opacity: .07;
      }

      .st313 {
        opacity: .5;
      }

      .st314 {
        opacity: .81;
      }

      .st315 {
        opacity: 0;
      }

      .st316 {
        opacity: .07;
      }

      .st317 {
        opacity: .07;
      }

      .st318 {
        opacity: .78;
      }

      .st319 {
        opacity: .04;
      }

      .st320 {
        opacity: .49;
      }

      .st321 {
        opacity: .96;
      }

      .st323 {
        opacity: .08;
      }

      .st324 {
        opacity: .35;
      }

      .st325 {
        opacity: .47;
      }

      .st326 {
        opacity: .07;
      }

      .st327 {
        opacity: .51;
      }

      .st328 {
        opacity: .06;
      }

      .st348 {
        opacity: .5;
      }

      .st329 {
        opacity: .39;
      }

      .st330 {
        opacity: .5;
      }

      .st331 {
        opacity: .26;
      }

      .st332 {
        opacity: .94;
      }

      .st333 {
        opacity: .88;
      }

      .st334 {
        opacity: .01;
      }

      .st335 {
        opacity: .96;
      }

      .st336 {
        opacity: .08;
      }

      .st337 {
        opacity: .78;
      }

      .st338 {
        opacity: .07;
      }

      .st339 {
        opacity: .63;
      }

      .st340 {
        opacity: .09;
      }

      .st341 {
        opacity: .04;
      }

      .st342 {
        opacity: .75;
      }
    </style>
  </defs>
  <g class="st343">
    <g id="Layer_1">
      <g class="st348">
        <path class="st207" d="M183.09,841.22c-1.92,0-3.45-1.56-3.45-3.48s1.54-3.48,3.45-3.48,3.45,1.56,3.45,3.48-1.55,3.48-3.45,3.48Z"/>
        <path class="st207" d="M231.4,543.85c-1.96,0-3.53-1.59-3.53-3.56s1.58-3.57,3.53-3.57,3.53,1.6,3.53,3.57-1.58,3.56-3.53,3.56Z"/>
        <path class="st207" d="M402.75,634.04c-1.97,0-3.56-1.61-3.56-3.59s1.59-3.59,3.56-3.59,3.57,1.61,3.57,3.59-1.6,3.59-3.57,3.59Z"/>
        <path class="st207" d="M25.8,556.55c-1.98,0-3.59-1.62-3.59-3.61s1.6-3.61,3.59-3.61,3.59,1.62,3.59,3.61-1.6,3.61-3.59,3.61Z"/>
        <ellipse class="st207" cx="282.8" cy="596.06" rx="3.61" ry="3.64"/>
        <path class="st207" d="M687.07,697.05c-2,0-3.61-1.63-3.61-3.64s1.62-3.65,3.61-3.65,3.62,1.64,3.62,3.65-1.62,3.64-3.62,3.64Z"/>
        <path class="st207" d="M374.6,512.25c-2.01,0-3.64-1.64-3.64-3.66s1.63-3.66,3.64-3.66,3.64,1.64,3.64,3.66-1.63,3.66-3.64,3.66Z"/>
        <path class="st207" d="M710.51,352.41c-2.02,0-3.65-1.64-3.65-3.68s1.64-3.68,3.65-3.68,3.65,1.66,3.65,3.68-1.63,3.68-3.65,3.68Z"/>
        <path class="st207" d="M1087.87,879.05c-2.02,0-3.65-1.64-3.65-3.68s1.64-3.68,3.65-3.68,3.65,1.65,3.65,3.68-1.64,3.68-3.65,3.68Z"/>
        <path class="st207" d="M128.4,305.49c-2.02,0-3.66-1.65-3.66-3.69s1.64-3.7,3.66-3.7,3.66,1.66,3.66,3.7-1.64,3.69-3.66,3.69Z"/>
        <path class="st207" d="M599.61,343.04c-2.04,0-3.69-1.67-3.69-3.72s1.65-3.72,3.69-3.72,3.7,1.65,3.7,3.72-1.66,3.72-3.7,3.72Z"/>
        <path class="st207" d="M865.44,738.72c-2.05,0-3.72-1.67-3.72-3.75s1.67-3.74,3.72-3.74,3.72,1.67,3.72,3.74-1.67,3.75-3.72,3.75Z"/>
        <path class="st207" d="M695.39,875.51c-2.06,0-3.73-1.68-3.73-3.76s1.67-3.76,3.73-3.76,3.73,1.68,3.73,3.76-1.68,3.76-3.73,3.76Z"/>
        <path class="st207" d="M794.23,345.38c-2.07,0-3.74-1.68-3.74-3.77s1.67-3.77,3.74-3.77,3.75,1.68,3.75,3.77-1.68,3.77-3.75,3.77Z"/>
        <path class="st207" d="M597.06,820.02c-2.07,0-3.76-1.69-3.76-3.77s1.68-3.78,3.76-3.78,3.74,1.69,3.74,3.78-1.68,3.77-3.74,3.77Z"/>
        <path class="st207" d="M9.6,109.76c-2.07,0-3.76-1.69-3.76-3.78s1.68-3.78,3.76-3.78,3.76,1.69,3.76,3.78-1.68,3.78-3.76,3.78Z"/>
        <path class="st207" d="M677.52,529.7c-2.07,0-3.76-1.69-3.76-3.79s1.68-3.79,3.76-3.79,3.76,1.69,3.76,3.79-1.68,3.79-3.76,3.79Z"/>
        <path class="st207" d="M952.27,454.15c-2.08,0-3.78-1.71-3.78-3.81s1.69-3.81,3.78-3.81,3.78,1.71,3.78,3.81-1.69,3.81-3.78,3.81Z"/>
        <path class="st207" d="M681.2,397.75c-2.12,0-3.82-1.72-3.82-3.85s1.71-3.85,3.82-3.85,3.81,1.72,3.81,3.85-1.71,3.85-3.81,3.85Z"/>
        <path class="st207" d="M681.8,612.44c-2.13,0-3.85-1.73-3.85-3.87s1.72-3.87,3.85-3.87,3.84,1.73,3.84,3.87-1.72,3.87-3.84,3.87Z"/>
        <path class="st207" d="M1094.04,386.74c-1.28.64-2.17,1.95-2.17,3.48s.89,2.85,2.17,3.49v-6.98Z"/>
        <path class="st207" d="M32.93,129.99c-2.15,0-3.91-1.76-3.91-3.94s1.76-3.94,3.91-3.94,3.91,1.76,3.91,3.94-1.75,3.94-3.91,3.94Z"/>
        <path class="st207" d="M847.25,249.86c-2.16,0-3.91-1.76-3.91-3.94s1.75-3.94,3.91-3.94,3.91,1.77,3.91,3.94-1.75,3.94-3.91,3.94Z"/>
        <path class="st207" d="M496.86,669.51c-2.19,0-3.97-1.79-3.97-4s1.77-3.99,3.97-3.99,3.97,1.79,3.97,3.99-1.77,4-3.97,4Z"/>
        <path class="st207" d="M203.94,586.17c-2.19,0-3.98-1.8-3.98-4.01s1.79-4.01,3.98-4.01,3.98,1.8,3.98,4.01-1.77,4.01-3.98,4.01Z"/>
        <path class="st207" d="M189.47,685.72c-2.22,0-4.01-1.8-4.01-4.03s1.79-4.03,4.01-4.03,4,1.81,4,4.03-1.8,4.03-4,4.03Z"/>
        <path class="st207" d="M994.76,454.89c-2.24,0-4.06-1.82-4.06-4.08s1.82-4.08,4.06-4.08,4.06,1.82,4.06,4.08-1.81,4.08-4.06,4.08Z"/>
        <path class="st207" d="M12.25,862.76c-2.25,0-4.07-1.83-4.07-4.1s1.83-4.1,4.07-4.1,4.08,1.84,4.08,4.1-1.83,4.1-4.08,4.1Z"/>
        <path class="st207" d="M474.97,749.91c-2.25,0-4.07-1.84-4.07-4.1s1.82-4.1,4.07-4.1,4.07,1.84,4.07,4.1-1.83,4.1-4.07,4.1Z"/>
        <path class="st207" d="M295.11,729.65c-2.28,0-4.14-1.87-4.14-4.18s1.85-4.17,4.14-4.17,4.15,1.87,4.15,4.17-1.85,4.18-4.15,4.18Z"/>
        <path class="st207" d="M870.39,558.25c-2.29,0-4.14-1.86-4.14-4.18s1.85-4.17,4.14-4.17,4.15,1.87,4.15,4.17-1.86,4.18-4.15,4.18Z"/>
        <ellipse class="st207" cx="425.23" cy="692.69" rx="4.15" ry="4.18"/>
        <path class="st207" d="M140.93,540.59c-2.3,0-4.15-1.88-4.15-4.19s1.85-4.18,4.15-4.18,4.15,1.87,4.15,4.18-1.85,4.19-4.15,4.19Z"/>
        <path class="st207" d="M402.3,719.67c-2.3,0-4.15-1.88-4.15-4.19s1.85-4.19,4.15-4.19,4.16,1.88,4.16,4.19-1.87,4.19-4.16,4.19Z"/>
        <path class="st207" d="M513.69,715.67c-2.3,0-4.16-1.88-4.16-4.2s1.86-4.19,4.16-4.19,4.16,1.88,4.16,4.19-1.86,4.2-4.16,4.2Z"/>
        <path class="st207" d="M736.26,441.73c-2.31,0-4.18-1.89-4.18-4.22s1.87-4.2,4.18-4.2,4.18,1.88,4.18,4.2-1.87,4.22-4.18,4.22Z"/>
        <path class="st207" d="M448.33,866.12c-2.34,0-4.23-1.9-4.23-4.25s1.89-4.25,4.23-4.25,4.21,1.9,4.21,4.25-1.89,4.25-4.21,4.25Z"/>
        <path class="st207" d="M840.3,677.6c-2.35,0-4.26-1.92-4.26-4.29s1.91-4.29,4.26-4.29,4.26,1.92,4.26,4.29-1.9,4.29-4.26,4.29Z"/>
        <path class="st207" d="M413.61,398.72c-2.36,0-4.28-1.93-4.28-4.31s1.92-4.32,4.28-4.32,4.28,1.93,4.28,4.32-1.92,4.31-4.28,4.31Z"/>
        <path class="st207" d="M1085.36,499.28c-2.38,0-4.3-1.94-4.3-4.33s1.92-4.33,4.3-4.33,4.31,1.94,4.31,4.33-1.93,4.33-4.31,4.33Z"/>
        <path class="st207" d="M60.52,432.22c-2.38,0-4.31-1.93-4.31-4.32s1.93-4.33,4.31-4.33,4.29,1.93,4.29,4.33-1.92,4.32-4.29,4.32Z"/>
        <path class="st207" d="M103.86,787.86c-2.38,0-4.31-1.94-4.31-4.34s1.93-4.35,4.31-4.35,4.32,1.94,4.32,4.35-1.93,4.34-4.32,4.34Z"/>
        <path class="st207" d="M545.57,456.57c-2.38,0-4.32-1.94-4.32-4.35s1.94-4.35,4.32-4.35,4.32,1.94,4.32,4.35-1.93,4.35-4.32,4.35Z"/>
        <path class="st207" d="M478.43,803.5c-2.39,0-4.33-1.95-4.33-4.36s1.94-4.37,4.33-4.37,4.33,1.96,4.33,4.37-1.94,4.36-4.33,4.36Z"/>
        <path class="st207" d="M93.01,488.14c-2.42,0-4.37-1.97-4.37-4.41s1.96-4.41,4.37-4.41,4.37,1.98,4.37,4.41-1.96,4.41-4.37,4.41Z"/>
        <path class="st207" d="M574.97,843.8c-2.42,0-4.39-1.98-4.39-4.41s1.97-4.41,4.39-4.41,4.37,1.98,4.37,4.41-1.96,4.41-4.37,4.41Z"/>
        <path class="st207" d="M855.09,154.82c-2.43,0-4.39-1.98-4.39-4.43s1.96-4.43,4.39-4.43,4.39,1.98,4.39,4.43-1.97,4.43-4.39,4.43Z"/>
        <path class="st207" d="M73.92,582.53c-2.47,0-4.46-2.02-4.46-4.5s2-4.5,4.46-4.5,4.46,2.02,4.46,4.5-2,4.5-4.46,4.5Z"/>
        <path class="st207" d="M953.42,878.14c-2.49,0-4.52-2.04-4.52-4.55s2.02-4.55,4.52-4.55,4.53,2.03,4.53,4.55-2.03,4.55-4.53,4.55Z"/>
        <path class="st207" d="M180.59,442.74c-2.59,0-4.69-2.11-4.69-4.71s2.1-4.73,4.69-4.73,4.7,2.12,4.7,4.73-2.1,4.71-4.7,4.71Z"/>
        <polygon class="st123" points="237.1 882.58 183.09 837.74 210.95 882.58 237.1 882.58"/>
        <polygon class="st258" points="237.1 882.58 183.09 837.74 206.15 882.58 237.1 882.58"/>
        <polygon class="st80" points="343.39 882.58 343.29 852.7 305.01 882.58 343.39 882.58"/>
        <polygon class="st45" points="5.21 563.52 5.21 607.77 25.8 552.94 5.21 563.52"/>
        <polygon class="st312" points="237.1 882.58 183.09 837.74 179.12 882.58 237.1 882.58"/>
        <polygon class="st189" points="317.13 882.58 343.29 852.7 183.09 837.74 210.76 882.58 317.13 882.58"/>
        <polygon class="st249" points="343.39 882.58 343.29 852.7 317.13 882.58 343.39 882.58"/>
        <polygon class="st186" points="317.13 882.58 343.29 852.7 305.01 882.58 317.13 882.58"/>
        <polygon class="st202" points="184.74 882.58 303.45 637.44 183.09 837.74 179.12 882.58 184.74 882.58"/>
        <polygon class="st261" points="183.09 837.74 5.21 848.03 5.21 864.55 55.6 882.58 210.76 882.58 183.09 837.74"/>
        <polygon class="st132" points="184.14 882.58 247.05 740.19 183.09 837.74 179.12 882.58 184.14 882.58"/>
        <polygon class="st268" points="299.11 882.58 381.24 750.65 183.09 837.74 210.76 882.58 299.11 882.58"/>
        <polygon class="st227" points="343.29 852.7 303.45 637.44 470.33 511.87 343.29 852.7"/>
        <polygon class="st239" points="371.48 882.58 381.24 750.65 343.29 852.7 346.45 882.58 371.48 882.58"/>
        <polygon class="st212" points="5.21 859.02 5.21 882.58 112.87 882.58 5.21 859.02"/>
        <polygon class="st212" points="5.21 859.02 5.21 882.58 112.87 882.58 5.21 859.02"/>
        <polygon class="st191" points="303.45 637.44 198.37 405.32 396.72 425.43 303.45 637.44"/>
        <polygon class="st164" points="381.24 750.65 231.4 540.29 470.33 511.87 381.24 750.65"/>
        <polygon class="st311" points="402.75 630.45 396.72 425.43 231.4 540.29 402.75 630.45"/>
        <polygon class="st311" points="402.75 630.45 396.72 425.43 231.4 540.29 402.75 630.45"/>
        <polygon class="st300" points="402.75 630.45 282.8 596.06 231.4 540.29 402.75 630.45"/>
        <polygon class="st4" points="396.72 425.43 25.8 552.94 231.4 540.29 396.72 425.43"/>
        <polygon class="st260" points="381.24 750.65 303.45 637.44 282.8 596.06 381.24 750.65"/>
        <polygon class="st188" points="442.19 882.58 381.24 750.65 435.2 882.58 442.19 882.58"/>
        <polygon class="st89" points="303.45 637.44 282.8 596.06 374.6 508.6 303.45 637.44"/>
        <polygon class="st17" points="247.05 740.19 381.24 750.65 282.8 596.06 247.05 740.19"/>
        <polygon class="st187" points="247.05 740.19 402.75 630.45 374.6 508.6 247.05 740.19"/>
        <polygon class="st64" points="396.72 425.43 374.6 508.6 470.33 511.87 396.72 425.43"/>
        <polygon class="st262" points="402.75 630.45 429.4 535.49 470.33 511.87 402.75 630.45"/>
        <polygon class="st126" points="396.72 425.43 599.61 339.32 470.33 511.87 396.72 425.43"/>
        <polygon class="st122" points="844.19 882.58 865.44 734.97 778.7 786.89 798.74 882.58 844.19 882.58"/>
        <polygon class="st185" points="750.64 882.58 778.7 786.89 592.15 882.58 750.64 882.58"/>
        <polygon class="st55" points="396.72 425.43 282.8 596.06 429.4 535.49 396.72 425.43"/>
        <polygon class="st64" points="374.6 508.6 429.4 535.49 470.33 511.87 374.6 508.6"/>
        <polygon class="st64" points="396.72 425.43 374.6 508.6 429.4 535.49 396.72 425.43"/>
        <polygon class="st118" points="402.75 630.45 429.4 535.49 599.61 339.32 402.75 630.45"/>
        <polygon class="st76" points="695.76 882.58 695.39 871.75 662.78 882.58 695.76 882.58"/>
        <polygon class="st219" points="705.33 882.58 687.07 693.41 597.06 816.25 640.47 882.58 705.33 882.58"/>
        <polygon class="st235" points="687.07 693.41 597.06 816.25 695.39 871.75 687.07 693.41"/>
        <polygon class="st148" points="1028.85 882.58 1087.87 875.37 865.44 734.97 861.68 882.58 1028.85 882.58"/>
        <polygon class="st266" points="687.07 693.41 677.52 525.91 696.23 493.6 687.07 693.41"/>
        <polygon class="st277" points="706.04 491.12 710.51 348.74 603.87 299.15 706.04 491.12"/>
        <polygon class="st172" points="752.71 882.58 695.39 871.75 697.19 882.58 752.71 882.58"/>
        <polygon class="st83" points="706.04 491.12 429.4 535.49 603.87 299.15 706.04 491.12"/>
        <polygon class="st151" points="5.21 442.92 5.21 493.27 101.02 425.19 128.4 301.8 5.21 442.92"/>
        <polygon class="st64" points="162.86 381 128.4 301.8 101.02 425.19 162.86 381"/>
        <polygon class="st256" points="706.04 491.12 677.52 525.91 710.51 348.74 706.04 491.12"/>
        <polygon class="st205" points="5.21 287.88 5.21 295.19 128.4 301.8 139.75 149.65 5.21 287.88"/>
        <polygon class="st323" points="696.23 493.6 797.44 372.13 599.61 339.32 696.23 493.6"/>
        <polygon class="st252" points="798.84 882.58 597.06 816.25 626.32 882.58 798.84 882.58"/>
        <polygon class="st154" points="865.44 734.97 549.23 759.94 695.39 871.75 865.44 734.97"/>
        <polygon class="st43" points="706.04 491.12 952.27 450.34 599.61 339.32 706.04 491.12"/>
        <polygon class="st226" points="677.52 525.91 599.61 339.32 681.2 393.9 677.52 525.91"/>
        <polygon class="st146" points="706.04 491.12 797.44 372.13 599.61 339.32 706.04 491.12"/>
        <polygon class="st64" points="706.04 491.12 677.52 525.91 696.23 493.6 706.04 491.12"/>
        <polygon class="st183" points="597.06 816.25 549.23 759.94 695.39 871.75 597.06 816.25"/>
        <polygon class="st8" points="696.23 493.6 794.23 341.61 681.2 393.9 696.23 493.6"/>
        <polygon class="st28" points="706.04 491.12 952.27 450.34 696.23 493.6 706.04 491.12"/>
        <polygon class="st64" points="952.27 450.34 797.44 372.13 794.23 341.61 952.27 450.34"/>
        <polygon class="st221" points="823.18 636.29 597.06 816.25 677.52 525.91 823.18 636.29"/>
        <polygon class="st99" points="823.18 636.29 952.27 450.34 696.23 493.6 823.18 636.29"/>
        <polygon class="st229" points="549.23 759.94 695.39 871.75 325.23 701.3 549.23 759.94"/>
        <polygon class="st48" points="139.75 149.65 338.78 272.75 101.02 425.19 139.75 149.65"/>
        <polygon class="st317" points="706.04 491.12 823.18 636.29 794.23 341.61 706.04 491.12"/>
        <polygon class="st322" points="797.44 372.13 794.23 341.61 784.98 376.22 797.44 372.13"/>
        <polygon class="st130" points="797.44 372.13 842.59 306.79 847.25 245.92 797.44 372.13"/>
        <polygon class="st115" points="696.23 493.6 681.8 608.57 681.2 393.9 696.23 493.6"/>
        <polygon class="st60" points="696.23 493.6 784.98 376.22 681.8 608.57 696.23 493.6"/>
        <polygon class="st296" points="952.27 450.34 794.23 341.61 909.59 275.73 952.27 450.34"/>
        <polygon class="st119" points="139.75 149.65 9.6 105.97 32.93 126.05 139.75 149.65"/>
        <polygon class="st287" points="677.52 525.91 681.8 608.57 681.2 393.9 677.52 525.91"/>
        <polygon class="st322" points="706.04 491.12 797.44 372.13 784.98 376.22 706.04 491.12"/>
        <polygon class="st5" points="677.52 525.91 797.44 372.13 909.59 275.73 677.52 525.91"/>
        <polygon class="st31" points="823.18 636.29 797.44 372.13 784.98 376.22 823.18 636.29"/>
        <polygon class="st143" points="706.04 491.12 823.18 636.29 681.8 608.57 706.04 491.12"/>
        <polygon class="st322" points="797.44 372.13 784.98 376.22 681.2 393.9 797.44 372.13"/>
        <polygon class="st322" points="706.04 491.12 681.8 608.57 681.2 393.9 706.04 491.12"/>
        <polygon class="st141" points="162.86 381 401.4 393.85 338.78 272.75 162.86 381"/>
        <polygon class="st141" points="162.86 381 401.4 393.85 338.78 272.75 162.86 381"/>
        <polygon class="st233" points="823.18 636.29 952.27 450.34 1068.27 361.65 823.18 636.29"/>
        <polygon class="st70" points="696.23 493.6 784.98 376.22 876.03 368.75 696.23 493.6"/>
        <polygon class="st265" points="450.57 882.58 681.8 608.57 549.23 759.94 449.29 882.58 450.57 882.58"/>
        <polygon class="st198" points="5.21 278.81 87.85 82.9 32.93 126.05 5.21 261.75 5.21 278.81"/>
        <polygon class="st104" points="1094.04 389.24 847.25 245.92 794.23 341.61 1094.04 389.96 1094.04 389.24"/>
        <polygon class="st158" points="523.28 882.58 549.23 759.94 433.48 735.1 466.21 882.58 523.28 882.58"/>
        <polygon class="st319" points="952.27 450.34 1068.27 361.65 847.25 245.92 952.27 450.34"/>
        <polygon class="st144" points="1068.27 361.65 847.25 245.92 681.2 393.9 1068.27 361.65"/>
        <polygon class="st53" points="1094.04 390.07 876.03 368.75 681.2 393.9 1094.04 390.25 1094.04 390.07"/>
        <polygon class="st194" points="466.21 882.58 433.48 735.1 423.93 882.58 466.21 882.58"/>
        <polygon class="st251" points="847.25 245.92 876.03 368.75 681.2 393.9 847.25 245.92"/>
        <polygon class="st326" points="784.98 376.22 1068.27 361.65 876.03 368.75 784.98 376.22"/>
        <polygon class="st338" points="427.36 882.58 496.86 665.51 433.48 735.1 417.87 882.58 427.36 882.58"/>
        <polygon class="st322" points="909.59 275.73 847.25 245.92 876.03 368.75 909.59 275.73"/>
        <polygon class="st91" points="549.23 759.94 496.86 665.51 749.43 673.36 549.23 759.94"/>
        <polygon class="st94" points="414.95 882.58 496.86 665.51 433.48 735.1 405.46 882.58 414.95 882.58"/>
        <polygon class="st278" points="1094.04 388.46 1068.27 361.65 994.76 450.8 1094.04 391.26 1094.04 388.46"/>
        <polygon class="st93" points="433.48 735.1 690.86 703.66 496.86 665.51 433.48 735.1"/>
        <polygon class="st316" points="203.94 582.16 189.47 681.69 496.86 665.51 203.94 582.16"/>
        <polygon class="st322" points="690.86 703.66 496.86 665.51 560.38 630.79 690.86 703.66"/>
        <polygon class="st201" points="1094.04 410.3 1068.27 361.65 994.76 450.8 1094.04 485.86 1094.04 410.3"/>
        <polygon class="st247" points="876.03 368.75 752 424.93 749.43 673.36 876.03 368.75"/>
        <polygon class="st71" points="429.57 882.58 474.97 745.81 417.22 882.58 429.57 882.58"/>
        <polygon class="st322" points="203.94 582.16 189.47 681.69 105.63 691.29 203.94 582.16"/>
        <polygon class="st328" points="690.86 703.66 560.38 630.79 752 424.93 690.86 703.66"/>
        <polygon class="st217" points="429.57 882.58 474.97 745.81 261.65 882.58 429.57 882.58"/>
        <polygon class="st214" points="345.95 882.58 195.55 729.62 242.77 882.58 345.95 882.58"/>
        <polygon class="st184" points="203.94 582.16 12.25 858.66 105.63 691.29 203.94 582.16"/>
        <polygon class="st284" points="248.87 882.58 295.11 725.48 189.47 681.69 243.18 882.58 248.87 882.58"/>
        <polygon class="st322" points="690.86 703.66 749.43 673.36 682.54 670.89 690.86 703.66"/>
        <polygon class="st61" points="242.77 882.58 195.55 729.62 12.25 858.66 176.52 882.58 242.77 882.58"/>
        <polygon class="st283" points="189.47 681.69 474.97 745.81 402.3 715.48 189.47 681.69"/>
        <polygon class="st24" points="189.47 681.69 140.93 536.4 105.63 691.29 189.47 681.69"/>
        <polygon class="st220" points="248.87 882.58 295.11 725.48 12.25 858.66 176.52 882.58 248.87 882.58"/>
        <polygon class="st96" points="203.94 582.16 109.85 790.6 402.3 715.48 203.94 582.16"/>
        <polygon class="st69" points="690.86 703.66 474.97 745.81 640.09 642.88 690.86 703.66"/>
        <polygon class="st322" points="109.85 790.6 12.25 858.66 105.63 691.29 109.85 790.6"/>
        <polygon class="st200" points="496.86 665.51 425.23 692.69 513.69 711.47 496.86 665.51"/>
        <polygon class="st92" points="203.94 582.16 124.67 505.35 295.11 725.48 203.94 582.16"/>
        <polygon class="st18" points="640.09 642.88 752 424.93 749.43 673.36 640.09 642.88"/>
        <polygon class="st111" points="994.76 450.8 816.74 462.42 752 424.93 994.76 450.8"/>
        <polygon class="st77" points="425.23 692.69 560.38 630.79 475.22 624.09 425.23 692.69"/>
        <polygon class="st35" points="189.47 681.69 140.93 536.4 402.3 715.48 189.47 681.69"/>
        <polygon class="st306" points="12.25 858.66 195.55 729.62 402.3 715.48 12.25 858.66"/>
        <polygon class="st334" points="690.86 703.66 870.39 554.07 513.69 711.47 690.86 703.66"/>
        <polygon class="st234" points="242.77 882.58 195.55 729.62 171.45 809.56 236.84 882.58 242.77 882.58"/>
        <polygon class="st25" points="749.43 673.36 682.54 670.89 513.69 711.47 749.43 673.36"/>
        <polygon class="st206" points="254.95 882.58 425.23 692.69 402.3 715.48 254.8 882.58 254.95 882.58"/>
        <polygon class="st41" points="749.43 673.36 475.22 624.09 736.26 437.51 749.43 673.36"/>
        <polygon class="st78" points="474.97 745.81 816.74 462.42 682.54 670.89 474.97 745.81"/>
        <polygon class="st322" points="295.11 725.48 195.55 729.62 402.3 715.48 295.11 725.48"/>
        <polygon class="st297" points="425.23 692.69 124.67 505.35 195.55 729.62 425.23 692.69"/>
        <polygon class="st322" points="425.23 692.69 474.97 745.81 531.97 802.69 425.23 692.69"/>
        <polygon class="st322" points="816.74 462.42 752 424.93 736.26 437.51 816.74 462.42"/>
        <polygon class="st19" points="474.97 745.81 640.09 642.88 513.69 711.47 474.97 745.81"/>
        <polygon class="st129" points="5.21 525.99 5.21 533.91 109.85 790.6 124.67 505.35 5.21 525.99"/>
        <polygon class="st292" points="109.85 790.6 295.11 725.48 475.22 624.09 109.85 790.6"/>
        <polygon class="st270" points="870.39 554.07 994.76 450.8 732.45 592.34 870.39 554.07"/>
        <polygon class="st322" points="5.21 526.72 140.93 536.4 124.67 505.35 5.21 525.99 5.21 526.72"/>
        <polygon class="st322" points="109.85 790.6 171.45 809.56 295.11 725.48 109.85 790.6"/>
        <polygon class="st286" points="195.55 729.62 448.33 861.87 402.3 715.48 195.55 729.62"/>
        <polygon class="st14" points="295.11 725.48 682.54 670.89 475.22 624.09 295.11 725.48"/>
        <polygon class="st100" points="994.76 450.8 816.74 462.42 840.3 673.3 994.76 450.8"/>
        <polygon class="st322" points="425.23 692.69 513.69 711.47 475.22 624.09 425.23 692.69"/>
        <polygon class="st255" points="402.3 715.48 513.69 711.47 475.22 624.09 402.3 715.48"/>
        <polygon class="st255" points="870.39 554.07 816.74 462.42 736.26 437.51 870.39 554.07"/>
        <polygon class="st255" points="870.39 554.07 816.74 462.42 736.26 437.51 870.39 554.07"/>
        <polygon class="st27" points="171.45 809.56 425.23 692.69 295.11 725.48 171.45 809.56"/>
        <polygon class="st289" points="791.19 404.48 816.74 462.42 752 424.93 791.19 404.48"/>
        <polygon class="st204" points="752 424.93 732.45 592.34 736.26 437.51 752 424.93"/>
        <polygon class="st66" points="640.09 642.88 402.3 715.48 475.22 624.09 640.09 642.88"/>
        <polygon class="st49" points="870.39 554.07 640.09 642.88 736.26 437.51 870.39 554.07"/>
        <polygon class="st255" points="531.97 802.69 402.3 715.48 513.69 711.47 531.97 802.69"/>
        <polygon class="st305" points="425.23 692.69 295.11 725.48 448.33 861.87 425.23 692.69"/>
        <polygon class="st274" points="5.21 444.9 5.21 520.74 140.93 536.4 5.21 444.9"/>
        <polygon class="st128" points="5.21 510.27 5.21 528.81 40.71 555.91 5.21 510.27"/>
        <polygon class="st255" points="448.33 861.87 402.3 715.48 513.69 711.47 448.33 861.87"/>
        <polygon class="st44" points="316.17 470.87 124.67 505.35 295.11 725.48 316.17 470.87"/>
        <polygon class="st255" points="316.17 470.87 140.93 536.4 124.67 505.35 316.17 470.87"/>
        <polygon class="st112" points="640.09 642.88 448.33 861.87 682.54 670.89 640.09 642.88"/>
        <polygon class="st190" points="870.39 554.07 682.54 670.89 840.3 673.3 870.39 554.07"/>
        <polygon class="st51" points="5.21 710.21 5.21 775.58 109.85 790.6 140.93 536.4 5.21 710.21"/>
        <polygon class="st225" points="171.45 809.56 425.23 692.69 448.33 861.87 171.45 809.56"/>
        <polygon class="st291" points="640.09 642.88 732.45 592.34 682.54 670.89 640.09 642.88"/>
        <polygon class="st50" points="171.45 809.56 448.33 861.87 475.22 624.09 171.45 809.56"/>
        <polygon class="st54" points="5.21 526.72 140.93 536.4 60.52 427.9 5.21 521.41 5.21 526.72"/>
        <polygon class="st215" points="531.97 802.69 732.45 592.34 475.22 624.09 531.97 802.69"/>
        <polygon class="st253" points="531.97 802.69 682.54 670.89 840.3 673.3 531.97 802.69"/>
        <polygon class="st165" points="640.09 642.88 816.74 462.42 840.3 673.3 640.09 642.88"/>
        <polygon class="st82" points="425.23 692.69 682.54 670.89 845.66 599.41 425.23 692.69"/>
        <polygon class="st9" points="545.57 452.22 475.22 624.09 736.26 437.51 545.57 452.22"/>
        <polygon class="st295" points="316.17 470.87 295.11 725.48 40.71 555.91 316.17 470.87"/>
        <polygon class="st291" points="640.09 642.88 732.45 592.34 840.3 673.3 640.09 642.88"/>
        <polygon class="st218" points="732.45 592.34 682.54 670.89 845.66 599.41 732.45 592.34"/>
        <polygon class="st125" points="640.09 642.88 574.97 839.39 513.69 711.47 640.09 642.88"/>
        <polygon class="st340" points="791.19 404.48 870.39 554.07 845.66 599.41 791.19 404.48"/>
        <polygon class="st169" points="316.17 470.87 425.23 692.69 478.43 799.14 316.17 470.87"/>
        <polygon class="st291" points="531.97 802.69 448.33 861.87 478.43 799.14 531.97 802.69"/>
        <polygon class="st34" points="650.09 681.16 448.33 861.87 475.22 624.09 650.09 681.16"/>
        <polygon class="st22" points="413.61 394.41 478.43 799.14 475.22 624.09 413.61 394.41"/>
        <polygon class="st103" points="531.97 802.69 448.33 861.87 574.97 839.39 531.97 802.69"/>
        <polygon class="st135" points="810.29 394.18 732.45 592.34 736.26 437.51 810.29 394.18"/>
        <polygon class="st294" points="791.19 404.48 650.09 681.16 682.54 670.89 791.19 404.48"/>
        <polygon class="st309" points="840.37 138.71 810.29 394.18 736.26 437.51 840.37 138.71"/>
        <polygon class="st209" points="531.97 802.69 732.45 592.34 574.97 839.39 531.97 802.69"/>
        <polygon class="st238" points="791.19 404.48 810.29 394.18 736.26 437.51 791.19 404.48"/>
        <polygon class="st341" points="640.09 642.88 545.57 452.22 845.66 599.41 640.09 642.88"/>
        <polygon class="st98" points="545.57 452.22 845.66 599.41 736.26 437.51 545.57 452.22"/>
        <polygon class="st120" points="5.21 762.02 171.45 809.56 40.71 555.91 5.21 664.12 5.21 762.02"/>
        <polygon class="st293" points="791.19 404.48 840.37 138.71 545.57 452.22 791.19 404.48"/>
        <polygon class="st101" points="144.15 448.53 40.71 555.91 60.52 427.9 144.15 448.53"/>
        <polygon class="st315" points="109.85 790.6 103.83 647.08 103.86 783.52 109.85 790.6"/>
        <polygon class="st72" points="650.09 681.16 545.57 452.22 732.45 592.34 650.09 681.16"/>
        <polygon class="st21" points="791.19 404.48 810.29 394.18 545.57 452.22 791.19 404.48"/>
        <polygon class="st101" points="5.21 760.48 5.21 773.61 103.86 783.52 5.21 760.48"/>
        <polygon class="st101" points="1094.04 367.24 1088.8 315.75 1085.36 494.95 1094.04 409.45 1094.04 367.24"/>
        <polygon class="st101" points="1094.04 367.24 1088.8 315.75 1085.36 494.95 1094.04 409.45 1094.04 367.24"/>
        <polygon class="st1" points="650.09 681.16 810.29 394.18 840.3 673.3 650.09 681.16"/>
        <polygon class="st105" points="1094.04 233.68 855.09 150.4 1088.8 315.75 1094.04 315.57 1094.04 233.68"/>
        <polygon class="st336" points="5.21 760.48 103.86 783.52 93.01 483.73 5.21 685.99 5.21 760.48"/>
        <polygon class="st224" points="5.21 565.16 5.21 664.12 40.71 555.91 5.21 565.16"/>
        <polygon class="st259" points="791.19 404.48 793.69 411.44 845.66 599.41 791.19 404.48"/>
        <polygon class="st113" points="316.17 470.87 103.83 647.08 93.01 483.73 316.17 470.87"/>
        <polygon class="st58" points="650.09 681.16 574.97 839.39 478.43 799.14 650.09 681.16"/>
        <polygon class="st279" points="5.21 701.05 73.92 578.03 40.71 555.91 5.21 664.12 5.21 701.05"/>
        <polygon class="st40" points="791.19 404.48 793.69 411.44 1088.8 315.75 791.19 404.48"/>
        <polygon class="st231" points="791.19 404.48 810.29 394.18 793.69 411.44 791.19 404.48"/>
        <polygon class="st176" points="73.92 578.03 93.01 483.73 60.52 427.9 73.92 578.03"/>
        <polygon class="st157" points="5.21 617.15 103.83 647.08 40.71 555.91 5.21 565.16 5.21 617.15"/>
        <polygon class="st246" points="5.21 482.62 5.21 551.46 40.71 555.91 5.21 482.62"/>
        <polygon class="st271" points="650.09 681.16 793.69 411.44 545.57 452.22 650.09 681.16"/>
        <polygon class="st254" points="5.21 617.15 103.83 647.08 93.01 483.73 5.21 535.2 5.21 617.15"/>
        <polygon class="st63" points="5.21 729.18 103.83 647.08 73.92 578.03 5.21 701.05 5.21 729.18"/>
        <polygon class="st180" points="5.21 479.04 5.21 535.2 93.01 483.73 5.21 479.04"/>
        <polygon class="st197" points="5.21 481.93 103.83 647.08 73.92 578.03 5.21 481.45 5.21 481.93"/>
        <polygon class="st197" points="5.21 481.93 103.83 647.08 73.92 578.03 5.21 481.45 5.21 481.93"/>
        <polygon class="st216" points="5.21 478.53 5.21 481.45 73.92 578.03 180.59 438.02 5.21 478.53"/>
        <polygon class="st174" points="5.21 434.79 5.21 478.53 180.59 438.02 5.21 434.79"/>
        <g class="st222">
          <path class="st345" d="M210.68,882.58h.56l-27.95-44.97c-.05-.07-.13-.12-.21-.12-.04,0-.09.01-.13.04-.1.07-.14.22-.08.33l27.8,44.71Z"/>
        </g>
        <g class="st138">
          <path class="st345" d="M183.11,837.5l-177.91-18.18v.48l177.85,18.17c.13.01.25-.09.26-.22.01-.13-.08-.25-.21-.26Z"/>
        </g>
        <g class="st26">
          <path class="st345" d="M236.72,882.58h.76l-54.24-45.02c-.05-.04-.1-.06-.16-.06-.07,0-.13.03-.18.09-.09.1-.08.26.04.34l53.78,44.65Z"/>
        </g>
        <g class="st56">
          <path class="st345" d="M343.63,882.58l-.1-29.88c0-.13-.1-.24-.24-.24s-.24.11-.24.24l.11,29.88h.47Z"/>
        </g>
        <g class="st56">
          <path class="st345" d="M305.4,882.58l38.04-29.69c.1-.08.12-.23.04-.34-.05-.06-.12-.09-.2-.09-.05,0-.09.02-.14.05l-38.52,30.07h.78Z"/>
        </g>
        <g class="st84">
          <path class="st345" d="M183.09,837.5s-.04,0-.05,0L5.21,879.92v.5l177.93-42.44c.13-.03.21-.16.18-.29-.03-.11-.13-.19-.24-.19Z"/>
        </g>
        <g class="st248">
          <path class="st345" d="M179.36,882.58l3.97-44.82c.01-.13-.08-.25-.21-.26-.01,0-.03,0-.03,0-.12,0-.24.1-.24.22l-3.98,44.86h.49Z"/>
        </g>
        <g class="st6">
          <path class="st345" d="M303.45,637.19c.12,0,.21.09.24.2l39.84,215.25c.03.13-.05.26-.18.28-.13.03-.26-.06-.29-.19l-39.84-215.26c-.03-.13.07-.26.2-.28,0,0,.03,0,.04,0Z"/>
        </g>
        <g class="st193">
          <path class="st345" d="M346.69,882.58l-3.17-29.91c-.01-.13-.1-.22-.24-.22h-.03c-.13.02-.22.14-.21.27l3.16,29.86h.47Z"/>
        </g>
        <g class="st150">
          <path class="st345" d="M317.44,882.58l26.03-29.72c.09-.1.08-.25-.03-.34-.04-.05-.09-.06-.16-.06s-.13.03-.17.08l-26.3,30.04h.63Z"/>
        </g>
        <g class="st87">
          <path class="st344" d="M711.93,882.58l66.98-95.55c.08-.1.05-.26-.06-.33-.04-.03-.08-.05-.14-.05-.07,0-.15.04-.2.1l-67.17,95.83h.59Z"/>
        </g>
        <g class="st245">
          <path class="st344" d="M381.24,750.4s.05,0,.09.01c.12.05.18.18.13.31l-37.95,102.05c-.04.13-.18.19-.3.14-.12-.05-.18-.19-.15-.31l37.95-102.05c.04-.1.13-.16.22-.16Z"/>
        </g>
        <g class="st56">
          <path class="st344" d="M198.37,405.07c.12,0,.21.08.24.18l33.03,134.97c.03.13-.05.26-.18.3-.13.04-.25-.05-.29-.18l-33.01-134.97c-.04-.13.04-.26.17-.29.01,0,.04-.01.05-.01Z"/>
        </g>
        <g class="st56">
          <path class="st344" d="M231.4,540.05c.08,0,.15.04.2.1l72.04,97.15c.08.1.05.26-.05.34-.1.08-.26.05-.34-.05l-72.04-97.15c-.08-.1-.05-.26.05-.34.04-.03.09-.05.14-.05Z"/>
        </g>
        <g class="st46">
          <path class="st344" d="M247.05,739.94c.07,0,.13.03.18.08l96.23,112.51c.09.1.08.26-.03.34-.09.09-.25.07-.33-.03l-96.25-112.51c-.09-.1-.08-.26.03-.34.04-.04.09-.06.16-.06Z"/>
        </g>
        <g class="st56">
          <path class="st344" d="M402.75,630.21c.13,0,.24.1.24.23.01.13-.08.25-.21.26l-99.32,6.99c-.16-.01-.25-.09-.26-.22,0-.14.1-.25.24-.26l99.31-6.99h.01Z"/>
        </g>
        <g class="st145">
          <path class="st344" d="M231.4,540.05s.08.01.12.03l171.35,90.16c.12.06.16.2.09.32-.05.12-.2.16-.31.1l-171.35-90.16c-.12-.07-.17-.21-.1-.33.04-.09.12-.13.21-.13Z"/>
        </g>
        <g class="st327">
          <path class="st344" d="M373.78,882.58h.68l-31.01-30.05c-.05-.05-.1-.07-.17-.07-.05,0-.12.03-.17.08-.09.09-.09.24.01.34l30.65,29.71Z"/>
        </g>
        <g class="st275">
          <path class="st344" d="M470.33,511.64c.13,0,.22.09.24.21.03.13-.08.26-.21.27l-238.93,28.41c-.12.03-.25-.08-.26-.21-.01-.13.08-.25.21-.27l238.93-28.41h.03Z"/>
        </g>
        <g class="st121">
          <path class="st344" d="M198.37,405.07s.01,0,.03.01l198.35,20.11c.13.01.24.13.22.26-.01.13-.13.26-.28.21l-198.34-20.11c-.13-.01-.24-.13-.22-.26s.12-.22.24-.22Z"/>
        </g>
        <g class="st160">
          <path class="st344" d="M396.72,425.19c.08,0,.16.03.2.1.08.1.05.25-.05.33l-165.32,114.86c-.12.09-.26.05-.34-.06-.08-.11-.05-.26.07-.33l165.32-114.86s.09-.04.13-.04Z"/>
        </g>
        <g class="st56">
          <path class="st344" d="M282.8,595.82c.09,0,.17.05.21.13l20.64,41.39c.07.12.01.26-.1.32s-.26.01-.32-.1l-20.64-41.39c-.07-.12-.01-.26.1-.32.03-.02.07-.03.1-.03Z"/>
        </g>
        <g class="st56">
          <path class="st344" d="M402.75,630.21s.04,0,.05,0c.12.03.21.15.18.28l-21.51,120.19c-.03.13-.15.23-.28.2-.13-.03-.22-.15-.2-.28l21.51-120.19c.03-.12.13-.2.24-.2Z"/>
        </g>
        <g class="st97">
          <path class="st344" d="M299.39,882.58l82.06-131.81c.07-.11.03-.26-.08-.33-.04-.03-.08-.04-.13-.04-.08,0-.16.04-.2.11l-82.22,132.07h.56Z"/>
        </g>
        <g class="st223">
          <path class="st344" d="M252.41,882.58l-5.12-142.4c-.01-.13-.12-.24-.24-.24h-.01c-.13,0-.24.12-.24.25l5.14,142.39h.47Z"/>
        </g>
        <g class="st337">
          <path class="st344" d="M374.6,508.35c.1,0,.21.08.24.19.03.13-.05.26-.18.29l-143.2,31.7c-.13.03-.26-.05-.29-.18-.03-.13.05-.26.18-.29l143.2-31.69s.04,0,.05,0Z"/>
        </g>
        <g class="st56">
          <path class="st344" d="M282.8,595.82s.04,0,.07,0l119.95,34.4c.13.03.21.17.17.3-.04.13-.17.2-.3.17l-119.95-34.4c-.13-.03-.2-.17-.17-.29.04-.1.13-.18.24-.18Z"/>
        </g>
        <g class="st10">
          <path class="st344" d="M282.8,595.82c.08,0,.16.04.2.11l98.45,154.59c.07.11.04.26-.08.33-.1.07-.26.03-.33-.08l-98.45-154.58c-.07-.11-.03-.26.08-.33.04-.03.08-.04.13-.04Z"/>
        </g>
        <g class="st102">
          <path class="st344" d="M396.72,425.19c.05,0,.09.01.13.04.12.08.15.22.07.33l-113.92,170.63c-.06.11-.22.15-.33.07-.12-.07-.14-.22-.06-.33l113.92-170.62c.05-.07.12-.1.2-.1Z"/>
        </g>
        <g class="st203">
          <path class="st344" d="M413.81,882.58l-32.33-131.99c-.03-.11-.13-.18-.24-.18-.01,0-.04,0-.05,0-.13.03-.21.16-.18.29l32.31,131.88h.5Z"/>
        </g>
        <g class="st56">
          <path class="st344" d="M374.6,508.35h.01l95.74,3.28c.13,0,.24.12.24.25-.01.13-.12.24-.25.23l-95.75-3.28c-.13,0-.24-.12-.22-.25,0-.14.1-.24.24-.24Z"/>
        </g>
        <g class="st236">
          <path class="st344" d="M778.7,786.65s.05,0,.06.01l309.17,88.48c.12.03.2.17.16.29-.03.13-.17.2-.3.17l-309.17-88.48c-.13-.03-.2-.17-.16-.3.03-.1.12-.18.23-.18Z"/>
        </g>
        <g class="st56">
          <path class="st344" d="M396.72,425.19h.07c.13.04.21.17.17.3l-22.14,83.16c-.03.13-.17.2-.29.17-.13-.03-.2-.16-.17-.29l22.14-83.17c.03-.1.12-.17.22-.17Z"/>
        </g>
        <g class="st56">
          <path class="st344" d="M374.6,508.35c.07,0,.13.03.17.08.09.09.09.24-.01.33l-91.8,87.47c-.09.09-.24.09-.33-.01-.09-.1-.09-.25,0-.34l91.8-87.46c.05-.05.11-.07.17-.07Z"/>
        </g>
        <g class="st153">
          <path class="st344" d="M429.4,535.24s.04,0,.05,0c.13.04.21.17.17.3l-26.63,94.97c-.04.13-.17.2-.3.17-.12-.04-.2-.17-.16-.3l26.63-94.97c.03-.1.13-.18.24-.18Z"/>
        </g>
        <g class="st56">
          <path class="st344" d="M470.33,511.64c.09,0,.17.04.21.12.07.12.03.26-.09.33l-40.93,23.61c-.12.07-.26.03-.33-.09-.06-.12-.03-.26.08-.33l40.95-23.6s.08-.03.12-.03Z"/>
        </g>
        <g class="st56">
          <path class="st344" d="M396.72,425.19c.1,0,.2.07.24.17l32.66,110.05c.04.13-.03.26-.16.3-.13.03-.26-.03-.3-.17l-32.66-110.05c-.04-.12.03-.26.16-.3h.07Z"/>
        </g>
        <g class="st74">
          <path class="st344" d="M429.4,535.24c.09,0,.18.06.21.15.05.13,0,.26-.13.32l-146.58,60.57c-.12.05-.26-.01-.31-.13-.05-.13.01-.27.13-.31l146.6-60.57s.05-.02.09-.02Z"/>
        </g>
        <g class="st90">
          <path class="st344" d="M865.44,734.74c.08,0,.17.04.2.12.07.11.03.26-.08.33l-86.74,51.92c-.11.07-.26.03-.33-.08-.07-.12-.03-.26.09-.33l86.73-51.91s.08-.03.12-.03Z"/>
        </g>
        <g class="st325">
          <path class="st344" d="M696.01,882.58l-.38-10.83c0-.13-.12-.24-.24-.24h-.01c-.13,0-.24.12-.24.25l.38,10.82h.49Z"/>
        </g>
        <g class="st56">
          <path class="st344" d="M374.6,508.35s.07,0,.1.03l54.8,26.89c.12.06.16.2.1.32s-.2.17-.31.11l-54.8-26.89c-.12-.06-.17-.2-.12-.32.05-.09.13-.14.22-.14Z"/>
        </g>
        <g class="st56">
          <path class="st344" d="M603.87,298.9s.07.01.09.03l106.65,49.6c.12.05.17.2.11.32-.05.12-.2.17-.32.12l-106.64-49.6c-.12-.05-.17-.2-.12-.32.04-.09.13-.14.22-.14Z"/>
        </g>
        <g class="st228">
          <path class="st344" d="M25.8,552.69s-.03,0-.04,0l-20.55,3.41v.49l20.63-3.42c.13-.02.22-.14.2-.28-.01-.12-.12-.2-.24-.2Z"/>
        </g>
        <g class="st310">
          <path class="st344" d="M101.02,424.96s.08,0,.12.03c.12.07.16.22.09.33l-75.22,127.75c-.07.11-.21.15-.33.08-.12-.07-.16-.22-.09-.33l75.22-127.74c.05-.08.13-.12.21-.12Z"/>
        </g>
        <g class="st257">
          <path class="st344" d="M603.87,298.9h0l238.72,7.64c.13.01.24.12.23.25,0,.15-.1.25-.24.24l-238.72-7.64c-.13,0-.24-.12-.24-.25.01-.13.12-.24.25-.24Z"/>
        </g>
        <g class="st86">
          <path class="st344" d="M696.23,493.36h0c.13,0,.24.12.24.25l-9.15,199.8c-.01.14-.11.25-.25.23-.13,0-.24-.12-.24-.25l9.15-199.8c.01-.13.12-.23.25-.23Z"/>
        </g>
        <g class="st73">
          <path class="st344" d="M842.59,306.54c.12,0,.22.09.24.21.01.14-.08.26-.21.28l-242.97,32.53c-.14.03-.25-.08-.28-.21-.01-.13.08-.25.21-.26l242.97-32.53s.02-.01.03-.01Z"/>
        </g>
        <g class="st37">
          <path class="st344" d="M677.52,525.67c.13,0,.24.1.24.23l9.56,167.49c0,.14-.09.25-.22.26-.15.02-.25-.09-.26-.22l-9.55-167.5c-.01-.13.09-.24.22-.26h.01Z"/>
        </g>
        <g class="st166">
          <path class="st344" d="M499.96,882.58l97.23-66.13c.1-.07.13-.22.07-.33-.05-.07-.13-.1-.2-.1-.05,0-.09.01-.14.04l-97.81,66.54h.85Z"/>
        </g>
        <g class="st264">
          <path class="st344" d="M699.23,882.58l-3.61-10.91c-.04-.1-.13-.16-.22-.16-.03,0-.05,0-.08.01-.13.05-.2.18-.16.31l3.57,10.75h.5Z"/>
        </g>
        <g class="st285">
          <path class="st344" d="M1030.84,882.58l57.06-6.97c.13-.02.23-.14.21-.27-.01-.13-.12-.22-.24-.22,0,0-.02,0-.03,0l-60.99,7.45h3.98Z"/>
        </g>
        <g class="st56">
          <path class="st344" d="M697.43,882.58l-1.8-10.87c-.03-.12-.13-.2-.24-.2-.01,0-.03,0-.04,0-.13.02-.22.15-.2.28l1.79,10.79h.49Z"/>
        </g>
        <g class="st171">
          <path class="st344" d="M530.19,882.58l67.03-66.16c.1-.09.1-.24.01-.34-.05-.05-.12-.07-.17-.07-.06,0-.13.03-.17.07l-67.39,66.5h.7Z"/>
        </g>
        <g class="st213">
          <path class="st344" d="M640.18,882.58h.58l-43.51-66.46c-.05-.07-.13-.11-.2-.11-.05,0-.09.01-.13.04-.12.07-.15.22-.08.33l43.34,66.2Z"/>
        </g>
        <g class="st208">
          <path class="st344" d="M139.75,149.4h.01c.13.01.24.13.22.26l-11.35,152.15c0,.13-.1.22-.24.22h-.01c-.13-.01-.24-.13-.22-.26l11.33-152.15c.01-.12.12-.22.25-.22Z"/>
        </g>
        <g class="st321">
          <path class="st344" d="M128.4,301.55s.04,0,.05.01c.13.03.21.16.18.29l-27.38,123.39c-.03.13-.16.21-.29.18-.13-.03-.21-.16-.18-.29l27.38-123.39c.03-.12.13-.2.24-.2Z"/>
        </g>
        <g class="st56">
          <path class="st344" d="M128.4,301.55c.09,0,.18.07.22.14l34.46,79.2c.05.12,0,.26-.13.31-.1.07-.26,0-.31-.12l-34.45-79.2c-.07-.12,0-.26.12-.32.03-.01.07-.03.09-.03Z"/>
        </g>
        <g class="st161">
          <path class="st344" d="M599.61,339.07c.08,0,.16.04.21.12l96.61,154.28c.07.11.04.26-.08.33-.1.07-.26.03-.33-.08l-96.61-154.28c-.06-.12-.04-.26.08-.34.04-.03.08-.04.12-.04Z"/>
        </g>
        <g class="st288">
          <path class="st344" d="M842.59,306.54c.07,0,.14.04.19.1l109.69,143.55c.09.1.07.25-.04.34-.1.08-.26.05-.34-.05l-109.69-143.55c-.09-.11-.07-.26.04-.34.05-.03.1-.05.15-.05Z"/>
        </g>
        <g class="st85">
          <path class="st344" d="M599.61,339.07c.1,0,.18.07.22.16l77.91,186.59c.05.13,0,.26-.13.32-.12.05-.26,0-.32-.13l-77.9-186.59c-.05-.12,0-.26.12-.31.04-.01.06-.03.09-.03Z"/>
        </g>
        <g class="st56">
          <path class="st344" d="M861.92,882.58l3.76-147.6c0-.13-.1-.24-.23-.24h0c-.13,0-.24.1-.24.23l-3.76,147.61h.48Z"/>
        </g>
        <g class="st56">
          <path class="st344" d="M695.34,871.99l56.07,10.59h2.61l-58.58-11.06s-.03,0-.04,0c-.12,0-.22.08-.24.2-.03.13.05.26.18.28Z"/>
        </g>
        <g class="st114">
          <path class="st344" d="M710.51,348.5s.09.01.13.04c.11.07.15.22.07.33l-29.32,45.16c-.08.12-.22.15-.34.07-.1-.07-.13-.22-.06-.33l29.32-45.16c.05-.07.12-.1.2-.1Z"/>
        </g>
        <g class="st230">
          <path class="st344" d="M87.85,82.66c.12,0,.21.08.24.2l40.55,218.89c.03.13-.07.26-.2.29-.1.01-.25-.07-.28-.2l-40.55-218.9c-.03-.13.06-.25.2-.28h.04Z"/>
        </g>
        <g class="st56">
          <path class="st344" d="M597.06,816s.08.01.11.03l98.33,55.5c.12.07.16.21.11.33-.08.12-.22.16-.33.09l-98.33-55.5c-.12-.07-.16-.21-.09-.33.04-.08.12-.13.21-.13Z"/>
        </g>
        <g class="st56">
          <path class="st344" d="M794.23,341.37s.09.01.13.04c.11.07.15.21.07.33l-98,152c-.08.1-.22.14-.33.07-.12-.07-.15-.22-.08-.33l98.01-151.99c.05-.07.12-.1.2-.1Z"/>
        </g>
        <g class="st75">
          <path class="st344" d="M677.52,525.67c.07,0,.13.03.18.08l187.92,209.07c.09.1.08.25-.01.34-.1.09-.25.08-.34-.02l-187.92-209.06c-.09-.1-.09-.25.01-.34.04-.04.1-.07.16-.07Z"/>
        </g>
        <g class="st170">
          <path class="st344" d="M245.72,882.58l79.74-181.19c.05-.12,0-.26-.12-.32-.04-.01-.07-.02-.1-.02-.09,0-.17.05-.22.14l-79.82,181.38h.53Z"/>
        </g>
        <g class="st199">
          <path class="st344" d="M599.61,339.07c.08,0,.16.04.2.1l106.44,151.81c.08.11.05.26-.06.34-.1.07-.26.05-.33-.06l-106.44-151.82c-.06-.1-.04-.25.07-.33.04-.03.09-.05.13-.05Z"/>
        </g>
        <g class="st57">
          <path class="st344" d="M842.59,306.54c.09,0,.16.05.21.13.06.12.02.26-.1.33l-161.4,87.11c-.12.07-.26.03-.33-.09-.05-.12-.01-.26.1-.33l161.39-87.11s.08-.04.12-.04Z"/>
        </g>
        <g class="st263">
          <path class="st344" d="M626.05,882.58h.53l-29.31-66.43c-.04-.09-.12-.15-.21-.15-.04,0-.06,0-.1.02-.12.06-.17.2-.12.32l29.22,66.23Z"/>
        </g>
        <g class="st56">
          <path class="st344" d="M696.23,493.36s.08,0,.12.03c.12.07.15.22.08.33l-18.7,32.3c-.07.12-.21.15-.33.09-.12-.07-.16-.22-.09-.33l18.71-32.31c.04-.08.12-.12.21-.12Z"/>
        </g>
        <g class="st7">
          <path class="st344" d="M842.59,306.54c.05,0,.11.03.15.06.1.08.12.24.03.34l-57.61,69.43c-.08.09-.24.1-.34.03-.1-.09-.11-.24-.03-.34l57.61-69.43c.05-.05.11-.09.18-.09Z"/>
        </g>
        <g class="st299">
          <path class="st344" d="M139.75,149.4s.01,0,.03.01c.13.01.22.13.21.26l-38.73,275.56c-.03.13-.14.22-.28.2-.13-.01-.22-.13-.2-.28l38.71-275.54c.03-.12.13-.21.25-.21Z"/>
        </g>
        <g class="st211">
          <path class="st344" d="M139.75,149.4c.12,0,.22.09.24.22l23.11,231.35c.01.13-.08.25-.21.26h-.03c-.12,0-.22-.09-.24-.22l-23.13-231.34c0-.14.09-.26.22-.26t.03-.01Z"/>
        </g>
        <g class="st152">
          <path class="st344" d="M599.61,339.07c.05,0,.09.01.13.04l81.59,54.59c.11.07.13.22.07.33-.08.12-.22.15-.34.07l-81.58-54.58c-.1-.07-.13-.22-.07-.33.05-.08.12-.12.2-.12Z"/>
        </g>
        <g class="st155">
          <path class="st344" d="M9.6,105.74c.08,0,.17.04.21.12l153.27,275.03c.07.12.03.26-.09.33-.12.07-.26.01-.33-.09L9.39,106.09c-.07-.12-.03-.26.09-.33.04-.03.08-.03.12-.03Z"/>
        </g>
        <g class="st56">
          <path class="st344" d="M797.44,371.88c.05,0,.11.03.16.06.1.08.11.24.03.33l-101.2,121.49c-.09.1-.24.11-.34.03-.1-.08-.12-.24-.03-.33l101.2-121.48c.05-.05.12-.09.18-.09Z"/>
        </g>
        <g class="st159">
          <path class="st344" d="M549.23,759.7s.09.02.14.05l146.16,111.81c.1.08.12.23.04.33-.08.1-.22.13-.33.05l-146.18-111.81c-.09-.08-.12-.23-.04-.33.05-.07.12-.1.2-.1Z"/>
        </g>
        <g class="st65">
          <path class="st344" d="M139.92,149.48c-.05-.05-.12-.08-.17-.08-.07,0-.13.03-.17.08L5.21,287.54v.69l134.71-138.41c.09-.1.09-.25,0-.34Z"/>
        </g>
        <g class="st56">
          <path class="st344" d="M706.04,490.89c.05,0,.1.02.15.05.1.08.12.24.03.34l-28.52,34.79c-.08.1-.24.11-.34.03-.09-.08-.1-.24-.03-.34l28.52-34.79c.05-.06.11-.08.18-.08Z"/>
        </g>
        <g class="st23">
          <path class="st344" d="M614.21,882.58h.54l-65.31-122.75c-.05-.09-.13-.13-.21-.13-.04,0-.08.01-.12.03-.12.06-.16.21-.09.33l65.19,122.52Z"/>
        </g>
        <g class="st56">
          <path class="st344" d="M87.85,82.66c.08,0,.15.03.18.09l51.9,66.74c.08.1.07.26-.04.34-.1.08-.26.07-.34-.04l-51.89-66.75c-.08-.1-.07-.25.04-.34.04-.03.09-.04.14-.04Z"/>
        </g>
        <g class="st56">
          <path class="st344" d="M549.23,759.7c.07,0,.13.03.18.09l47.81,56.3c.09.1.08.26-.03.34-.09.08-.25.07-.33-.03l-47.83-56.3c-.09-.1-.08-.26.03-.34.04-.04.09-.06.16-.06Z"/>
        </g>
        <g class="st56">
          <path class="st344" d="M101.21,425.05L5.21,303.04v.79l95.63,121.51c.08.11.22.13.33.04.1-.08.12-.22.04-.33Z"/>
        </g>
        <g class="st62">
          <path class="st344" d="M87.85,82.66c.13,0,.24.09.24.22l13.17,342.29c0,.15-.09.25-.24.25-.1.01-.24-.09-.24-.22l-13.17-342.29c-.01-.15.09-.25.22-.25h.01Z"/>
        </g>
        <g class="st110">
          <path class="st344" d="M162.98,380.78L5.21,298.11v.55l157.55,82.56c.12.05.26.01.33-.1.05-.12.01-.26-.11-.33Z"/>
        </g>
        <g class="st56">
          <path class="st344" d="M797.44,371.88s.07.01.11.03l154.84,78.23c.12.05.16.2.11.31s-.2.17-.32.1l-154.84-78.22c-.12-.05-.17-.2-.1-.33.04-.08.13-.13.21-.13Z"/>
        </g>
        <g class="st243">
          <path class="st344" d="M677.52,525.67c.05,0,.11.02.15.05l145.66,110.38c.1.08.13.23.05.33-.08.1-.23.13-.33.05l-145.66-110.38c-.1-.08-.13-.23-.05-.33.05-.07.13-.1.2-.1Z"/>
        </g>
        <g class="st267">
          <path class="st344" d="M681.8,608.33s.05,0,.08.02c.13.05.18.19.13.32l-84.73,207.67c-.05.13-.2.18-.31.13-.13-.05-.18-.19-.13-.32l84.74-207.67c.04-.09.12-.15.22-.15Z"/>
        </g>
        <g class="st307">
          <path class="st344" d="M139.75,149.4s.08.01.12.04l199.03,123.12c.12.07.16.21.08.33-.06.1-.21.15-.33.08l-199.03-123.12c-.12-.07-.14-.21-.08-.33.04-.08.12-.12.21-.12Z"/>
        </g>
        <g class="st56">
          <path class="st344" d="M677.52,525.67c.13,0,.24.1.24.23l4.28,82.66c0,.14-.09.25-.24.26-.13-.03-.24-.1-.25-.23l-4.27-82.66c-.01-.13.09-.24.22-.26h.01Z"/>
        </g>
        <g class="st127">
          <path class="st344" d="M338.78,272.52c.08,0,.16.04.2.1.08.12.04.26-.06.34l-237.76,152.44c-.12.07-.26.04-.34-.08-.07-.12-.03-.26.08-.33l237.76-152.44s.09-.04.13-.04Z"/>
        </g>
        <g class="st95">
          <path class="st344" d="M338.78,272.52c.08,0,.16.04.2.12.08.1.04.26-.08.33l-175.91,108.24c-.12.08-.26.04-.33-.08-.08-.12-.04-.26.08-.33l175.91-108.24s.09-.04.13-.04Z"/>
        </g>
        <g class="st56">
          <path class="st344" d="M706.04,490.89c.07,0,.14.03.18.08l117.13,145.17c.08.1.06.26-.03.33-.11.09-.26.07-.34-.03l-117.13-145.16c-.09-.11-.07-.26.03-.34.05-.04.1-.05.15-.05Z"/>
        </g>
        <g class="st38">
          <path class="st344" d="M433.48,734.86s.07,0,.1.02l163.58,81.15c.12.06.16.2.1.32-.07.12-.21.17-.32.11l-163.58-81.15c-.12-.06-.17-.2-.12-.32.05-.08.13-.13.22-.13Z"/>
        </g>
        <g class="st56">
          <path class="st344" d="M797.44,371.88c.11,0,.22.09.24.2.03.13-.06.26-.19.29l-116.25,21.77c-.13.01-.26-.06-.28-.2-.03-.13.05-.25.18-.28l116.25-21.77s.03-.01.05-.01Z"/>
        </g>
        <g class="st56">
          <path class="st344" d="M784.98,375.97s.09.01.14.05c.1.06.13.22.06.33l-78.94,114.91c-.07.11-.22.14-.33.07-.1-.08-.14-.23-.06-.33l78.94-114.91c.05-.07.12-.11.2-.11Z"/>
        </g>
        <g class="st133">
          <path class="st344" d="M681.8,608.33c.05,0,.1.02.16.06.09.09.1.24.01.34l-132.57,151.36c-.08.1-.24.11-.33.03-.1-.09-.12-.24-.03-.34l132.57-151.37c.04-.05.1-.08.18-.08Z"/>
        </g>
        <g class="st81">
          <path class="st344" d="M338.78,272.52h-.01L5.21,294.15v.49l333.59-21.64c.13-.01.24-.13.22-.26-.01-.13-.12-.22-.24-.22Z"/>
        </g>
        <g class="st59">
          <path class="st344" d="M1094.04,390.68l-141.86,59.44c-.12.05-.18.2-.12.32.05.12.19.18.31.13l141.68-59.37v-.52Z"/>
        </g>
        <g class="st179">
          <path class="st344" d="M87.85,82.66c.05,0,.1.01.15.04l250.93,189.87c.1.08.13.22.05.33-.09.1-.24.13-.34.05L87.71,83.08c-.1-.08-.13-.22-.04-.33.04-.07.1-.09.18-.09Z"/>
        </g>
        <g class="st56">
          <path class="st344" d="M681.8,608.33s.03,0,.04,0l141.38,27.72c.13.03.21.15.19.28-.03.13-.15.21-.28.19l-141.38-27.72c-.13-.03-.21-.15-.18-.28.01-.12.12-.2.24-.2Z"/>
        </g>
        <g class="st301">
          <path class="st344" d="M909.59,275.49c.1,0,.2.08.23.18l42.69,174.62c.03.12-.05.25-.18.29-.13.04-.26-.05-.29-.18l-42.69-174.61c-.03-.13.05-.26.18-.29.02-.01.04-.01.06-.01Z"/>
        </g>
        <g class="st52">
          <path class="st344" d="M396.15,882.58l-70.69-181.37c-.04-.09-.13-.15-.22-.15-.03,0-.05,0-.09.01-.12.05-.18.19-.13.32l70.62,181.19h.51Z"/>
        </g>
        <g class="st137">
          <path class="st344" d="M9.6,105.74c.05,0,.1.01.16.05l23.34,20.08c.1.09.12.24.03.34-.08.1-.24.12-.34.03l-23.34-20.08c-.1-.09-.12-.24-.03-.34.05-.05.12-.08.18-.08Z"/>
        </g>
        <g class="st106">
          <path class="st344" d="M909.59,275.49c.08,0,.17.05.21.13.07.12.01.26-.1.33l-228.4,118.16c-.12.07-.26.03-.33-.1-.05-.12-.01-.26.1-.32l228.4-118.18s.07-.03.11-.03Z"/>
        </g>
        <g class="st56">
          <path class="st344" d="M909.59,275.49c.07,0,.14.03.18.09.09.1.07.26-.03.34l-124.61,100.49c-.1.08-.26.07-.34-.04-.08-.1-.07-.25.04-.34l124.61-100.49s.1-.05.15-.05Z"/>
        </g>
        <g class="st56">
          <path class="st344" d="M87.85,82.66c.08,0,.15.03.18.09.09.1.07.25-.04.33l-54.92,43.17c-.1.08-.25.05-.33-.05-.08-.1-.07-.25.04-.33l54.92-43.17s.09-.04.14-.04Z"/>
        </g>
        <g class="st320">
          <path class="st344" d="M466.46,882.58l-32.74-147.54c-.03-.11-.13-.18-.24-.18-.01,0-.04,0-.05,0-.13.03-.21.16-.18.28l32.71,147.43h.5Z"/>
        </g>
        <g class="st177">
          <path class="st344" d="M1094.04,388.95l-246.67-143.23s-.08-.03-.12-.03c-.08,0-.16.04-.21.12-.06.12-.03.26.09.33l246.91,143.37v-.56Z"/>
        </g>
        <g class="st331">
          <path class="st344" d="M401.4,393.61c.09,0,.18.07.22.16l95.46,271.66c.05.12-.01.26-.15.31-.12.05-.26-.02-.3-.14l-95.46-271.66c-.05-.13.01-.28.15-.32.03-.01.05-.01.08-.01Z"/>
        </g>
        <g class="st56">
          <path class="st344" d="M496.86,665.26c.07,0,.12.03.17.07.09.09.1.24.01.34l-63.39,69.59c-.09.1-.24.1-.33.02-.11-.09-.11-.25-.03-.34l63.39-69.59c.04-.05.1-.08.17-.08Z"/>
        </g>
        <g class="st242">
          <path class="st344" d="M560.38,630.55c.07,0,.13.03.18.08.09.11.07.26-.04.34l-126.9,104.31c-.09.08-.25.07-.33-.03-.09-.1-.07-.26.03-.34l126.9-104.31c.05-.04.1-.05.16-.05Z"/>
        </g>
        <g class="st39">
          <path class="st344" d="M405.69,882.58l28.02-147.44c.03-.13-.07-.26-.2-.28h-.04c-.12,0-.21.08-.24.2l-28.04,147.52h.49Z"/>
        </g>
        <g class="st56">
          <path class="st344" d="M1094.04,383.59l-25.61-22.12s-.1-.06-.16-.06c-.07,0-.13.04-.18.09-.09.1-.07.25.03.34l25.93,22.4v-.64Z"/>
        </g>
        <g class="st136">
          <path class="st344" d="M1094.04,390.98l-99.4,59.61c-.11.07-.15.22-.09.34.07.1.22.14.33.08l99.16-59.48v-.55Z"/>
        </g>
        <g class="st56">
          <path class="st344" d="M560.38,630.55c.08,0,.17.04.21.13.07.12.01.26-.09.32l-63.52,34.72c-.12.07-.26.03-.33-.09-.06-.12-.01-.26.09-.33l63.52-34.72s.08-.03.12-.03Z"/>
        </g>
        <g class="st181">
          <path class="st344" d="M1068.27,361.4c.05,0,.11.03.16.06.1.08.11.24.03.34l-73.51,89.16c-.08.1-.24.12-.34.03-.1-.08-.12-.24-.03-.34l73.51-89.16c.05-.05.12-.09.18-.09Z"/>
        </g>
        <g class="st269">
          <path class="st344" d="M12.38,858.46s-.08-.03-.13-.03c-.08,0-.16.04-.2.11l-6.85,10.94v.91l7.25-11.59c.07-.11.04-.26-.08-.33Z"/>
        </g>
        <g class="st335">
          <path class="st344" d="M496.86,665.26s.04,0,.05,0l194,38.15c.13.03.21.15.18.28-.03.13-.14.22-.28.19l-194-38.15c-.13-.03-.22-.15-.2-.28.03-.11.13-.2.24-.2Z"/>
        </g>
        <g class="st56">
          <path class="st344" d="M203.94,581.91s.03,0,.04,0c.13.02.21.14.2.27l-14.47,99.53c-.03.13-.12.22-.28.2-.13-.02-.22-.14-.2-.28l14.47-99.52c.01-.13.12-.21.24-.21Z"/>
        </g>
        <g class="st302">
          <path class="st344" d="M243.43,882.58l-53.74-200.96c-.03-.11-.12-.18-.22-.18-.03,0-.05,0-.07,0-.13.03-.21.17-.17.29l53.7,200.83h.5Z"/>
        </g>
        <g class="st108">
          <path class="st344" d="M203.94,581.91c.05,0,.12.02.16.07.11.09.11.24.01.34l-98.29,109.13c-.09.1-.24.1-.34.01-.09-.09-.1-.24-.01-.34l98.3-109.13c.05-.05.12-.08.18-.08Z"/>
        </g>
        <g class="st42">
          <path class="st344" d="M417.49,882.58l57.7-136.68c.05-.13-.01-.27-.13-.32-.03-.01-.07-.02-.09-.02-.09,0-.18.06-.22.15l-57.78,136.86h.52Z"/>
        </g>
        <g class="st156">
          <path class="st344" d="M203.94,581.91h.01c.13,0,.24.13.22.26l-8.39,147.46c0,.14-.11.24-.25.23-.13,0-.24-.12-.22-.26l8.39-147.46c0-.13.1-.23.24-.23Z"/>
        </g>
        <g class="st33">
          <path class="st344" d="M345.63,882.58h.67l-150.58-153.13s-.1-.07-.17-.07-.12.03-.17.07c-.09.1-.09.25,0,.34l150.25,152.79Z"/>
        </g>
        <g class="st56">
          <path class="st344" d="M189.47,681.44c.12,0,.22.09.24.22.01.13-.08.25-.21.26l-83.84,9.6c-.09.02-.24-.08-.26-.21-.01-.13.08-.25.21-.27l83.84-9.6h.03Z"/>
        </g>
        <g class="st314">
          <path class="st344" d="M690.86,703.42c.12,0,.22.08.24.2.03.13-.05.26-.18.28l-215.9,42.15c-.14.03-.26-.06-.29-.19-.03-.13.06-.26.18-.28l215.91-42.15s.03,0,.04,0Z"/>
        </g>
        <g class="st56">
          <path class="st344" d="M189.47,681.44c.12,0,.22.08.24.21l6.08,47.94c.03.13-.08.25-.21.27-.12.01-.25-.08-.26-.21l-6.08-47.94c-.03-.13.07-.25.2-.27h.04Z"/>
        </g>
        <g class="st342">
          <path class="st344" d="M752,424.69h0c.13,0,.24.1.24.24l-2.58,248.44c0,.13-.11.24-.24.24-.13,0-.24-.11-.24-.24l2.58-248.43c0-.13.11-.24.24-.24Z"/>
        </g>
        <g class="st276">
          <path class="st344" d="M204.01,581.93L5.21,527.09v.5l198.67,54.79c.13.05.26-.03.29-.16.04-.13-.03-.26-.16-.3Z"/>
        </g>
        <g class="st318">
          <path class="st344" d="M752,424.69h.03l242.76,25.87c.13.01.23.13.22.26-.01.13-.14.25-.26.21l-242.76-25.86c-.14-.01-.23-.13-.22-.28.01-.12.12-.21.24-.21Z"/>
        </g>
        <g class="st303">
          <path class="st344" d="M140.93,536.17c.05,0,.09.01.13.05l63.02,45.75c.11.08.13.23.05.33-.08.12-.22.14-.34.06l-63.01-45.75c-.11-.08-.13-.23-.05-.33.04-.07.12-.1.2-.1Z"/>
        </g>
        <g class="st241">
          <path class="st344" d="M124.67,505.12c.05,0,.12.02.16.06l79.28,76.81c.09.09.09.24,0,.34-.09.09-.24.1-.34,0l-79.27-76.81c-.09-.09-.1-.24-.01-.34.05-.05.12-.07.18-.07Z"/>
        </g>
        <g class="st273">
          <path class="st344" d="M560.38,630.55s.08,0,.12.03c.12.07.16.22.09.33l-46.69,80.69c-.06.11-.21.15-.33.08-.12-.07-.16-.22-.09-.33l46.69-80.69c.04-.08.13-.12.21-.12Z"/>
        </g>
        <g class="st0">
          <path class="st344" d="M124.67,505.12c.09,0,.18.06.22.16l64.8,176.33c.04.13-.01.26-.15.31-.12.05-.26-.01-.31-.14l-64.8-176.33c-.04-.13.03-.26.15-.31.03,0,.05-.01.09-.01Z"/>
        </g>
        <g class="st107">
          <path class="st344" d="M195.55,729.38c.08,0,.16.04.2.1.08.11.05.26-.07.34L12.39,858.86c-.1.08-.26.05-.33-.06-.08-.1-.05-.26.05-.33l183.3-129.04s.08-.05.13-.05Z"/>
        </g>
        <g class="st333">
          <path class="st344" d="M870.39,553.84c.07,0,.13.02.17.07.09.09.09.25,0,.34l-120.97,119.28c-.09.1-.24.1-.33,0-.1-.1-.09-.25,0-.34l120.97-119.29s.1-.07.16-.07Z"/>
        </g>
        <g class="st12">
          <path class="st344" d="M690.86,703.42c.13,0,.24.1.25.24,0,.13-.11.24-.24.25l-177.17,7.81c-.13,0-.25-.1-.25-.23-.01-.13.09-.25.22-.26l177.18-7.81h0Z"/>
        </g>
        <g class="st163">
          <path class="st344" d="M249.12,882.58l46.23-157.03c.04-.13-.04-.26-.16-.3-.03,0-.05,0-.08,0-.09,0-.2.07-.22.17l-46.28,157.17h.51Z"/>
        </g>
        <g class="st13">
          <path class="st344" d="M640.09,642.64c.07,0,.13.03.18.09l50.77,60.78c.09.1.08.26-.03.34-.1.08-.25.07-.34-.03l-50.77-60.78c-.09-.1-.08-.25.03-.33.05-.04.1-.06.16-.06Z"/>
        </g>
        <g class="st237">
          <path class="st344" d="M994.76,450.56c.07,0,.14.03.19.08.08.1.07.26-.03.34l-124.38,103.28c-.1.08-.25.07-.33-.03-.09-.1-.07-.26.03-.34l124.37-103.27s.1-.05.15-.05Z"/>
        </g>
        <g class="st192">
          <path class="st344" d="M295.11,725.24h.03l179.86,20.33c.13.01.22.13.21.26-.01.13-.12.23-.26.22l-179.86-20.33c-.13-.01-.22-.14-.21-.27.01-.12.12-.21.24-.21Z"/>
        </g>
        <g class="st182">
          <path class="st344" d="M1094.04,383.08l-99.42,67.53c-.11.06-.14.22-.07.33.07.12.22.14.33.06l99.15-67.34v-.58Z"/>
        </g>
        <g class="st56">
          <path class="st344" d="M752,424.69c.07,0,.13.03.18.08l118.39,129.14c.09.1.09.25-.01.33-.1.1-.25.08-.34-.01l-118.38-129.14c-.09-.1-.08-.25.01-.34.05-.04.1-.07.16-.07Z"/>
        </g>
        <g class="st56">
          <path class="st344" d="M425.23,692.45c.07,0,.13.03.17.08l49.73,53.11c.09.1.09.25,0,.34-.1.09-.25.08-.34-.01l-49.73-53.11c-.09-.1-.09-.26,0-.34.05-.05.12-.07.17-.07Z"/>
        </g>
        <g class="st281">
          <path class="st346" d="M236.52,882.58h.64l-65.54-73.19c-.04-.05-.1-.08-.17-.08s-.12.02-.16.06c-.1.09-.1.24-.03.34l65.25,72.87Z"/>
        </g>
        <g class="st56">
          <path class="st346" d="M402.3,715.23s.07,0,.09.02l72.66,30.33c.12.05.18.19.13.31-.05.13-.2.19-.31.13l-72.66-30.33c-.12-.05-.18-.19-.13-.31.04-.09.13-.15.22-.15Z"/>
        </g>
        <g class="st56">
          <path class="st346" d="M140.93,536.17s.03,0,.05,0c.13.03.21.16.18.29l-35.3,154.88c-.03.13-.15.22-.29.18-.13-.03-.21-.16-.17-.29l35.29-154.88c.03-.11.13-.18.24-.18Z"/>
        </g>
        <g class="st68">
          <path class="st346" d="M195.72,729.46L5.21,529.33v.7l190.17,199.76c.09.09.25.1.34,0,.09-.09.09-.24,0-.34Z"/>
        </g>
        <g class="st56">
          <path class="st346" d="M295.11,725.24c.13,0,.24.1.25.23,0,.13-.1.24-.24.25l-99.56,4.14c-.12.01-.25-.1-.25-.23-.01-.14.09-.25.22-.26l99.57-4.14h0Z"/>
        </g>
        <g class="st332">
          <path class="st346" d="M140.93,536.17c.1,0,.2.07.22.17l54.63,193.22c.04.13-.04.26-.17.3-.12.03-.26-.04-.3-.17l-54.62-193.21c-.03-.13.04-.26.17-.3.01,0,.04,0,.07,0Z"/>
        </g>
        <g class="st178">
          <path class="st346" d="M124.67,505.12c.09,0,.18.06.22.16l70.89,224.27c.04.13-.04.26-.16.3-.13.04-.26-.03-.3-.16l-70.89-224.26c-.04-.13.03-.27.16-.31.03,0,.05,0,.08,0Z"/>
        </g>
        <g class="st140">
          <path class="st346" d="M124.79,505.14L5.21,435.13v.57l119.34,69.87c.12.06.26.03.33-.09.06-.12.03-.26-.08-.33Z"/>
        </g>
        <g class="st134">
          <path class="st346" d="M474.97,745.56s.04,0,.05,0c.13.03.21.16.18.3l-26.63,116.06c-.04.12-.16.21-.29.18-.13-.03-.21-.16-.18-.29l26.63-116.06c.03-.11.13-.19.24-.19Z"/>
        </g>
        <g class="st79">
          <path class="st346" d="M140.93,536.17c.07,0,.13.03.18.09l154.17,189.07c.09.1.08.26-.03.34-.11.09-.25.07-.34-.03l-154.17-189.07c-.09-.1-.07-.26.03-.34.05-.03.11-.05.16-.05Z"/>
        </g>
        <g class="st56">
          <path class="st346" d="M124.67,505.12h-.05l-119.42,20.63v.49l119.51-20.64c.12-.03.21-.15.2-.28-.03-.12-.13-.2-.24-.2Z"/>
        </g>
        <g class="st56">
          <path class="st346" d="M402.3,715.23c.13,0,.22.1.24.22.01.14-.08.26-.21.27l-107.2,10c-.13.02-.25-.08-.26-.22-.01-.14.09-.25.22-.26l107.2-10.01h.01Z"/>
        </g>
        <g class="st56">
          <path class="st346" d="M816.74,462.17c.08,0,.16.05.2.13l53.65,91.65c.07.11.03.26-.08.33-.12.07-.26.03-.33-.08l-53.65-91.66c-.06-.12-.03-.26.09-.33.04-.03.08-.04.13-.04Z"/>
        </g>
        <g class="st56">
          <path class="st346" d="M124.67,505.12c.08,0,.16.05.2.12l16.27,31.05c.07.12.01.27-.09.33-.12.07-.28.02-.33-.1l-16.27-31.05c-.05-.12-.01-.27.1-.33.04-.02.08-.03.12-.03Z"/>
        </g>
        <g class="st109">
          <path class="st346" d="M840.37,138.48s.05,0,.07.01c.13.04.2.17.15.29l-88.36,286.23c-.04.12-.18.2-.3.16-.13-.04-.2-.17-.16-.3l88.36-286.22c.03-.1.13-.17.23-.17Z"/>
        </g>
        <g class="st56">
          <path class="st346" d="M475.22,623.85c.05,0,.1.01.14.05.1.08.13.23.05.34l-49.98,68.6c-.08.11-.24.13-.34.05-.11-.08-.13-.23-.05-.34l49.98-68.6c.05-.07.13-.1.2-.1Z"/>
        </g>
        <g class="st56">
          <path class="st346" d="M109.85,790.36s.04,0,.07.01l61.6,18.95c.13.04.2.18.16.3-.03.13-.17.2-.3.16l-61.59-18.96c-.13-.04-.2-.17-.16-.3.03-.1.12-.17.22-.17Z"/>
        </g>
        <g class="st298">
          <path class="st346" d="M475.22,623.85s.04,0,.05,0l207.32,46.8c.13.03.21.16.18.29-.03.13-.16.21-.29.18l-207.32-46.79c-.13-.03-.21-.16-.18-.29.03-.12.13-.19.24-.19Z"/>
        </g>
        <g class="st56">
          <path class="st346" d="M640.09,642.64s.09.01.13.04l42.44,28c.12.07.14.22.06.33-.06.11-.21.14-.33.07l-42.44-28c-.12-.08-.15-.22-.07-.33.04-.07.12-.11.2-.11Z"/>
        </g>
        <g class="st56">
          <path class="st346" d="M425.23,692.45c.07,0,.12.03.17.08l106.74,110c.09.09.09.25,0,.34-.09.09-.25.09-.34,0l-106.74-110c-.09-.09-.09-.25,0-.34.05-.05.1-.07.17-.07Z"/>
        </g>
        <g class="st56">
          <path class="st346" d="M640.09,642.64s.09.01.13.04c.1.08.14.23.07.33l-108.12,159.81c-.08.11-.22.14-.33.07-.12-.07-.14-.22-.07-.33l108.12-159.81c.04-.06.12-.1.2-.1Z"/>
        </g>
        <g class="st329">
          <path class="st346" d="M144.21,448.29L5.21,405.48v.5l138.86,42.77c.13.05.26-.03.3-.16.04-.13-.03-.26-.16-.3Z"/>
        </g>
        <g class="st56">
          <path class="st346" d="M402.3,715.23c.1,0,.2.06.24.17l46.02,146.39c.04.13-.03.26-.16.3-.12.04-.26-.03-.29-.16l-46.03-146.39c-.04-.13.03-.26.16-.3.03,0,.04-.01.07-.01Z"/>
        </g>
        <g class="st56">
          <path class="st346" d="M513.69,711.23s.07,0,.09.02c.13.06.18.2.13.32l-65.36,150.4c-.07.13-.2.18-.32.13-.13-.05-.18-.2-.13-.32l65.36-150.4c.04-.09.13-.15.22-.15Z"/>
        </g>
        <g class="st2">
          <path class="st346" d="M475.22,623.85h.03c.13.02.22.14.21.27l-26.88,237.78c-.01.14-.12.24-.26.22-.13-.02-.22-.14-.21-.27l26.88-237.78c.01-.13.12-.22.24-.22Z"/>
        </g>
        <g class="st168">
          <path class="st346" d="M40.9,555.76l-35.7-45.89v.79l35.32,45.4c.08.1.24.12.34.04.1-.09.12-.24.04-.34Z"/>
        </g>
        <g class="st56">
          <path class="st346" d="M732.45,592.1s.08.01.13.04c.11.07.14.22.07.33l-49.9,78.54c-.08.11-.22.14-.34.07-.1-.07-.14-.22-.07-.33l49.91-78.54c.05-.07.12-.11.2-.11Z"/>
        </g>
        <g class="st16">
          <path class="st346" d="M316.17,470.63c.12,0,.22.08.24.2.03.13-.07.26-.18.28l-191.51,34.48c-.14.02-.26-.07-.28-.2-.03-.13.05-.26.18-.28l191.51-34.48s.03,0,.04,0Z"/>
        </g>
        <g class="st56">
          <path class="st346" d="M870.39,553.84s.04,0,.06,0c.13.03.21.16.18.3l-30.09,119.22c-.03.13-.16.21-.3.18-.13-.03-.2-.16-.17-.3l30.09-119.23c.03-.1.13-.18.23-.18Z"/>
        </g>
        <g class="st56">
          <path class="st346" d="M816.74,462.17s.09.01.13.04c.11.08.14.22.07.34l-84.29,129.92c-.07.11-.22.14-.33.06-.11-.07-.14-.22-.07-.33l84.29-129.92c.05-.08.13-.12.2-.12Z"/>
        </g>
        <g class="st56">
          <path class="st346" d="M531.97,802.45c.08,0,.14.03.2.1.08.11.05.26-.06.34l-83.64,59.17c-.11.08-.25.05-.33-.06-.08-.1-.05-.26.05-.33l83.64-59.17c.05-.03.09-.05.14-.05Z"/>
        </g>
        <g class="st11">
          <path class="st346" d="M316.17,470.63c.07,0,.12.03.17.07l159.05,153.21c.09.09.09.24,0,.34-.09.11-.24.11-.33,0l-159.05-153.21c-.1-.09-.1-.24-.01-.34.05-.05.11-.07.17-.07Z"/>
        </g>
        <g class="st162">
          <path class="st346" d="M840.37,138.48h.01c.13.01.24.12.22.25l-23.63,323.71c0,.13-.11.22-.24.22h-.02c-.13-.01-.23-.12-.22-.25l23.62-323.71c.01-.13.12-.22.24-.22Z"/>
        </g>
        <g class="st282">
          <path class="st346" d="M60.6,427.66l-55.4-18.81v.51l55.24,18.76c.12.04.26-.03.3-.16.04-.12-.03-.26-.14-.3Z"/>
        </g>
        <g class="st56">
          <path class="st346" d="M682.54,670.64h0l157.77,2.42c.13,0,.24.12.24.25s-.11.24-.24.24h0l-157.76-2.42c-.13,0-.24-.11-.24-.24s.1-.24.24-.24Z"/>
        </g>
        <g class="st56">
          <path class="st346" d="M732.45,592.1c.08,0,.16.05.21.13.06.12.02.26-.1.33l-92.35,50.54c-.12.07-.26.02-.33-.1-.07-.11-.03-.26.09-.32l92.36-50.54s.08-.03.12-.03Z"/>
        </g>
        <g class="st56">
          <path class="st346" d="M791.19,404.23c.09,0,.18.05.22.15l25.55,57.94c.05.13,0,.28-.12.33-.13.04-.26,0-.32-.13l-25.55-57.94c-.05-.12,0-.26.12-.31.03-.01.06-.03.1-.03Z"/>
        </g>
        <g class="st56">
          <path class="st346" d="M124.67,505.12c.08,0,.16.04.2.11.06.12.04.27-.08.33l-83.96,50.55c-.12.07-.26.04-.33-.08-.07-.12-.04-.26.08-.33l83.95-50.55s.08-.03.13-.03Z"/>
        </g>
        <g class="st240">
          <path class="st346" d="M640.09,642.64h.04l200.21,30.43c.13.02.22.14.2.28-.02.13-.13.22-.27.2l-200.22-30.42c-.13-.02-.22-.14-.2-.28.01-.12.12-.2.24-.2Z"/>
        </g>
        <g class="st304">
          <path class="st346" d="M736.26,437.27c.09,0,.18.05.22.15l104.05,235.78c.05.13,0,.27-.13.32-.12.05-.26,0-.31-.13l-104.04-235.78c-.05-.12,0-.26.12-.31.03-.01.07-.03.1-.03Z"/>
        </g>
        <g class="st210">
          <path class="st346" d="M413.61,394.16c.11,0,.21.08.24.18l61.6,229.68c.03.13-.04.26-.17.3-.13.04-.26-.04-.29-.17l-61.6-229.68c-.04-.12.04-.25.17-.29.01-.01.04-.01.05-.01Z"/>
        </g>
        <g class="st15">
          <path class="st346" d="M60.52,427.65c.07,0,.14.04.2.1l80.4,108.51c.08.11.06.26-.04.34-.1.08-.26.05-.34-.05l-80.41-108.51c-.08-.1-.05-.26.05-.34.04-.04.09-.05.14-.05Z"/>
        </g>
        <g class="st67">
          <path class="st346" d="M816.74,462.17c.11,0,.21.08.23.2l28.92,136.98c.03.14-.05.26-.18.29-.14.03-.26-.05-.28-.18l-28.92-136.98c-.03-.13.05-.26.18-.29.02,0,.03-.01.05-.01Z"/>
        </g>
        <g class="st139">
          <path class="st346" d="M545.57,451.97s.07.01.09.03c.12.05.18.18.13.31l-70.35,171.87c-.05.12-.2.18-.31.13-.12-.05-.18-.19-.13-.31l70.35-171.87c.04-.09.13-.16.22-.16Z"/>
        </g>
        <g class="st195">
          <path class="st346" d="M736.26,437.27c.13,0,.23.09.24.22.01.13-.09.25-.22.26l-190.7,14.69c-.13.01-.24-.09-.25-.22-.01-.13.09-.25.22-.26l190.69-14.7h.02Z"/>
        </g>
        <g class="st149">
          <path class="st346" d="M475.22,623.85c.13,0,.24.1.24.24l3.23,175.05c0,.13-.1.24-.24.24h-.01c-.13,0-.24-.1-.24-.24l-3.22-175.05c0-.13.1-.24.24-.24h0Z"/>
        </g>
        <g class="st56">
          <path class="st346" d="M103.86,783.28s.06,0,.09.01l67.58,26.03c.13.05.18.19.14.32-.05.12-.18.18-.31.14l-67.58-26.03c-.13-.05-.18-.18-.14-.31.04-.1.13-.16.22-.16Z"/>
        </g>
        <g class="st56">
          <path class="st346" d="M144.15,448.28s.01,0,.03.01l172.03,22.34c.13.02.22.14.21.27-.03.13-.13.24-.28.21l-172.03-22.35c-.13-.01-.22-.13-.21-.28.03-.12.13-.21.25-.21Z"/>
        </g>
        <g class="st56">
          <path class="st346" d="M732.45,592.1s.1.01.14.05l107.86,80.97c.1.08.13.23.05.33-.08.11-.23.13-.33.05l-107.85-80.97c-.11-.08-.13-.23-.05-.34.05-.06.12-.1.2-.1Z"/>
        </g>
        <g class="st167">
          <path class="st346" d="M840.37,138.48h.04c.13.03.22.15.2.28l-49.18,265.77c-.02.13-.14.22-.28.2-.13-.03-.22-.16-.2-.29l49.18-265.76c.02-.12.12-.2.24-.2Z"/>
        </g>
        <g class="st308">
          <path class="st346" d="M1094.04,314.05l-5.31,1.46c-.12.04-.2.17-.16.3.03.12.16.21.3.16l5.18-1.42v-.49Z"/>
        </g>
        <g class="st232">
          <path class="st346" d="M402.3,715.23c.05,0,.1.01.15.05l172.66,123.91c.1.08.13.22.05.33-.08.11-.22.14-.34.06l-172.66-123.91c-.1-.08-.13-.23-.05-.33.05-.07.13-.1.2-.1Z"/>
        </g>
        <g class="st30">
          <path class="st346" d="M513.69,711.23c.09,0,.17.05.21.14l61.28,127.92c.07.12.01.26-.1.32s-.26,0-.32-.11l-61.29-127.92c-.05-.12,0-.26.12-.32.04-.01.07-.03.1-.03Z"/>
        </g>
        <g class="st124">
          <path class="st346" d="M60.52,427.65s.03,0,.04.01l255.65,42.98c.13.02.22.14.2.28-.01.13-.14.22-.26.2l-255.66-42.98c-.13-.03-.22-.15-.2-.28.01-.12.12-.21.24-.21Z"/>
        </g>
        <g class="st116">
          <path class="st346" d="M545.57,451.97c.05,0,.11.01.15.05l186.88,140.12c.1.09.13.23.05.33-.08.11-.23.13-.33.05l-186.89-140.13c-.11-.08-.12-.22-.05-.33.05-.07.13-.1.2-.1Z"/>
        </g>
        <g class="st56">
          <path class="st346" d="M845.66,599.17h.02c.13,0,.23.13.22.26l-5.36,73.9c-.01.13-.11.25-.26.22-.14-.01-.24-.13-.22-.26l5.36-73.89c0-.13.11-.22.24-.22Z"/>
        </g>
        <g class="st56">
          <path class="st346" d="M60.52,427.65s.03,0,.04.01c.13.01.21.13.2.28l-19.82,128.01c-.01.13-.13.23-.26.2-.13-.02-.22-.14-.21-.28l19.82-128.01c.01-.12.12-.21.24-.21Z"/>
        </g>
        <g class="st147">
          <path class="st346" d="M413.61,394.16c.13,0,.22.09.24.22.03.13-.08.25-.21.26l-353.1,33.49c-.12.04-.24-.09-.25-.22-.01-.13.08-.25.21-.26l353.1-33.49h.01Z"/>
        </g>
        <g class="st339">
          <path class="st346" d="M1094.04,487.36l-8.84,7.4c-.1.09-.12.24-.03.34.08.1.24.12.34.03l8.53-7.15v-.63Z"/>
        </g>
        <g class="st56">
          <path class="st346" d="M413.61,394.16s.07.01.11.03l131.95,57.81c.12.05.17.2.12.31-.05.12-.2.18-.31.13l-131.95-57.82c-.12-.05-.17-.18-.12-.32.03-.09.12-.14.21-.14Z"/>
        </g>
        <g class="st32">
          <path class="st346" d="M574.97,839.14c.12,0,.21.08.24.2.03.13-.06.26-.2.28l-126.64,22.48c-.13.03-.25-.06-.28-.19-.03-.13.07-.26.2-.28l126.64-22.48s.03,0,.04,0Z"/>
        </g>
        <g class="st29">
          <path class="st346" d="M1094.04,312.24l-5.37,3.3c-.11.07-.15.22-.08.33.07.12.22.16.33.08l5.12-3.14v-.56Z"/>
        </g>
        <g class="st36">
          <path class="st346" d="M810.29,393.94s.06.01.08.01c.13.05.18.2.14.31l-77.84,198.16c-.05.13-.19.18-.31.14-.13-.05-.18-.19-.13-.31l77.84-198.15c.04-.09.13-.16.22-.16Z"/>
        </g>
        <g class="st56">
          <path class="st346" d="M810.29,393.94c.08,0,.16.05.21.13.06.12.02.26-.1.33l-19.09,10.3c-.12.07-.26.01-.33-.1-.06-.12-.02-.26.1-.32l19.1-10.31s.07-.03.11-.03Z"/>
        </g>
        <g class="st131">
          <path class="st346" d="M5.21,664.89l35.74-108.91c.04-.13-.03-.26-.16-.3-.03,0-.05-.01-.08-.01-.09,0-.18.06-.22.16l-35.28,107.51v1.55Z"/>
        </g>
        <g class="st88">
          <path class="st346" d="M840.3,673.06c.08,0,.16.05.2.12.07.11.04.26-.08.33l-265.33,166.08c-.12.07-.26.03-.33-.08-.08-.11-.04-.26.07-.33l265.34-166.08s.09-.04.12-.04Z"/>
        </g>
        <g class="st330">
          <path class="st346" d="M1094.04,389.81l-248.54,209.41c-.1.09-.12.24-.03.34.08.1.24.12.34.03l248.23-209.15v-.63Z"/>
        </g>
        <g class="st196">
          <path class="st346" d="M1094.04,315.32l-5.25.18c-.13.01-.24.12-.24.25,0,.15.11.25.25.24l5.24-.18v-.49Z"/>
        </g>
        <g class="st324">
          <path class="st347" d="M413.61,394.16c.11,0,.21.08.24.18.04.12-.04.26-.17.29l-320.6,89.33c-.13.05-.26-.03-.3-.16-.03-.13.04-.26.17-.3l320.61-89.33s.04-.01.05-.01Z"/>
        </g>
        <g class="st250">
          <path class="st347" d="M60.6,427.66l-55.4-18.77v.51l55.24,18.71c.12.04.26-.03.3-.16.04-.12-.03-.26-.14-.3Z"/>
        </g>
        <g class="st56">
          <path class="st347" d="M103.92,783.29l-98.72-23.06v.5l98.6,23.03c.14.03.26-.05.29-.18.04-.13-.05-.26-.17-.29Z"/>
        </g>
        <g class="st175">
          <path class="st347" d="M1094.04,504.88l-8.5-10.08c-.05-.06-.11-.09-.18-.09-.05,0-.1.01-.15.05-.1.09-.12.24-.03.34l8.86,10.51v-.74Z"/>
        </g>
        <g class="st56">
          <path class="st347" d="M60.52,427.65c.08,0,.16.04.2.12l32.49,55.84c.08.12.04.27-.08.33-.12.06-.26.03-.33-.09l-32.49-55.84c-.07-.12-.03-.26.09-.33.03-.03.08-.04.12-.04Z"/>
        </g>
        <g class="st142">
          <path class="st347" d="M93.01,483.49c.13,0,.24.1.24.24l10.86,299.79c0,.14-.1.25-.24.26h-.01c-.12,0-.22-.11-.24-.24l-10.85-299.79c-.01-.14.09-.25.22-.26h.01Z"/>
        </g>
        <g class="st56">
          <path class="st347" d="M1094.04,364.89l-5.01-49.17c-.01-.13-.11-.22-.24-.22h-.03c-.13.01-.22.13-.21.28l5.48,53.86v-4.74Z"/>
        </g>
        <g class="st56">
          <path class="st347" d="M650.09,680.92c.08,0,.16.03.21.1.07.1.04.26-.07.33l-171.65,117.97c-.12.08-.26.05-.34-.07-.07-.1-.04-.26.07-.33l171.65-117.97s.09-.04.13-.04Z"/>
        </g>
        <g class="st56">
          <path class="st347" d="M478.43,798.89s.06,0,.09.02l96.54,40.25c.12.05.18.19.13.31-.05.13-.2.18-.32.13l-96.54-40.25c-.12-.05-.17-.2-.13-.31.04-.1.13-.15.22-.15Z"/>
        </g>
        <g class="st290">
          <path class="st347" d="M144.15,448.28s.08.01.11.04c.12.07.17.21.1.33l-70.23,129.5c-.07.12-.21.16-.33.09-.12-.07-.16-.21-.09-.32l70.23-129.5c.04-.08.12-.13.21-.13Z"/>
        </g>
        <g class="st173">
          <path class="st347" d="M104.04,783.35L5.21,682.68v.69l98.5,100.33c.09.09.24.09.33,0,.09-.09.1-.25.01-.34Z"/>
        </g>
        <g class="st3">
          <path class="st347" d="M793.69,411.19s.05,0,.08.01c.12.04.19.18.15.3l-61.25,180.91c-.04.12-.18.19-.3.14-.12-.04-.2-.18-.15-.3l61.25-180.9c.03-.1.13-.17.22-.17Z"/>
        </g>
        <g class="st272">
          <path class="st347" d="M40.71,555.66c.05,0,.09.01.13.04l33.21,22.12c.12.08.14.23.06.33-.06.11-.22.14-.33.07l-33.21-22.12c-.11-.08-.13-.22-.07-.33.05-.07.12-.11.2-.11Z"/>
        </g>
        <g class="st20">
          <path class="st347" d="M840.3,673.06c.09,0,.16.05.21.13l113.12,200.28c.06.12.03.27-.09.33-.11.06-.26.02-.33-.09l-113.11-200.29c-.06-.11-.02-.26.09-.33.04-.02.08-.03.12-.03Z"/>
        </g>
        <g class="st47">
          <path class="st347" d="M73.92,577.78c.12,0,.22.08.24.21l29.95,205.49c.01.13-.08.25-.21.27-.15.03-.25-.07-.28-.2l-29.94-205.49c-.03-.13.07-.25.2-.27.01,0,.03,0,.04,0Z"/>
        </g>
        <g class="st313">
          <path class="st347" d="M60.52,427.65c.1,0,.21.08.24.2l43.31,219.19c.03.13-.05.26-.18.29-.13.02-.26-.07-.29-.19l-43.31-219.2c-.03-.13.05-.25.18-.28.01-.01.04-.01.05-.01Z"/>
        </g>
        <g class="st56">
          <path class="st347" d="M93.22,483.61c-.05-.08-.13-.12-.21-.12-.04,0-.08.01-.12.03l-87.69,51.4v.56l87.92-51.53c.12-.07.16-.22.09-.33Z"/>
        </g>
        <g class="st117">
          <path class="st347" d="M104.02,646.93c-.05-.06-.12-.09-.18-.09-.05,0-.1.02-.16.05L5.21,728.86v.63l98.78-82.21c.1-.09.12-.24.03-.34Z"/>
        </g>
        <g class="st56">
          <path class="st347" d="M810.29,393.94c.06,0,.12.03.16.07.1.09.1.25,0,.34l-16.59,17.26c-.09.1-.24.1-.34.01-.1-.09-.1-.25,0-.34l16.59-17.26c.05-.05.1-.08.17-.08Z"/>
        </g>
        <g class="st56">
          <path class="st347" d="M103.9,646.85l-98.69-29.95v.51l98.56,29.91c.12.03.26-.04.3-.16.03-.13-.04-.26-.17-.3Z"/>
        </g>
        <g class="st56">
          <path class="st347" d="M93.03,483.49l-87.82-4.69v.49l87.79,4.69h.01c.13,0,.22-.1.24-.23.01-.13-.09-.25-.22-.26Z"/>
        </g>
        <g class="st56">
          <path class="st347" d="M73.92,577.78c.09,0,.18.06.22.14l29.92,69.06c.05.12,0,.26-.13.31-.12.06-.26,0-.31-.13l-29.92-69.06c-.05-.13.01-.27.13-.32.03-.02.05-.03.09-.03Z"/>
        </g>
        <g class="st56">
          <path class="st347" d="M74.11,577.88L5.21,481.03v.84l68.51,96.31c.08.1.22.13.34.05.11-.08.13-.23.05-.34Z"/>
        </g>
        <g class="st280">
          <path class="st347" d="M74.01,577.81l-68.8-30.38v.52l68.62,30.3c.1.06.26,0,.31-.12.05-.13,0-.27-.13-.32Z"/>
        </g>
        <g class="st244">
          <path class="st347" d="M180.59,437.77s.05.01.08.01c.13.05.2.18.14.32l-76.76,209.07c-.04.13-.18.19-.3.15-.13-.05-.2-.18-.14-.31l76.76-209.07c.04-.09.13-.16.22-.16Z"/>
        </g>
      </g>
    </g>
  </g>
</svg>