<?xml version="1.0" encoding="utf-8"?>
<!-- Generator: Adobe Illustrator 28.0.0, SVG Export Plug-In . SVG Version: 6.00 Build 0)  -->
<svg version="1.1" id="Layer_1" xmlns="http://www.w3.org/2000/svg" xmlns:xlink="http://www.w3.org/1999/xlink" x="0px" y="0px"
	 viewBox="0 0 1084.3 799.9" style="enable-background:new 0 0 1084.3 799.9;" xml:space="preserve">
<style type="text/css">
	.st0{opacity:0.5;}
	.st1{fill:#8B8E8E;}
	.st2{opacity:6.000000e-02;fill:#A5A8A8;enable-background:new    ;}
	.st3{opacity:0.12;fill:#A5A8A8;enable-background:new    ;}
	.st4{opacity:0.13;fill:#A5A8A8;enable-background:new    ;}
	.st5{fill:#A5A8A8;fill-opacity:0;}
	.st6{opacity:7.000000e-02;fill:#A5A8A8;enable-background:new    ;}
	.st7{opacity:8.000000e-02;fill:#B2B2B2;enable-background:new    ;}
	.st8{opacity:0.11;fill:#B2B2B2;enable-background:new    ;}
	.st9{opacity:0.12;fill:#B2B2B2;enable-background:new    ;}
	.st10{opacity:4.000000e-02;fill:#B2B2B2;enable-background:new    ;}
	.st11{opacity:2.000000e-02;fill:#B2B2B2;enable-background:new    ;}
	.st12{opacity:3.000000e-02;fill:#B2B2B2;enable-background:new    ;}
	.st13{fill:#B2B2B2;fill-opacity:0;}
	.st14{opacity:6.000000e-02;fill:#B2B2B2;enable-background:new    ;}
	.st15{opacity:7.000000e-02;fill:#B2B2B2;enable-background:new    ;}
	.st16{opacity:1.000000e-02;fill:#B2B2B2;enable-background:new    ;}
	.st17{opacity:0.13;fill:#B2B2B2;enable-background:new    ;}
	.st18{opacity:9.000000e-02;fill:#B2B2B2;enable-background:new    ;}
	.st19{opacity:5.000000e-02;fill:#B2B2B2;enable-background:new    ;}
	.st20{opacity:0.1;fill:#B2B2B2;enable-background:new    ;}
	.st21{opacity:7.000000e-02;fill:#B6BABA;enable-background:new    ;}
	.st22{opacity:0.13;fill:#B6BABA;enable-background:new    ;}
	.st23{opacity:3.000000e-02;fill:#B6BABA;enable-background:new    ;}
	.st24{opacity:0.1;fill:#B6BABA;enable-background:new    ;}
	.st25{opacity:8.000000e-02;fill:#B6BABA;enable-background:new    ;}
	.st26{opacity:0.12;fill:#B6BABA;enable-background:new    ;}
	.st27{opacity:5.000000e-02;fill:#B6BABA;enable-background:new    ;}
	.st28{fill:#B6BABA;fill-opacity:0;}
	.st29{opacity:6.000000e-02;fill:#B6BABA;enable-background:new    ;}
	.st30{opacity:4.000000e-02;fill:#B6BABA;enable-background:new    ;}
	.st31{opacity:1.000000e-02;fill:#B6BABA;enable-background:new    ;}
	.st32{opacity:9.000000e-02;fill:#B6BABA;enable-background:new    ;}
	.st33{opacity:0.11;fill:#B6BABA;enable-background:new    ;}
	.st34{opacity:2.000000e-02;fill:#B6BABA;enable-background:new    ;}
	.st35{opacity:0.13;fill:#B6B7B7;enable-background:new    ;}
	.st36{opacity:0.11;fill:#B6B7B7;enable-background:new    ;}
	.st37{opacity:0.1;fill:#B6B7B7;enable-background:new    ;}
	.st38{opacity:0.12;fill:#B6B7B7;enable-background:new    ;}
	.st39{opacity:9.000000e-02;fill:#B6B7B7;enable-background:new    ;}
	.st40{fill:#B6B7B7;fill-opacity:0;}
	.st41{opacity:8.000000e-02;fill:#B6B7B7;enable-background:new    ;}
	.st42{opacity:6.000000e-02;fill:#B6B7B7;enable-background:new    ;}
	.st43{opacity:4.000000e-02;fill:#B6B7B7;enable-background:new    ;}
	.st44{opacity:7.000000e-02;fill:#929696;enable-background:new    ;}
	.st45{opacity:0.13;fill:#929696;enable-background:new    ;}
	.st46{opacity:4.000000e-02;fill:#929696;enable-background:new    ;}
	.st47{opacity:0.1;fill:#929696;enable-background:new    ;}
	.st48{opacity:8.000000e-02;fill:#929696;enable-background:new    ;}
	.st49{fill:#929696;fill-opacity:0;}
	.st50{opacity:2.000000e-02;fill:#929696;enable-background:new    ;}
	.st51{opacity:0.12;fill:#929696;enable-background:new    ;}
	.st52{opacity:6.000000e-02;fill:#929696;enable-background:new    ;}
	.st53{opacity:9.000000e-02;fill:#929696;enable-background:new    ;}
	.st54{opacity:3.000000e-02;fill:#929696;enable-background:new    ;}
	.st55{opacity:5.000000e-02;fill:#959999;enable-background:new    ;}
	.st56{opacity:2.000000e-02;fill:#959999;enable-background:new    ;}
	.st57{opacity:0.13;fill:#959999;enable-background:new    ;}
	.st58{fill:#959999;fill-opacity:0;}
	.st59{opacity:8.000000e-02;fill:#959999;enable-background:new    ;}
	.st60{opacity:9.000000e-02;fill:#959999;enable-background:new    ;}
	.st61{opacity:4.000000e-02;fill:#9BA3A3;enable-background:new    ;}
	.st62{fill:#9BA3A3;fill-opacity:0;}
	.st63{opacity:8.000000e-02;fill:#9BA3A3;enable-background:new    ;}
	.st64{opacity:0.1;fill:#9BA3A3;enable-background:new    ;}
	.st65{opacity:5.000000e-02;fill:#9BA3A3;enable-background:new    ;}
	.st66{opacity:0.13;fill:#9BA3A3;enable-background:new    ;}
	.st67{opacity:1.000000e-02;fill:#9BA3A3;enable-background:new    ;}
	.st68{opacity:8.000000e-02;fill:#C9C9C9;enable-background:new    ;}
	.st69{opacity:1.000000e-02;fill:#C9C9C9;enable-background:new    ;}
	.st70{opacity:3.000000e-02;fill:#C9C9C9;enable-background:new    ;}
	.st71{opacity:0.1;fill:#C9C9C9;enable-background:new    ;}
	.st72{opacity:0.12;fill:#C9C9C9;enable-background:new    ;}
	.st73{opacity:0.11;fill:#C9C9C9;enable-background:new    ;}
	.st74{opacity:0.13;fill:#C9C9C9;enable-background:new    ;}
	.st75{opacity:2.000000e-02;fill:#A2BEF9;enable-background:new    ;}
	.st76{opacity:0.47;}
	.st77{fill:#888989;}
	.st78{opacity:0.49;}
	.st79{opacity:0.78;}
	.st80{opacity:0.52;}
	.st81{opacity:0.93;}
	.st82{opacity:0.67;}
	.st83{opacity:0.92;}
	.st84{opacity:0.26;}
	.st85{fill:#A5AAAA;}
	.st86{opacity:0.91;}
	.st87{opacity:0.73;}
	.st88{opacity:0.87;}
	.st89{opacity:0.51;}
	.st90{opacity:0.57;}
	.st91{opacity:0.71;}
	.st92{opacity:0.72;}
	.st93{opacity:0.66;}
	.st94{opacity:0.8;}
	.st95{opacity:0.95;}
	.st96{opacity:0.86;}
	.st97{opacity:0.88;}
	.st98{opacity:0.19;}
	.st99{opacity:0.79;}
	.st100{opacity:0.68;}
	.st101{opacity:0.39;}
	.st102{opacity:0.3;}
	.st103{opacity:0.7;}
	.st104{opacity:0.64;}
	.st105{opacity:0.45;}
	.st106{opacity:0.16;}
	.st107{opacity:0.65;}
	.st108{opacity:0.56;}
	.st109{opacity:0.96;}
	.st110{opacity:0.97;}
	.st111{opacity:0.53;}
	.st112{opacity:0.38;}
	.st113{opacity:0.46;}
	.st114{opacity:0.36;}
	.st115{opacity:0.76;}
	.st116{opacity:0.85;}
	.st117{opacity:0.33;}
	.st118{opacity:0.83;}
	.st119{opacity:0.18;}
	.st120{opacity:0.98;}
	.st121{opacity:0.61;}
	.st122{opacity:0.35;}
	.st123{opacity:0.62;}
	.st124{opacity:0.31;}
	.st125{opacity:0.6;}
	.st126{opacity:0.4;}
	.st127{opacity:0.89;}
	.st128{opacity:0.99;}
	.st129{opacity:0.81;}
	.st130{opacity:0.75;}
	.st131{opacity:0.58;}
	.st132{opacity:0.34;}
	.st133{fill:#9BA5A5;}
	.st134{opacity:0.94;}
	.st135{opacity:0.69;}
	.st136{opacity:0.84;}
	.st137{opacity:0.2;}
	.st138{opacity:0.82;}
	.st139{opacity:0.9;}
	.st140{opacity:0.27;}
	.st141{opacity:0.74;}
	.st142{opacity:0.63;}
	.st143{opacity:0.77;}
	.st144{fill:#6C6D6D;}
	.st145{opacity:0.41;}
	.st146{opacity:0.55;}
	.st147{opacity:0.21;}
	.st148{opacity:0.14;}
</style>
<g>
	<g id="Layer_1_00000112591148805534571560000010526520951758106532_">
		<g class="st0">
			<path class="st1" d="M183.1,758.6c-1.9,0-3.4-1.6-3.4-3.5s1.5-3.5,3.4-3.5s3.4,1.6,3.4,3.5S185,758.6,183.1,758.6z"/>
			<path class="st1" d="M231.4,461.2c-2,0-3.5-1.6-3.5-3.6s1.6-3.6,3.5-3.6s3.5,1.6,3.5,3.6S233.3,461.2,231.4,461.2z"/>
			<path class="st1" d="M402.8,551.4c-2,0-3.6-1.6-3.6-3.6s1.6-3.6,3.6-3.6s3.6,1.6,3.6,3.6S404.7,551.4,402.8,551.4z"/>
			<path class="st1" d="M25.8,473.9c-2,0-3.6-1.6-3.6-3.6s1.6-3.6,3.6-3.6s3.6,1.6,3.6,3.6S27.8,473.9,25.8,473.9z"/>
			<ellipse class="st1" cx="282.8" cy="513.4" rx="3.6" ry="3.6"/>
			<path class="st1" d="M687.1,614.4c-2,0-3.6-1.6-3.6-3.6s1.6-3.7,3.6-3.7s3.6,1.6,3.6,3.7S689.1,614.4,687.1,614.4z"/>
			<path class="st1" d="M374.6,429.6c-2,0-3.6-1.6-3.6-3.7s1.6-3.7,3.6-3.7s3.6,1.6,3.6,3.7S376.6,429.6,374.6,429.6z"/>
			<path class="st1" d="M710.5,269.8c-2,0-3.7-1.6-3.7-3.7s1.6-3.7,3.7-3.7s3.7,1.7,3.7,3.7S712.5,269.8,710.5,269.8z"/>
			<path class="st1" d="M1087.9,796.4c-2,0-3.7-1.6-3.7-3.7s1.6-3.7,3.7-3.7s3.7,1.7,3.7,3.7S1089.9,796.4,1087.9,796.4z"/>
			<path class="st1" d="M128.4,222.8c-2,0-3.7-1.6-3.7-3.7s1.6-3.7,3.7-3.7s3.7,1.7,3.7,3.7S130.4,222.8,128.4,222.8z"/>
			<path class="st1" d="M599.6,260.4c-2,0-3.7-1.7-3.7-3.7s1.7-3.7,3.7-3.7s3.7,1.6,3.7,3.7S601.7,260.4,599.6,260.4z"/>
			<path class="st1" d="M865.4,656.1c-2,0-3.7-1.7-3.7-3.8s1.7-3.7,3.7-3.7s3.7,1.7,3.7,3.7S867.5,656.1,865.4,656.1z"/>
			<path class="st1" d="M695.4,792.9c-2.1,0-3.7-1.7-3.7-3.8s1.7-3.8,3.7-3.8s3.7,1.7,3.7,3.8S697.4,792.9,695.4,792.9z"/>
			<path class="st1" d="M794.2,262.7c-2.1,0-3.7-1.7-3.7-3.8s1.7-3.8,3.7-3.8s3.8,1.7,3.8,3.8S796.3,262.7,794.2,262.7z"/>
			<path class="st1" d="M597.1,737.4c-2.1,0-3.8-1.7-3.8-3.8s1.7-3.8,3.8-3.8s3.7,1.7,3.7,3.8S599.1,737.4,597.1,737.4z"/>
			<path class="st1" d="M9.6,27.1c-2.1,0-3.8-1.7-3.8-3.8s1.7-3.8,3.8-3.8s3.8,1.7,3.8,3.8S11.7,27.1,9.6,27.1z"/>
			<path class="st1" d="M677.5,447c-2.1,0-3.8-1.7-3.8-3.8s1.7-3.8,3.8-3.8s3.8,1.7,3.8,3.8S679.6,447,677.5,447z"/>
			<path class="st1" d="M952.3,371.5c-2.1,0-3.8-1.7-3.8-3.8s1.7-3.8,3.8-3.8s3.8,1.7,3.8,3.8S954.4,371.5,952.3,371.5z"/>
			<path class="st1" d="M681.2,315.1c-2.1,0-3.8-1.7-3.8-3.9s1.7-3.9,3.8-3.9s3.8,1.7,3.8,3.9S683.3,315.1,681.2,315.1z"/>
			<path class="st1" d="M681.8,529.8c-2.1,0-3.8-1.7-3.8-3.9s1.7-3.9,3.8-3.9s3.8,1.7,3.8,3.9S683.9,529.8,681.8,529.8z"/>
			<path class="st1" d="M1094,304.1c-1.3,0.6-2.2,2-2.2,3.5s0.9,2.9,2.2,3.5V304.1L1094,304.1z"/>
			<path class="st1" d="M32.9,47.3c-2.1,0-3.9-1.8-3.9-3.9s1.8-3.9,3.9-3.9s3.9,1.8,3.9,3.9C36.8,45.6,35.1,47.3,32.9,47.3z"/>
			<path class="st1" d="M847.2,167.2c-2.2,0-3.9-1.8-3.9-3.9c0-2.2,1.8-3.9,3.9-3.9s3.9,1.8,3.9,3.9
				C851.2,165.4,849.4,167.2,847.2,167.2z"/>
			<path class="st1" d="M496.9,586.9c-2.2,0-4-1.8-4-4s1.8-4,4-4s4,1.8,4,4S499.1,586.9,496.9,586.9z"/>
			<path class="st1" d="M203.9,503.5c-2.2,0-4-1.8-4-4s1.8-4,4-4s4,1.8,4,4S206.1,503.5,203.9,503.5z"/>
			<path class="st1" d="M189.5,603.1c-2.2,0-4-1.8-4-4s1.8-4,4-4s4,1.8,4,4S191.7,603.1,189.5,603.1z"/>
			<path class="st1" d="M994.8,372.2c-2.2,0-4.1-1.8-4.1-4.1s1.8-4.1,4.1-4.1s4.1,1.8,4.1,4.1S997,372.2,994.8,372.2z"/>
			<path class="st1" d="M12.2,780.1c-2.2,0-4.1-1.8-4.1-4.1s1.8-4.1,4.1-4.1s4.1,1.8,4.1,4.1S14.5,780.1,12.2,780.1z"/>
			<path class="st1" d="M475,667.2c-2.2,0-4.1-1.8-4.1-4.1s1.8-4.1,4.1-4.1s4.1,1.8,4.1,4.1S477.2,667.2,475,667.2z"/>
			<path class="st1" d="M295.1,647c-2.3,0-4.1-1.9-4.1-4.2s1.9-4.2,4.1-4.2s4.1,1.9,4.1,4.2S297.4,647,295.1,647z"/>
			<path class="st1" d="M870.4,475.6c-2.3,0-4.1-1.9-4.1-4.2s1.8-4.2,4.1-4.2s4.2,1.9,4.2,4.2S872.7,475.6,870.4,475.6z"/>
			<ellipse class="st1" cx="425.2" cy="610" rx="4.1" ry="4.2"/>
			<path class="st1" d="M140.9,457.9c-2.3,0-4.1-1.9-4.1-4.2s1.9-4.2,4.1-4.2s4.1,1.9,4.1,4.2S143.2,457.9,140.9,457.9z"/>
			<path class="st1" d="M402.3,637c-2.3,0-4.1-1.9-4.1-4.2s1.9-4.2,4.1-4.2s4.2,1.9,4.2,4.2S404.6,637,402.3,637z"/>
			<path class="st1" d="M513.7,633c-2.3,0-4.2-1.9-4.2-4.2s1.9-4.2,4.2-4.2c2.3,0,4.2,1.9,4.2,4.2S516,633,513.7,633z"/>
			<path class="st1" d="M736.3,359.1c-2.3,0-4.2-1.9-4.2-4.2s1.9-4.2,4.2-4.2s4.2,1.9,4.2,4.2S738.6,359.1,736.3,359.1z"/>
			<path class="st1" d="M448.3,783.5c-2.3,0-4.2-1.9-4.2-4.2s1.9-4.2,4.2-4.2s4.2,1.9,4.2,4.2S450.6,783.5,448.3,783.5z"/>
			<path class="st1" d="M840.3,594.9c-2.3,0-4.3-1.9-4.3-4.3s1.9-4.3,4.3-4.3s4.3,1.9,4.3,4.3S842.7,594.9,840.3,594.9z"/>
			<path class="st1" d="M413.6,316.1c-2.4,0-4.3-1.9-4.3-4.3s1.9-4.3,4.3-4.3s4.3,1.9,4.3,4.3S416,316.1,413.6,316.1z"/>
			<path class="st1" d="M1085.4,416.6c-2.4,0-4.3-1.9-4.3-4.3s1.9-4.3,4.3-4.3s4.3,1.9,4.3,4.3S1087.7,416.6,1085.4,416.6z"/>
			<path class="st1" d="M60.5,349.6c-2.4,0-4.3-1.9-4.3-4.3s1.9-4.3,4.3-4.3s4.3,1.9,4.3,4.3S62.9,349.6,60.5,349.6z"/>
			<path class="st1" d="M103.9,705.2c-2.4,0-4.3-1.9-4.3-4.3s1.9-4.3,4.3-4.3s4.3,1.9,4.3,4.3S106.2,705.2,103.9,705.2z"/>
			<path class="st1" d="M545.6,373.9c-2.4,0-4.3-1.9-4.3-4.4s1.9-4.4,4.3-4.4s4.3,1.9,4.3,4.4S548,373.9,545.6,373.9z"/>
			<path class="st1" d="M478.4,720.8c-2.4,0-4.3-2-4.3-4.4s1.9-4.4,4.3-4.4s4.3,2,4.3,4.4S480.8,720.8,478.4,720.8z"/>
			<path class="st1" d="M93,405.5c-2.4,0-4.4-2-4.4-4.4s2-4.4,4.4-4.4s4.4,2,4.4,4.4S95.4,405.5,93,405.5z"/>
			<path class="st1" d="M575,761.1c-2.4,0-4.4-2-4.4-4.4s2-4.4,4.4-4.4s4.4,2,4.4,4.4S577.4,761.1,575,761.1z"/>
			<path class="st1" d="M855.1,72.2c-2.4,0-4.4-2-4.4-4.4s2-4.4,4.4-4.4s4.4,2,4.4,4.4S857.5,72.2,855.1,72.2z"/>
			<path class="st1" d="M73.9,499.9c-2.5,0-4.5-2-4.5-4.5s2-4.5,4.5-4.5s4.5,2,4.5,4.5S76.4,499.9,73.9,499.9z"/>
			<path class="st1" d="M953.4,795.5c-2.5,0-4.5-2-4.5-4.5s2-4.5,4.5-4.5s4.5,2,4.5,4.5S955.9,795.5,953.4,795.5z"/>
			<path class="st1" d="M180.6,360.1c-2.6,0-4.7-2.1-4.7-4.7s2.1-4.7,4.7-4.7s4.7,2.1,4.7,4.7S183.2,360.1,180.6,360.1z"/>
			<polygon class="st2" points="237.1,799.9 183.1,755.1 210.9,799.9 			"/>
			<polygon class="st3" points="237.1,799.9 183.1,755.1 206.1,799.9 			"/>
			<polygon class="st4" points="343.4,799.9 343.3,770 305,799.9 			"/>
			<polygon class="st5" points="5.2,480.9 5.2,525.1 25.8,470.3 			"/>
			<polygon class="st6" points="237.1,799.9 183.1,755.1 179.1,799.9 			"/>
			<polygon class="st7" points="317.1,799.9 343.3,770 183.1,755.1 210.8,799.9 			"/>
			<polygon class="st8" points="343.4,799.9 343.3,770 317.1,799.9 			"/>
			<polygon class="st9" points="317.1,799.9 343.3,770 305,799.9 			"/>
			<polygon class="st10" points="184.7,799.9 303.5,554.8 183.1,755.1 179.1,799.9 			"/>
			<polygon class="st11" points="183.1,755.1 5.2,765.4 5.2,781.9 55.6,799.9 210.8,799.9 			"/>
			<polygon class="st7" points="184.1,799.9 247.1,657.5 183.1,755.1 179.1,799.9 			"/>
			<polygon class="st12" points="299.1,799.9 381.2,668 183.1,755.1 210.8,799.9 			"/>
			<polygon class="st13" points="343.3,770 303.5,554.8 470.3,429.2 			"/>
			<polygon class="st14" points="371.5,799.9 381.2,668 343.3,770 346.5,799.9 			"/>
			<polygon class="st15" points="5.2,776.4 5.2,799.9 112.9,799.9 			"/>
			<polygon class="st15" points="5.2,776.4 5.2,799.9 112.9,799.9 			"/>
			<polygon class="st10" points="303.5,554.8 198.4,322.7 396.7,342.8 			"/>
			<polygon class="st12" points="381.2,668 231.4,457.6 470.3,429.2 			"/>
			<polygon class="st15" points="402.8,547.8 396.7,342.8 231.4,457.6 			"/>
			<polygon class="st15" points="402.8,547.8 396.7,342.8 231.4,457.6 			"/>
			<polygon class="st8" points="402.8,547.8 282.8,513.4 231.4,457.6 			"/>
			<polygon class="st16" points="396.7,342.8 25.8,470.3 231.4,457.6 			"/>
			<polygon class="st9" points="381.2,668 303.5,554.8 282.8,513.4 			"/>
			<polygon class="st13" points="442.2,799.9 381.2,668 435.2,799.9 			"/>
			<polygon class="st9" points="303.5,554.8 282.8,513.4 374.6,425.9 			"/>
			<polygon class="st9" points="247.1,657.5 381.2,668 282.8,513.4 			"/>
			<polygon class="st15" points="247.1,657.5 402.8,547.8 374.6,425.9 			"/>
			<polygon class="st17" points="396.7,342.8 374.6,425.9 470.3,429.2 			"/>
			<polygon class="st8" points="402.8,547.8 429.4,452.8 470.3,429.2 			"/>
			<polygon class="st15" points="396.7,342.8 599.6,256.7 470.3,429.2 			"/>
			<polygon class="st11" points="844.2,799.9 865.4,652.3 778.7,704.2 798.7,799.9 			"/>
			<polygon class="st13" points="750.6,799.9 778.7,704.2 592.2,799.9 			"/>
			<polygon class="st18" points="396.7,342.8 282.8,513.4 429.4,452.8 			"/>
			<polygon class="st17" points="374.6,425.9 429.4,452.8 470.3,429.2 			"/>
			<polygon class="st17" points="396.7,342.8 374.6,425.9 429.4,452.8 			"/>
			<polygon class="st13" points="402.8,547.8 429.4,452.8 599.6,256.7 			"/>
			<polygon class="st11" points="695.8,799.9 695.4,789.1 662.8,799.9 			"/>
			<polygon class="st11" points="705.3,799.9 687.1,610.8 597.1,733.6 640.5,799.9 			"/>
			<polygon class="st7" points="687.1,610.8 597.1,733.6 695.4,789.1 			"/>
			<polygon class="st19" points="1028.8,799.9 1087.9,792.7 865.4,652.3 861.7,799.9 			"/>
			<polygon class="st7" points="687.1,610.8 677.5,443.2 696.2,410.9 			"/>
			<polygon class="st15" points="706,408.5 710.5,266.1 603.9,216.5 			"/>
			<polygon class="st20" points="752.7,799.9 695.4,789.1 697.2,799.9 			"/>
			<polygon class="st13" points="706,408.5 429.4,452.8 603.9,216.5 			"/>
			<polygon class="st11" points="5.2,360.3 5.2,410.6 101,342.5 128.4,219.1 			"/>
			<polygon class="st17" points="162.9,298.3 128.4,219.1 101,342.5 			"/>
			<polygon class="st18" points="706,408.5 677.5,443.2 710.5,266.1 			"/>
			<polygon class="st15" points="5.2,205.2 5.2,212.5 128.4,219.1 139.8,67 			"/>
			<polygon class="st7" points="696.2,410.9 797.4,289.5 599.6,256.7 			"/>
			<polygon class="st14" points="798.8,799.9 597.1,733.6 626.3,799.9 			"/>
			<polygon class="st12" points="865.4,652.3 549.2,677.3 695.4,789.1 			"/>
			<polygon class="st16" points="706,408.5 952.3,367.7 599.6,256.7 			"/>
			<polygon class="st18" points="677.5,443.2 599.6,256.7 681.2,311.2 			"/>
			<polygon class="st7" points="706,408.5 797.4,289.5 599.6,256.7 			"/>
			<polygon class="st17" points="706,408.5 677.5,443.2 696.2,410.9 			"/>
			<polygon class="st17" points="597.1,733.6 549.2,677.3 695.4,789.1 			"/>
			<polygon class="st8" points="696.2,410.9 794.2,258.9 681.2,311.2 			"/>
			<polygon class="st18" points="706,408.5 952.3,367.7 696.2,410.9 			"/>
			<polygon class="st17" points="952.3,367.7 797.4,289.5 794.2,258.9 			"/>
			<polygon class="st10" points="823.2,553.6 597.1,733.6 677.5,443.2 			"/>
			<polygon class="st14" points="823.2,553.6 952.3,367.7 696.2,410.9 			"/>
			<polygon class="st16" points="549.2,677.3 695.4,789.1 325.2,618.6 			"/>
			<polygon class="st11" points="139.8,67 338.8,190.1 101,342.5 			"/>
			<polygon class="st21" points="706,408.5 823.2,553.6 794.2,258.9 			"/>
			<polygon class="st22" points="797.4,289.5 794.2,258.9 785,293.6 			"/>
			<polygon class="st23" points="797.4,289.5 842.6,224.1 847.2,163.3 			"/>
			<polygon class="st24" points="696.2,410.9 681.8,525.9 681.2,311.2 			"/>
			<polygon class="st25" points="696.2,410.9 785,293.6 681.8,525.9 			"/>
			<polygon class="st21" points="952.3,367.7 794.2,258.9 909.6,193.1 			"/>
			<polygon class="st21" points="139.8,67 9.6,23.3 32.9,43.4 			"/>
			<polygon class="st26" points="677.5,443.2 681.8,525.9 681.2,311.2 			"/>
			<polygon class="st22" points="706,408.5 797.4,289.5 785,293.6 			"/>
			<polygon class="st27" points="677.5,443.2 797.4,289.5 909.6,193.1 			"/>
			<polygon class="st24" points="823.2,553.6 797.4,289.5 785,293.6 			"/>
			<polygon class="st22" points="706,408.5 823.2,553.6 681.8,525.9 			"/>
			<polygon class="st22" points="797.4,289.5 785,293.6 681.2,311.2 			"/>
			<polygon class="st22" points="706,408.5 681.8,525.9 681.2,311.2 			"/>
			<polygon class="st25" points="162.9,298.3 401.4,311.2 338.8,190.1 			"/>
			<polygon class="st25" points="162.9,298.3 401.4,311.2 338.8,190.1 			"/>
			<polygon class="st23" points="823.2,553.6 952.3,367.7 1068.3,279 			"/>
			<polygon class="st27" points="696.2,410.9 785,293.6 876,286.1 			"/>
			<polygon class="st23" points="450.6,799.9 681.8,525.9 549.2,677.3 449.3,799.9 			"/>
			<polygon class="st25" points="5.2,196.1 87.8,0.2 32.9,43.4 5.2,179.1 			"/>
			<polygon class="st28" points="1094,306.6 847.2,163.3 794.2,258.9 1094,307.3 			"/>
			<polygon class="st29" points="523.3,799.9 549.2,677.3 433.5,652.4 466.2,799.9 			"/>
			<polygon class="st30" points="952.3,367.7 1068.3,279 847.2,163.3 			"/>
			<polygon class="st31" points="1068.3,279 847.2,163.3 681.2,311.2 			"/>
			<polygon class="st28" points="1094,307.4 876,286.1 681.2,311.2 1094,307.6 			"/>
			<polygon class="st21" points="466.2,799.9 433.5,652.4 423.9,799.9 			"/>
			<polygon class="st25" points="847.2,163.3 876,286.1 681.2,311.2 			"/>
			<polygon class="st21" points="785,293.6 1068.3,279 876,286.1 			"/>
			<polygon class="st21" points="427.4,799.9 496.9,582.9 433.5,652.4 417.9,799.9 			"/>
			<polygon class="st22" points="909.6,193.1 847.2,163.3 876,286.1 			"/>
			<polygon class="st31" points="549.2,677.3 496.9,582.9 749.4,590.7 			"/>
			<polygon class="st29" points="415,799.9 496.9,582.9 433.5,652.4 405.5,799.9 			"/>
			<polygon class="st32" points="1094,305.8 1068.3,279 994.8,368.1 1094,308.6 			"/>
			<polygon class="st29" points="433.5,652.4 690.9,621 496.9,582.9 			"/>
			<polygon class="st21" points="203.9,499.5 189.5,599 496.9,582.9 			"/>
			<polygon class="st22" points="690.9,621 496.9,582.9 560.4,548.1 			"/>
			<polygon class="st21" points="1094,327.6 1068.3,279 994.8,368.1 1094,403.2 			"/>
			<polygon class="st23" points="876,286.1 752,342.3 749.4,590.7 			"/>
			<polygon class="st23" points="429.6,799.9 475,663.2 417.2,799.9 			"/>
			<polygon class="st22" points="203.9,499.5 189.5,599 105.6,608.6 			"/>
			<polygon class="st29" points="690.9,621 560.4,548.1 752,342.3 			"/>
			<polygon class="st28" points="429.6,799.9 475,663.2 261.6,799.9 			"/>
			<polygon class="st25" points="346,799.9 195.6,647 242.8,799.9 			"/>
			<polygon class="st29" points="203.9,499.5 12.2,776 105.6,608.6 			"/>
			<polygon class="st25" points="248.9,799.9 295.1,642.8 189.5,599 243.2,799.9 			"/>
			<polygon class="st22" points="690.9,621 749.4,590.7 682.5,588.2 			"/>
			<polygon class="st32" points="242.8,799.9 195.6,647 12.2,776 176.5,799.9 			"/>
			<polygon class="st29" points="189.5,599 475,663.2 402.3,632.8 			"/>
			<polygon class="st33" points="189.5,599 140.9,453.7 105.6,608.6 			"/>
			<polygon class="st27" points="248.9,799.9 295.1,642.8 12.2,776 176.5,799.9 			"/>
			<polygon class="st28" points="203.9,499.5 109.8,707.9 402.3,632.8 			"/>
			<polygon class="st21" points="690.9,621 475,663.2 640.1,560.2 			"/>
			<polygon class="st22" points="109.8,707.9 12.2,776 105.6,608.6 			"/>
			<polygon class="st32" points="496.9,582.9 425.2,610 513.7,628.8 			"/>
			<polygon class="st30" points="203.9,499.5 124.7,422.7 295.1,642.8 			"/>
			<polygon class="st27" points="640.1,560.2 752,342.3 749.4,590.7 			"/>
			<polygon class="st32" points="994.8,368.1 816.7,379.8 752,342.3 			"/>
			<polygon class="st32" points="425.2,610 560.4,548.1 475.2,541.4 			"/>
			<polygon class="st23" points="189.5,599 140.9,453.7 402.3,632.8 			"/>
			<polygon class="st23" points="12.2,776 195.6,647 402.3,632.8 			"/>
			<polygon class="st31" points="690.9,621 870.4,471.4 513.7,628.8 			"/>
			<polygon class="st24" points="242.8,799.9 195.6,647 171.4,726.9 236.8,799.9 			"/>
			<polygon class="st25" points="749.4,590.7 682.5,588.2 513.7,628.8 			"/>
			<polygon class="st32" points="254.9,799.9 425.2,610 402.3,632.8 254.8,799.9 			"/>
			<polygon class="st28" points="749.4,590.7 475.2,541.4 736.3,354.9 			"/>
			<polygon class="st34" points="475,663.2 816.7,379.8 682.5,588.2 			"/>
			<polygon class="st22" points="295.1,642.8 195.6,647 402.3,632.8 			"/>
			<polygon class="st30" points="425.2,610 124.7,422.7 195.6,647 			"/>
			<polygon class="st22" points="425.2,610 475,663.2 532,720 			"/>
			<polygon class="st22" points="816.7,379.8 752,342.3 736.3,354.9 			"/>
			<polygon class="st22" points="475,663.2 640.1,560.2 513.7,628.8 			"/>
			<polygon class="st25" points="5.2,443.3 5.2,451.2 109.8,707.9 124.7,422.7 			"/>
			<polygon class="st27" points="109.8,707.9 295.1,642.8 475.2,541.4 			"/>
			<polygon class="st30" points="870.4,471.4 994.8,368.1 732.5,509.7 			"/>
			<polygon class="st22" points="5.2,444.1 140.9,453.7 124.7,422.7 5.2,443.3 			"/>
			<polygon class="st22" points="109.8,707.9 171.4,726.9 295.1,642.8 			"/>
			<polygon class="st21" points="195.6,647 448.3,779.2 402.3,632.8 			"/>
			<polygon class="st27" points="295.1,642.8 682.5,588.2 475.2,541.4 			"/>
			<polygon class="st23" points="994.8,368.1 816.7,379.8 840.3,590.6 			"/>
			<polygon class="st22" points="425.2,610 513.7,628.8 475.2,541.4 			"/>
			<polygon class="st35" points="402.3,632.8 513.7,628.8 475.2,541.4 			"/>
			<polygon class="st35" points="870.4,471.4 816.7,379.8 736.3,354.9 			"/>
			<polygon class="st35" points="870.4,471.4 816.7,379.8 736.3,354.9 			"/>
			<polygon class="st36" points="171.4,726.9 425.2,610 295.1,642.8 			"/>
			<polygon class="st36" points="791.2,321.8 816.7,379.8 752,342.3 			"/>
			<polygon class="st37" points="752,342.3 732.5,509.7 736.3,354.9 			"/>
			<polygon class="st38" points="640.1,560.2 402.3,632.8 475.2,541.4 			"/>
			<polygon class="st39" points="870.4,471.4 640.1,560.2 736.3,354.9 			"/>
			<polygon class="st35" points="532,720 402.3,632.8 513.7,628.8 			"/>
			<polygon class="st38" points="425.2,610 295.1,642.8 448.3,779.2 			"/>
			<polygon class="st40" points="5.2,362.2 5.2,438.1 140.9,453.7 			"/>
			<polygon class="st41" points="5.2,427.6 5.2,446.1 40.7,473.2 			"/>
			<polygon class="st35" points="448.3,779.2 402.3,632.8 513.7,628.8 			"/>
			<polygon class="st42" points="316.2,388.2 124.7,422.7 295.1,642.8 			"/>
			<polygon class="st35" points="316.2,388.2 140.9,453.7 124.7,422.7 			"/>
			<polygon class="st39" points="640.1,560.2 448.3,779.2 682.5,588.2 			"/>
			<polygon class="st37" points="870.4,471.4 682.5,588.2 840.3,590.6 			"/>
			<polygon class="st43" points="5.2,627.6 5.2,692.9 109.8,707.9 140.9,453.7 			"/>
			<polygon class="st44" points="171.4,726.9 425.2,610 448.3,779.2 			"/>
			<polygon class="st45" points="640.1,560.2 732.5,509.7 682.5,588.2 			"/>
			<polygon class="st46" points="171.4,726.9 448.3,779.2 475.2,541.4 			"/>
			<polygon class="st47" points="5.2,444.1 140.9,453.7 60.5,345.2 5.2,438.7 			"/>
			<polygon class="st44" points="532,720 732.5,509.7 475.2,541.4 			"/>
			<polygon class="st44" points="532,720 682.5,588.2 840.3,590.6 			"/>
			<polygon class="st48" points="640.1,560.2 816.7,379.8 840.3,590.6 			"/>
			<polygon class="st49" points="425.2,610 682.5,588.2 845.7,516.8 			"/>
			<polygon class="st46" points="545.6,369.6 475.2,541.4 736.3,354.9 			"/>
			<polygon class="st50" points="316.2,388.2 295.1,642.8 40.7,473.2 			"/>
			<polygon class="st45" points="640.1,560.2 732.5,509.7 840.3,590.6 			"/>
			<polygon class="st51" points="732.5,509.7 682.5,588.2 845.7,516.8 			"/>
			<polygon class="st52" points="640.1,560.2 575,756.7 513.7,628.8 			"/>
			<polygon class="st53" points="791.2,321.8 870.4,471.4 845.7,516.8 			"/>
			<polygon class="st54" points="316.2,388.2 425.2,610 478.4,716.5 			"/>
			<polygon class="st45" points="532,720 448.3,779.2 478.4,716.5 			"/>
			<polygon class="st54" points="650.1,598.5 448.3,779.2 475.2,541.4 			"/>
			<polygon class="st50" points="413.6,311.8 478.4,716.5 475.2,541.4 			"/>
			<polygon class="st47" points="532,720 448.3,779.2 575,756.7 			"/>
			<polygon class="st48" points="810.3,311.5 732.5,509.7 736.3,354.9 			"/>
			<polygon class="st50" points="791.2,321.8 650.1,598.5 682.5,588.2 			"/>
			<polygon class="st46" points="840.4,56.1 810.3,311.5 736.3,354.9 			"/>
			<polygon class="st54" points="532,720 732.5,509.7 575,756.7 			"/>
			<polygon class="st45" points="791.2,321.8 810.3,311.5 736.3,354.9 			"/>
			<polygon class="st46" points="640.1,560.2 545.6,369.6 845.7,516.8 			"/>
			<polygon class="st46" points="545.6,369.6 845.7,516.8 736.3,354.9 			"/>
			<polygon class="st55" points="5.2,679.4 171.4,726.9 40.7,473.2 5.2,581.5 			"/>
			<polygon class="st56" points="791.2,321.8 840.4,56.1 545.6,369.6 			"/>
			<polygon class="st57" points="144.1,365.9 40.7,473.2 60.5,345.2 			"/>
			<polygon class="st58" points="109.8,707.9 103.8,564.4 103.9,700.9 			"/>
			<polygon class="st59" points="650.1,598.5 545.6,369.6 732.5,509.7 			"/>
			<polygon class="st60" points="791.2,321.8 810.3,311.5 545.6,369.6 			"/>
			<polygon class="st57" points="5.2,677.8 5.2,691 103.9,700.9 			"/>
			<polygon class="st57" points="1094,284.6 1088.8,233.1 1085.4,412.3 1094,326.8 			"/>
			<polygon class="st57" points="1094,284.6 1088.8,233.1 1085.4,412.3 1094,326.8 			"/>
			<polygon class="st61" points="650.1,598.5 810.3,311.5 840.3,590.6 			"/>
			<polygon class="st62" points="1094,151 855.1,67.7 1088.8,233.1 1094,232.9 			"/>
			<polygon class="st63" points="5.2,677.8 103.9,700.9 93,401.1 5.2,603.3 			"/>
			<polygon class="st64" points="5.2,482.5 5.2,581.5 40.7,473.2 			"/>
			<polygon class="st65" points="791.2,321.8 793.7,328.8 845.7,516.8 			"/>
			<polygon class="st61" points="316.2,388.2 103.8,564.4 93,401.1 			"/>
			<polygon class="st66" points="650.1,598.5 575,756.7 478.4,716.5 			"/>
			<polygon class="st63" points="5.2,618.4 73.9,495.4 40.7,473.2 5.2,581.5 			"/>
			<polygon class="st67" points="791.2,321.8 793.7,328.8 1088.8,233.1 			"/>
			<polygon class="st64" points="791.2,321.8 810.3,311.5 793.7,328.8 			"/>
			<polygon class="st66" points="73.9,495.4 93,401.1 60.5,345.2 			"/>
			<polygon class="st68" points="5.2,534.5 103.8,564.4 40.7,473.2 5.2,482.5 			"/>
			<polygon class="st69" points="5.2,400 5.2,468.8 40.7,473.2 			"/>
			<polygon class="st70" points="650.1,598.5 793.7,328.8 545.6,369.6 			"/>
			<polygon class="st71" points="5.2,534.5 103.8,564.4 93,401.1 5.2,452.5 			"/>
			<polygon class="st72" points="5.2,646.5 103.8,564.4 73.9,495.4 5.2,618.4 			"/>
			<polygon class="st73" points="5.2,396.4 5.2,452.5 93,401.1 			"/>
			<polygon class="st74" points="5.2,399.3 103.8,564.4 73.9,495.4 5.2,398.8 			"/>
			<polygon class="st74" points="5.2,399.3 103.8,564.4 73.9,495.4 5.2,398.8 			"/>
			<polygon class="st68" points="5.2,395.9 5.2,398.8 73.9,495.4 180.6,355.4 			"/>
			<polygon class="st75" points="5.2,352.1 5.2,395.9 180.6,355.4 			"/>
			<g class="st76">
				<path class="st77" d="M210.7,799.9h0.6l-27.9-45c-0.1-0.1-0.1-0.1-0.2-0.1c0,0-0.1,0-0.1,0c-0.1,0.1-0.1,0.2-0.1,0.3
					L210.7,799.9L210.7,799.9z"/>
			</g>
			<g class="st78">
				<path class="st77" d="M183.1,754.8L5.2,736.7v0.5l177.9,18.2c0.1,0,0.2-0.1,0.3-0.2C183.3,755,183.2,754.8,183.1,754.8
					L183.1,754.8z"/>
			</g>
			<g class="st79">
				<path class="st77" d="M236.7,799.9h0.8l-54.2-45c-0.1,0-0.1-0.1-0.2-0.1c-0.1,0-0.1,0-0.2,0.1c-0.1,0.1-0.1,0.3,0,0.3
					L236.7,799.9L236.7,799.9z"/>
			</g>
			<g>
				<path class="st77" d="M343.6,799.9l-0.1-29.9c0-0.1-0.1-0.2-0.2-0.2s-0.2,0.1-0.2,0.2l0.1,29.9H343.6z"/>
			</g>
			<g>
				<path class="st77" d="M305.4,799.9l38-29.7c0.1-0.1,0.1-0.2,0-0.3c0-0.1-0.1-0.1-0.2-0.1c0,0-0.1,0-0.1,0l-38.5,30.1
					L305.4,799.9L305.4,799.9z"/>
			</g>
			<g class="st80">
				<path class="st77" d="M183.1,754.8C183.1,754.8,183.1,754.8,183.1,754.8L5.2,797.3v0.5l177.9-42.4c0.1,0,0.2-0.2,0.2-0.3
					C183.3,754.9,183.2,754.8,183.1,754.8L183.1,754.8z"/>
			</g>
			<g class="st81">
				<path class="st77" d="M179.4,799.9l4-44.8c0-0.1-0.1-0.2-0.2-0.3c0,0,0,0,0,0c-0.1,0-0.2,0.1-0.2,0.2l-4,44.9L179.4,799.9
					L179.4,799.9z"/>
			</g>
			<g class="st82">
				<path class="st77" d="M303.5,554.5c0.1,0,0.2,0.1,0.2,0.2L343.5,770c0,0.1,0,0.3-0.2,0.3c-0.1,0-0.3-0.1-0.3-0.2l-39.8-215.3
					C303.2,554.7,303.3,554.6,303.5,554.5C303.4,554.5,303.5,554.5,303.5,554.5L303.5,554.5z"/>
			</g>
			<g class="st83">
				<path class="st77" d="M346.7,799.9l-3.2-29.9c0-0.1-0.1-0.2-0.2-0.2h0c-0.1,0-0.2,0.1-0.2,0.3l3.2,29.9L346.7,799.9L346.7,799.9
					z"/>
			</g>
			<g class="st81">
				<path class="st77" d="M317.4,799.9l26-29.7c0.1-0.1,0.1-0.2,0-0.3c0,0-0.1-0.1-0.2-0.1s-0.1,0-0.2,0.1l-26.3,30H317.4z"/>
			</g>
			<g class="st84">
				<path class="st85" d="M711.9,799.9l67-95.5c0.1-0.1,0-0.3-0.1-0.3c0,0-0.1,0-0.1,0c-0.1,0-0.2,0-0.2,0.1l-67.2,95.8H711.9z"/>
			</g>
			<g class="st86">
				<path class="st85" d="M381.2,667.7C381.2,667.7,381.3,667.7,381.2,667.7c0.2,0.1,0.3,0.2,0.2,0.3l-38,102c0,0.1-0.2,0.2-0.3,0.1
					s-0.2-0.2-0.1-0.3l38-102C381.1,667.8,381.1,667.7,381.2,667.7L381.2,667.7z"/>
			</g>
			<g>
				<path class="st85" d="M198.4,322.4c0.1,0,0.2,0.1,0.2,0.2l33,135c0,0.1-0.1,0.3-0.2,0.3c-0.1,0-0.2,0-0.3-0.2l-33-135
					C198.1,322.6,198.2,322.4,198.4,322.4C198.3,322.4,198.4,322.4,198.4,322.4L198.4,322.4z"/>
			</g>
			<g>
				<path class="st85" d="M231.4,457.4c0.1,0,0.1,0,0.2,0.1l72,97.2c0.1,0.1,0,0.3,0,0.3c-0.1,0.1-0.3,0-0.3,0l-72-97.2
					c-0.1-0.1-0.1-0.3,0.1-0.3C231.3,457.4,231.3,457.4,231.4,457.4z"/>
			</g>
			<g class="st87">
				<path class="st85" d="M247.1,657.3c0.1,0,0.1,0,0.2,0.1l96.2,112.5c0.1,0.1,0.1,0.3,0,0.3c-0.1,0.1-0.2,0.1-0.3,0l-96.2-112.5
					c-0.1-0.1-0.1-0.3,0-0.3C246.9,657.3,247,657.3,247.1,657.3L247.1,657.3z"/>
			</g>
			<g>
				<path class="st85" d="M402.8,547.6c0.1,0,0.2,0.1,0.2,0.2c0,0.1-0.1,0.2-0.2,0.3l-99.3,7c-0.2,0-0.2-0.1-0.3-0.2
					c0-0.1,0.1-0.2,0.2-0.3L402.8,547.6L402.8,547.6L402.8,547.6z"/>
			</g>
			<g class="st88">
				<path class="st85" d="M231.4,457.4c0,0,0.1,0,0.1,0l171.4,90.2c0.1,0.1,0.2,0.2,0.1,0.3c0,0.1-0.2,0.2-0.3,0.1l-171.4-90.2
					c-0.1-0.1-0.2-0.2-0.1-0.3C231.2,457.4,231.3,457.4,231.4,457.4L231.4,457.4z"/>
			</g>
			<g class="st89">
				<path class="st85" d="M373.8,799.9h0.7l-31-30c0,0-0.1-0.1-0.2-0.1c0,0-0.1,0-0.2,0.1c-0.1,0.1-0.1,0.2,0,0.3L373.8,799.9
					L373.8,799.9z"/>
			</g>
			<g class="st90">
				<path class="st85" d="M470.3,429c0.1,0,0.2,0.1,0.2,0.2c0,0.1-0.1,0.3-0.2,0.3l-238.9,28.4c-0.1,0-0.2-0.1-0.3-0.2
					s0.1-0.2,0.2-0.3L470.3,429L470.3,429L470.3,429z"/>
			</g>
			<g class="st91">
				<path class="st85" d="M198.4,322.4C198.4,322.4,198.4,322.4,198.4,322.4l198.4,20.1c0.1,0,0.2,0.1,0.2,0.3
					c0,0.1-0.1,0.3-0.3,0.2l-198.3-20.1c-0.1,0-0.2-0.1-0.2-0.3S198.2,322.4,198.4,322.4L198.4,322.4z"/>
			</g>
			<g class="st92">
				<path class="st85" d="M396.7,342.5c0.1,0,0.2,0,0.2,0.1c0.1,0.1,0,0.2,0,0.3L231.6,457.8c-0.1,0.1-0.3,0-0.3-0.1
					s-0.1-0.3,0.1-0.3l165.3-114.9C396.6,342.6,396.7,342.5,396.7,342.5L396.7,342.5z"/>
			</g>
			<g>
				<path class="st85" d="M282.8,513.2c0.1,0,0.2,0,0.2,0.1l20.6,41.4c0.1,0.1,0,0.3-0.1,0.3s-0.3,0-0.3-0.1l-20.6-41.4
					c-0.1-0.1,0-0.3,0.1-0.3C282.7,513.2,282.8,513.2,282.8,513.2L282.8,513.2z"/>
			</g>
			<g>
				<path class="st85" d="M402.8,547.6C402.8,547.6,402.8,547.6,402.8,547.6c0.2,0,0.3,0.2,0.2,0.3L381.5,668c0,0.1-0.1,0.2-0.3,0.2
					c-0.1,0-0.2-0.2-0.2-0.3l21.5-120.2C402.5,547.6,402.6,547.6,402.8,547.6L402.8,547.6z"/>
			</g>
			<g class="st93">
				<path class="st85" d="M299.4,799.9l82.1-131.8c0.1-0.1,0-0.3-0.1-0.3c0,0-0.1,0-0.1,0c-0.1,0-0.2,0-0.2,0.1l-82.2,132.1H299.4
					L299.4,799.9z"/>
			</g>
			<g class="st94">
				<path class="st85" d="M252.4,799.9l-5.1-142.4c0-0.1-0.1-0.2-0.2-0.2h0c-0.1,0-0.2,0.1-0.2,0.2l5.1,142.4L252.4,799.9
					L252.4,799.9z"/>
			</g>
			<g class="st79">
				<path class="st85" d="M374.6,425.7c0.1,0,0.2,0.1,0.2,0.2c0,0.1,0,0.3-0.2,0.3l-143.2,31.7c-0.1,0-0.3,0-0.3-0.2
					s0.1-0.3,0.2-0.3L374.6,425.7C374.5,425.7,374.6,425.7,374.6,425.7L374.6,425.7z"/>
			</g>
			<g>
				<path class="st85" d="M282.8,513.2C282.8,513.2,282.8,513.2,282.8,513.2l120,34.4c0.1,0,0.2,0.2,0.2,0.3c0,0.1-0.2,0.2-0.3,0.2
					l-119.9-34.4c-0.1,0-0.2-0.2-0.2-0.3C282.6,513.2,282.7,513.2,282.8,513.2L282.8,513.2z"/>
			</g>
			<g class="st95">
				<path class="st85" d="M282.8,513.2c0.1,0,0.2,0,0.2,0.1l98.5,154.6c0.1,0.1,0,0.3-0.1,0.3c-0.1,0.1-0.3,0-0.3-0.1l-98.5-154.6
					c-0.1-0.1,0-0.3,0.1-0.3C282.7,513.2,282.8,513.2,282.8,513.2L282.8,513.2z"/>
			</g>
			<g class="st96">
				<path class="st85" d="M396.7,342.5c0,0,0.1,0,0.1,0c0.1,0.1,0.1,0.2,0.1,0.3L283,513.5c-0.1,0.1-0.2,0.2-0.3,0.1
					c-0.1-0.1-0.1-0.2-0.1-0.3l113.9-170.6C396.6,342.6,396.7,342.5,396.7,342.5L396.7,342.5z"/>
			</g>
			<g class="st97">
				<path class="st85" d="M413.8,799.9l-32.3-132c0-0.1-0.1-0.2-0.2-0.2c0,0,0,0,0,0c-0.1,0-0.2,0.2-0.2,0.3l32.3,131.9H413.8
					L413.8,799.9z"/>
			</g>
			<g>
				<path class="st85" d="M374.6,425.7L374.6,425.7l95.8,3.3c0.1,0,0.2,0.1,0.2,0.2c0,0.1-0.1,0.2-0.2,0.2l-95.8-3.3
					c-0.1,0-0.2-0.1-0.2-0.2C374.4,425.8,374.5,425.7,374.6,425.7L374.6,425.7z"/>
			</g>
			<g class="st98">
				<path class="st85" d="M778.7,704C778.7,704,778.8,704,778.7,704l309.2,88.5c0.1,0,0.2,0.2,0.2,0.3c0,0.1-0.2,0.2-0.3,0.2
					l-309.2-88.5c-0.1,0-0.2-0.2-0.2-0.3C778.5,704.1,778.6,704,778.7,704L778.7,704z"/>
			</g>
			<g>
				<path class="st85" d="M396.7,342.5L396.7,342.5c0.2,0,0.3,0.2,0.2,0.3L374.8,426c0,0.1-0.2,0.2-0.3,0.2c-0.1,0-0.2-0.2-0.2-0.3
					l22.1-83.2C396.5,342.6,396.6,342.5,396.7,342.5L396.7,342.5z"/>
			</g>
			<g>
				<path class="st85" d="M374.6,425.7c0.1,0,0.1,0,0.2,0.1c0.1,0.1,0.1,0.2,0,0.3L283,513.6c-0.1,0.1-0.2,0.1-0.3,0
					c-0.1-0.1-0.1-0.2,0-0.3l91.8-87.5C374.5,425.7,374.5,425.7,374.6,425.7L374.6,425.7z"/>
			</g>
			<g class="st99">
				<path class="st85" d="M429.4,452.6C429.4,452.6,429.4,452.6,429.4,452.6c0.2,0,0.3,0.2,0.2,0.3l-26.6,95c0,0.1-0.2,0.2-0.3,0.2
					c-0.1,0-0.2-0.2-0.2-0.3l26.6-95C429.2,452.7,429.3,452.6,429.4,452.6L429.4,452.6z"/>
			</g>
			<g>
				<path class="st85" d="M470.3,429c0.1,0,0.2,0,0.2,0.1c0.1,0.1,0,0.3-0.1,0.3L429.5,453c-0.1,0.1-0.3,0-0.3-0.1
					c-0.1-0.1,0-0.3,0.1-0.3l41-23.6C470.2,429,470.3,429,470.3,429L470.3,429z"/>
			</g>
			<g>
				<path class="st85" d="M396.7,342.5c0.1,0,0.2,0.1,0.2,0.2l32.7,110.1c0,0.1,0,0.3-0.2,0.3c-0.1,0-0.3,0-0.3-0.2l-32.7-110
					C396.5,342.7,396.5,342.6,396.7,342.5L396.7,342.5L396.7,342.5z"/>
			</g>
			<g class="st86">
				<path class="st85" d="M429.4,452.6c0.1,0,0.2,0.1,0.2,0.2c0,0.1,0,0.3-0.1,0.3l-146.6,60.6c-0.1,0-0.3,0-0.3-0.1
					c0-0.1,0-0.3,0.1-0.3L429.4,452.6C429.3,452.6,429.4,452.6,429.4,452.6L429.4,452.6z"/>
			</g>
			<g class="st100">
				<path class="st85" d="M865.4,652.1c0.1,0,0.2,0,0.2,0.1c0.1,0.1,0,0.3-0.1,0.3l-86.7,51.9c-0.1,0.1-0.3,0-0.3-0.1
					c-0.1-0.1,0-0.3,0.1-0.3l86.7-51.9C865.3,652.1,865.4,652.1,865.4,652.1L865.4,652.1z"/>
			</g>
			<g class="st76">
				<path class="st85" d="M696,799.9l-0.4-10.8c0-0.1-0.1-0.2-0.2-0.2h0c-0.1,0-0.2,0.1-0.2,0.2l0.4,10.8H696z"/>
			</g>
			<g>
				<path class="st85" d="M374.6,425.7c0,0,0.1,0,0.1,0l54.8,26.9c0.1,0.1,0.2,0.2,0.1,0.3s-0.2,0.2-0.3,0.1l-54.8-26.9
					c-0.1-0.1-0.2-0.2-0.1-0.3C374.4,425.7,374.5,425.7,374.6,425.7L374.6,425.7z"/>
			</g>
			<g>
				<path class="st85" d="M603.9,216.2C603.9,216.2,603.9,216.2,603.9,216.2l106.7,49.6c0.1,0,0.2,0.2,0.1,0.3
					c0,0.1-0.2,0.2-0.3,0.1l-106.6-49.6c-0.1,0-0.2-0.2-0.1-0.3C603.7,216.3,603.8,216.2,603.9,216.2L603.9,216.2z"/>
			</g>
			<g class="st101">
				<path class="st85" d="M25.8,470C25.8,470,25.8,470,25.8,470l-20.6,3.4v0.5l20.6-3.4c0.1,0,0.2-0.1,0.2-0.3
					C26,470.1,25.9,470,25.8,470L25.8,470z"/>
			</g>
			<g class="st102">
				<path class="st85" d="M101,342.3c0,0,0.1,0,0.1,0c0.1,0.1,0.2,0.2,0.1,0.3L26,470.4c-0.1,0.1-0.2,0.2-0.3,0.1s-0.2-0.2-0.1-0.3
					l75.2-127.7C100.9,342.3,100.9,342.3,101,342.3L101,342.3z"/>
			</g>
			<g class="st103">
				<path class="st85" d="M603.9,216.2L603.9,216.2l238.7,7.6c0.1,0,0.2,0.1,0.2,0.2c0,0.1-0.1,0.2-0.2,0.2l-238.7-7.6
					c-0.1,0-0.2-0.1-0.2-0.2C603.6,216.3,603.7,216.2,603.9,216.2z"/>
			</g>
			<g class="st80">
				<path class="st85" d="M696.2,410.7L696.2,410.7c0.1,0,0.2,0.1,0.2,0.2l-9.2,199.8c0,0.1-0.1,0.2-0.2,0.2c-0.1,0-0.2-0.1-0.2-0.2
					l9.2-199.8C696,410.8,696.1,410.7,696.2,410.7L696.2,410.7z"/>
			</g>
			<g class="st104">
				<path class="st85" d="M842.6,223.9c0.1,0,0.2,0.1,0.2,0.2c0,0.1-0.1,0.3-0.2,0.3l-243,32.5c-0.1,0-0.2-0.1-0.3-0.2
					c0-0.1,0.1-0.2,0.2-0.3L842.6,223.9C842.6,223.9,842.6,223.9,842.6,223.9L842.6,223.9z"/>
			</g>
			<g class="st105">
				<path class="st85" d="M677.5,443c0.1,0,0.2,0.1,0.2,0.2l9.6,167.5c0,0.1-0.1,0.2-0.2,0.3c-0.2,0-0.2-0.1-0.3-0.2l-9.5-167.5
					C677.3,443.1,677.4,443,677.5,443L677.5,443z"/>
			</g>
			<g class="st80">
				<path class="st85" d="M500,799.9l97.2-66.1c0.1-0.1,0.1-0.2,0.1-0.3c0-0.1-0.1-0.1-0.2-0.1c0,0-0.1,0-0.1,0l-97.8,66.5
					L500,799.9L500,799.9z"/>
			</g>
			<g class="st106">
				<path class="st85" d="M699.2,799.9l-3.6-10.9c0-0.1-0.1-0.2-0.2-0.2c0,0,0,0-0.1,0c-0.1,0-0.2,0.2-0.2,0.3l3.6,10.8L699.2,799.9
					L699.2,799.9z"/>
			</g>
			<g class="st89">
				<path class="st85" d="M1030.8,799.9l57.1-7c0.1,0,0.2-0.1,0.2-0.3c0-0.1-0.1-0.2-0.2-0.2c0,0,0,0,0,0l-61,7.5L1030.8,799.9
					L1030.8,799.9z"/>
			</g>
			<g>
				<path class="st85" d="M697.4,799.9l-1.8-10.9c0-0.1-0.1-0.2-0.2-0.2c0,0,0,0,0,0c-0.1,0-0.2,0.2-0.2,0.3l1.8,10.8H697.4z"/>
			</g>
			<g class="st107">
				<path class="st85" d="M530.2,799.9l67-66.2c0.1-0.1,0.1-0.2,0-0.3c0,0-0.1-0.1-0.2-0.1c-0.1,0-0.1,0-0.2,0.1l-67.4,66.5H530.2
					L530.2,799.9z"/>
			</g>
			<g class="st108">
				<path class="st85" d="M640.2,799.9h0.6l-43.5-66.5c0-0.1-0.1-0.1-0.2-0.1c0,0-0.1,0-0.1,0c-0.1,0.1-0.2,0.2-0.1,0.3L640.2,799.9
					z"/>
			</g>
			<g class="st109">
				<path class="st85" d="M139.8,66.7L139.8,66.7c0.1,0,0.2,0.1,0.2,0.3l-11.4,152.1c0,0.1-0.1,0.2-0.2,0.2h0
					c-0.1,0-0.2-0.1-0.2-0.3L139.5,67C139.5,66.8,139.6,66.7,139.8,66.7L139.8,66.7z"/>
			</g>
			<g class="st109">
				<path class="st85" d="M128.4,218.9C128.4,218.9,128.4,218.9,128.4,218.9c0.2,0,0.3,0.2,0.2,0.3l-27.4,123.4
					c0,0.1-0.2,0.2-0.3,0.2s-0.2-0.2-0.2-0.3l27.4-123.4C128.2,219,128.3,218.9,128.4,218.9L128.4,218.9z"/>
			</g>
			<g>
				<path class="st85" d="M128.4,218.9c0.1,0,0.2,0.1,0.2,0.1l34.5,79.2c0.1,0.1,0,0.3-0.1,0.3c-0.1,0.1-0.3,0-0.3-0.1l-34.4-79.2
					C128.1,219.1,128.2,219,128.4,218.9C128.3,218.9,128.4,218.9,128.4,218.9L128.4,218.9z"/>
			</g>
			<g class="st110">
				<path class="st85" d="M599.6,256.4c0.1,0,0.2,0,0.2,0.1l96.6,154.3c0.1,0.1,0,0.3-0.1,0.3c-0.1,0.1-0.3,0-0.3-0.1l-96.6-154.3
					c-0.1-0.1,0-0.3,0.1-0.3C599.5,256.4,599.6,256.4,599.6,256.4L599.6,256.4z"/>
			</g>
			<g class="st103">
				<path class="st85" d="M842.6,223.9c0.1,0,0.1,0,0.2,0.1l109.7,143.5c0.1,0.1,0.1,0.2,0,0.3c-0.1,0.1-0.3,0-0.3,0L842.4,224.3
					c-0.1-0.1-0.1-0.3,0-0.3C842.5,223.9,842.5,223.9,842.6,223.9z"/>
			</g>
			<g class="st79">
				<path class="st85" d="M599.6,256.4c0.1,0,0.2,0.1,0.2,0.2l77.9,186.6c0,0.1,0,0.3-0.1,0.3c-0.1,0-0.3,0-0.3-0.1l-77.9-186.6
					c0-0.1,0-0.3,0.1-0.3C599.5,256.4,599.6,256.4,599.6,256.4L599.6,256.4z"/>
			</g>
			<g>
				<path class="st85" d="M861.9,799.9l3.8-147.6c0-0.1-0.1-0.2-0.2-0.2l0,0c-0.1,0-0.2,0.1-0.2,0.2l-3.8,147.6L861.9,799.9
					L861.9,799.9z"/>
			</g>
			<g>
				<path class="st85" d="M695.3,789.3l56.1,10.6h2.6l-58.6-11.1c0,0,0,0,0,0c-0.1,0-0.2,0.1-0.2,0.2
					C695.1,789.2,695.2,789.3,695.3,789.3L695.3,789.3z"/>
			</g>
			<g class="st111">
				<path class="st85" d="M710.5,265.8c0,0,0.1,0,0.1,0c0.1,0.1,0.2,0.2,0.1,0.3l-29.3,45.2c-0.1,0.1-0.2,0.1-0.3,0.1
					c-0.1-0.1-0.1-0.2-0.1-0.3l29.3-45.2C710.4,265.9,710.4,265.9,710.5,265.8L710.5,265.8z"/>
			</g>
			<g class="st112">
				<path class="st85" d="M87.8,0c0.1,0,0.2,0.1,0.2,0.2l40.6,218.9c0,0.1-0.1,0.3-0.2,0.3c-0.1,0-0.2-0.1-0.3-0.2L87.6,0.3
					C87.6,0.2,87.7,0,87.8,0L87.8,0z"/>
			</g>
			<g>
				<path class="st85" d="M597.1,733.3c0,0,0.1,0,0.1,0l98.3,55.5c0.1,0.1,0.2,0.2,0.1,0.3c-0.1,0.1-0.2,0.2-0.3,0.1l-98.3-55.5
					c-0.1-0.1-0.2-0.2-0.1-0.3C596.9,733.4,597,733.3,597.1,733.3L597.1,733.3z"/>
			</g>
			<g>
				<path class="st85" d="M794.2,258.7c0,0,0.1,0,0.1,0c0.1,0.1,0.2,0.2,0.1,0.3l-98,152c-0.1,0.1-0.2,0.1-0.3,0.1
					c-0.1-0.1-0.2-0.2-0.1-0.3l98-152C794.1,258.8,794.1,258.7,794.2,258.7L794.2,258.7z"/>
			</g>
			<g class="st105">
				<path class="st85" d="M677.5,443c0.1,0,0.1,0,0.2,0.1l187.9,209.1c0.1,0.1,0.1,0.2,0,0.3c-0.1,0.1-0.2,0.1-0.3,0L677.3,443.4
					c-0.1-0.1-0.1-0.2,0-0.3C677.4,443,677.5,443,677.5,443L677.5,443z"/>
			</g>
			<g class="st113">
				<path class="st85" d="M245.7,799.9l79.7-181.2c0-0.1,0-0.3-0.1-0.3c0,0-0.1,0-0.1,0c-0.1,0-0.2,0-0.2,0.1l-79.8,181.4
					L245.7,799.9L245.7,799.9z"/>
			</g>
			<g class="st92">
				<path class="st85" d="M599.6,256.4c0.1,0,0.2,0,0.2,0.1l106.4,151.8c0.1,0.1,0,0.3-0.1,0.3c-0.1,0.1-0.3,0-0.3-0.1L599.4,256.8
					c-0.1-0.1,0-0.2,0.1-0.3C599.5,256.4,599.6,256.4,599.6,256.4L599.6,256.4z"/>
			</g>
			<g class="st114">
				<path class="st85" d="M842.6,223.9c0.1,0,0.2,0,0.2,0.1c0.1,0.1,0,0.3-0.1,0.3l-161.4,87.1c-0.1,0.1-0.3,0-0.3-0.1
					c0-0.1,0-0.3,0.1-0.3l161.4-87.1C842.5,223.9,842.5,223.9,842.6,223.9L842.6,223.9z"/>
			</g>
			<g class="st96">
				<path class="st85" d="M626,799.9h0.5l-29.3-66.4c0-0.1-0.1-0.2-0.2-0.2c0,0-0.1,0-0.1,0c-0.1,0.1-0.2,0.2-0.1,0.3L626,799.9
					L626,799.9z"/>
			</g>
			<g>
				<path class="st85" d="M696.2,410.7c0,0,0.1,0,0.1,0c0.1,0.1,0.2,0.2,0.1,0.3l-18.7,32.3c-0.1,0.1-0.2,0.2-0.3,0.1
					c-0.1-0.1-0.2-0.2-0.1-0.3l18.7-32.3C696.1,410.7,696.1,410.7,696.2,410.7L696.2,410.7z"/>
			</g>
			<g class="st111">
				<path class="st85" d="M842.6,223.9c0,0,0.1,0,0.2,0.1c0.1,0.1,0.1,0.2,0,0.3l-57.6,69.4c-0.1,0.1-0.2,0.1-0.3,0
					c-0.1-0.1-0.1-0.2,0-0.3l57.6-69.4C842.5,223.9,842.5,223.9,842.6,223.9L842.6,223.9z"/>
			</g>
			<g class="st80">
				<path class="st85" d="M139.8,66.7C139.8,66.7,139.8,66.7,139.8,66.7c0.2,0,0.2,0.1,0.2,0.3l-38.7,275.6c0,0.1-0.1,0.2-0.3,0.2
					c-0.1,0-0.2-0.1-0.2-0.3l38.7-275.5C139.5,66.8,139.6,66.7,139.8,66.7L139.8,66.7z"/>
			</g>
			<g class="st115">
				<path class="st85" d="M139.8,66.7c0.1,0,0.2,0.1,0.2,0.2l23.1,231.4c0,0.1-0.1,0.2-0.2,0.3h0c-0.1,0-0.2-0.1-0.2-0.2L139.5,67
					C139.5,66.9,139.6,66.8,139.8,66.7C139.8,66.8,139.8,66.7,139.8,66.7L139.8,66.7z"/>
			</g>
			<g class="st116">
				<path class="st85" d="M599.6,256.4c0,0,0.1,0,0.1,0l81.6,54.6c0.1,0.1,0.1,0.2,0.1,0.3c-0.1,0.1-0.2,0.1-0.3,0.1l-81.6-54.6
					c-0.1-0.1-0.1-0.2-0.1-0.3C599.5,256.5,599.5,256.4,599.6,256.4L599.6,256.4z"/>
			</g>
			<g class="st117">
				<path class="st85" d="M9.6,23.1c0.1,0,0.2,0,0.2,0.1l153.3,275c0.1,0.1,0,0.3-0.1,0.3c-0.1,0.1-0.3,0-0.3-0.1L9.4,23.4
					c-0.1-0.1,0-0.3,0.1-0.3C9.5,23.1,9.6,23.1,9.6,23.1L9.6,23.1z"/>
			</g>
			<g>
				<path class="st85" d="M797.4,289.2c0,0,0.1,0,0.2,0.1c0.1,0.1,0.1,0.2,0,0.3L696.4,411.1c-0.1,0.1-0.2,0.1-0.3,0
					c-0.1-0.1-0.1-0.2,0-0.3l101.2-121.5C797.3,289.3,797.4,289.2,797.4,289.2L797.4,289.2z"/>
			</g>
			<g class="st99">
				<path class="st85" d="M549.2,677c0,0,0.1,0,0.1,0l146.2,111.8c0.1,0.1,0.1,0.2,0,0.3c-0.1,0.1-0.2,0.1-0.3,0L549.1,677.5
					c-0.1-0.1-0.1-0.2,0-0.3C549.1,677.1,549.1,677,549.2,677L549.2,677z"/>
			</g>
			<g class="st118">
				<path class="st85" d="M139.9,66.8c-0.1-0.1-0.1-0.1-0.2-0.1c-0.1,0-0.1,0-0.2,0.1L5.2,204.9v0.7L139.9,67.2
					C140,67.1,140,66.9,139.9,66.8L139.9,66.8z"/>
			</g>
			<g>
				<path class="st85" d="M706,408.2c0,0,0.1,0,0.2,0c0.1,0.1,0.1,0.2,0,0.3l-28.5,34.8c-0.1,0.1-0.2,0.1-0.3,0
					c-0.1-0.1-0.1-0.2,0-0.3l28.5-34.8C705.9,408.2,706,408.2,706,408.2L706,408.2z"/>
			</g>
			<g class="st114">
				<path class="st85" d="M614.2,799.9h0.5l-65.3-122.8c0-0.1-0.1-0.1-0.2-0.1c0,0-0.1,0-0.1,0c-0.1,0.1-0.2,0.2-0.1,0.3
					L614.2,799.9L614.2,799.9z"/>
			</g>
			<g>
				<path class="st85" d="M87.8,0C87.9,0,88,0,88,0.1l51.9,66.7c0.1,0.1,0.1,0.3,0,0.3c-0.1,0.1-0.3,0.1-0.3,0L87.7,0.4
					c-0.1-0.1-0.1-0.2,0-0.3C87.7,0,87.8,0,87.8,0L87.8,0z"/>
			</g>
			<g>
				<path class="st85" d="M549.2,677c0.1,0,0.1,0,0.2,0.1l47.8,56.3c0.1,0.1,0.1,0.3,0,0.3c-0.1,0.1-0.2,0.1-0.3,0L549,677.4
					c-0.1-0.1-0.1-0.3,0-0.3C549.1,677.1,549.1,677,549.2,677L549.2,677z"/>
			</g>
			<g>
				<path class="st85" d="M101.2,342.4l-96-122v0.8l95.6,121.5c0.1,0.1,0.2,0.1,0.3,0C101.3,342.6,101.3,342.5,101.2,342.4
					L101.2,342.4z"/>
			</g>
			<g class="st119">
				<path class="st85" d="M87.8,0c0.1,0,0.2,0.1,0.2,0.2l13.2,342.3c0,0.1-0.1,0.2-0.2,0.2c-0.1,0-0.2-0.1-0.2-0.2L87.6,0.3
					C87.6,0.1,87.7,0,87.8,0L87.8,0L87.8,0z"/>
			</g>
			<g class="st120">
				<path class="st85" d="M163,298.1L5.2,215.4v0.5l157.6,82.6c0.1,0,0.3,0,0.3-0.1C163.1,298.3,163.1,298.2,163,298.1L163,298.1z"
					/>
			</g>
			<g>
				<path class="st85" d="M797.4,289.2c0,0,0.1,0,0.1,0l154.8,78.2c0.1,0,0.2,0.2,0.1,0.3s-0.2,0.2-0.3,0.1l-154.8-78.2
					c-0.1,0-0.2-0.2-0.1-0.3C797.3,289.3,797.4,289.2,797.4,289.2L797.4,289.2z"/>
			</g>
			<g class="st109">
				<path class="st85" d="M677.5,443c0,0,0.1,0,0.2,0l145.7,110.4c0.1,0.1,0.1,0.2,0,0.3c-0.1,0.1-0.2,0.1-0.3,0L677.4,443.4
					c-0.1-0.1-0.1-0.2,0-0.3C677.4,443,677.5,443,677.5,443L677.5,443z"/>
			</g>
			<g class="st121">
				<path class="st85" d="M681.8,525.7C681.8,525.7,681.8,525.7,681.8,525.7c0.2,0.1,0.3,0.2,0.2,0.3l-84.7,207.7
					c0,0.1-0.2,0.2-0.3,0.1c-0.1,0-0.2-0.2-0.1-0.3l84.7-207.7C681.6,525.7,681.7,525.7,681.8,525.7z"/>
			</g>
			<g class="st0">
				<path class="st85" d="M139.8,66.7c0,0,0.1,0,0.1,0l199,123.1c0.1,0.1,0.2,0.2,0.1,0.3c-0.1,0.1-0.2,0.1-0.3,0.1l-199-123.1
					c-0.1-0.1-0.1-0.2-0.1-0.3C139.6,66.8,139.7,66.7,139.8,66.7L139.8,66.7z"/>
			</g>
			<g>
				<path class="st85" d="M677.5,443c0.1,0,0.2,0.1,0.2,0.2l4.3,82.7c0,0.1-0.1,0.2-0.2,0.3c-0.1,0-0.2-0.1-0.2-0.2l-4.3-82.7
					C677.3,443.1,677.4,443,677.5,443L677.5,443L677.5,443z"/>
			</g>
			<g class="st122">
				<path class="st85" d="M338.8,189.9c0.1,0,0.2,0,0.2,0.1c0.1,0.1,0,0.3-0.1,0.3L101.2,342.7c-0.1,0.1-0.3,0-0.3-0.1
					c-0.1-0.1,0-0.3,0.1-0.3l237.8-152.4C338.7,189.9,338.8,189.9,338.8,189.9L338.8,189.9z"/>
			</g>
			<g class="st92">
				<path class="st85" d="M338.8,189.9c0.1,0,0.2,0,0.2,0.1c0.1,0.1,0,0.3-0.1,0.3L163,298.5c-0.1,0.1-0.3,0-0.3-0.1
					c-0.1-0.1,0-0.3,0.1-0.3l175.9-108.2C338.7,189.9,338.7,189.9,338.8,189.9L338.8,189.9z"/>
			</g>
			<g>
				<path class="st85" d="M706,408.2c0.1,0,0.1,0,0.2,0.1l117.1,145.2c0.1,0.1,0.1,0.3,0,0.3c-0.1,0.1-0.3,0.1-0.3,0L705.8,408.6
					c-0.1-0.1-0.1-0.3,0-0.3C705.9,408.2,706,408.2,706,408.2L706,408.2z"/>
			</g>
			<g class="st123">
				<path class="st85" d="M433.5,652.2c0,0,0.1,0,0.1,0l163.6,81.2c0.1,0.1,0.2,0.2,0.1,0.3c-0.1,0.1-0.2,0.2-0.3,0.1l-163.6-81.2
					c-0.1-0.1-0.2-0.2-0.1-0.3C433.3,652.2,433.4,652.2,433.5,652.2L433.5,652.2z"/>
			</g>
			<g>
				<path class="st85" d="M797.4,289.2c0.1,0,0.2,0.1,0.2,0.2c0,0.1-0.1,0.3-0.2,0.3l-116.2,21.8c-0.1,0-0.3-0.1-0.3-0.2
					c0-0.1,0-0.2,0.2-0.3L797.4,289.2C797.4,289.2,797.4,289.2,797.4,289.2L797.4,289.2z"/>
			</g>
			<g>
				<path class="st85" d="M785,293.3c0,0,0.1,0,0.1,0c0.1,0.1,0.1,0.2,0.1,0.3l-78.9,114.9c-0.1,0.1-0.2,0.1-0.3,0.1
					c-0.1-0.1-0.1-0.2-0.1-0.3l78.9-114.9C784.8,293.4,784.9,293.3,785,293.3L785,293.3z"/>
			</g>
			<g class="st81">
				<path class="st85" d="M681.8,525.7c0,0,0.1,0,0.2,0.1c0.1,0.1,0.1,0.2,0,0.3L549.4,677.4c-0.1,0.1-0.2,0.1-0.3,0
					c-0.1-0.1-0.1-0.2,0-0.3l132.6-151.4C681.6,525.7,681.7,525.7,681.8,525.7L681.8,525.7z"/>
			</g>
			<g class="st119">
				<path class="st85" d="M338.8,189.9L338.8,189.9L5.2,211.5v0.5l333.6-21.6c0.1,0,0.2-0.1,0.2-0.3
					C339,189.9,338.9,189.9,338.8,189.9z"/>
			</g>
			<g class="st81">
				<path class="st85" d="M1094,308l-141.9,59.4c-0.1,0-0.2,0.2-0.1,0.3c0,0.1,0.2,0.2,0.3,0.1l141.7-59.4L1094,308L1094,308z"/>
			</g>
			<g class="st124">
				<path class="st85" d="M87.8,0c0.1,0,0.1,0,0.2,0l250.9,189.9c0.1,0.1,0.1,0.2,0,0.3c-0.1,0.1-0.2,0.1-0.3,0L87.7,0.4
					c-0.1-0.1-0.1-0.2,0-0.3C87.7,0,87.8,0,87.8,0z"/>
			</g>
			<g>
				<path class="st85" d="M681.8,525.7C681.8,525.7,681.8,525.7,681.8,525.7l141.4,27.7c0.1,0,0.2,0.2,0.2,0.3
					c0,0.1-0.2,0.2-0.3,0.2l-141.4-27.7c-0.1,0-0.2-0.2-0.2-0.3C681.6,525.7,681.7,525.7,681.8,525.7L681.8,525.7z"/>
			</g>
			<g class="st92">
				<path class="st85" d="M909.6,192.8c0.1,0,0.2,0.1,0.2,0.2l42.7,174.6c0,0.1,0,0.2-0.2,0.3s-0.3,0-0.3-0.2l-42.7-174.6
					C909.3,193,909.4,192.9,909.6,192.8C909.6,192.8,909.6,192.8,909.6,192.8L909.6,192.8z"/>
			</g>
			<g class="st82">
				<path class="st85" d="M396.1,799.9l-70.7-181.4c0-0.1-0.1-0.2-0.2-0.2c0,0,0,0-0.1,0c-0.1,0-0.2,0.2-0.1,0.3l70.6,181.2H396.1z"
					/>
			</g>
			<g class="st82">
				<path class="st85" d="M9.6,23.1c0.1,0,0.1,0,0.2,0.1l23.3,20.1c0.1,0.1,0.1,0.2,0,0.3c-0.1,0.1-0.2,0.1-0.3,0L9.4,23.5
					c-0.1-0.1-0.1-0.2,0-0.3C9.5,23.1,9.5,23.1,9.6,23.1z"/>
			</g>
			<g class="st121">
				<path class="st85" d="M909.6,192.8c0.1,0,0.2,0,0.2,0.1c0.1,0.1,0,0.3-0.1,0.3L681.3,311.4c-0.1,0.1-0.3,0-0.3-0.1
					c0-0.1,0-0.3,0.1-0.3l228.4-118.2C909.5,192.8,909.5,192.8,909.6,192.8L909.6,192.8z"/>
			</g>
			<g>
				<path class="st85" d="M909.6,192.8c0.1,0,0.1,0,0.2,0.1c0.1,0.1,0.1,0.3,0,0.3L785.1,293.7c-0.1,0.1-0.3,0.1-0.3,0
					c-0.1-0.1-0.1-0.2,0-0.3l124.6-100.5C909.4,192.9,909.5,192.8,909.6,192.8L909.6,192.8z"/>
			</g>
			<g>
				<path class="st85" d="M87.8,0C87.9,0,88,0,88,0.1c0.1,0.1,0.1,0.2,0,0.3L33.1,43.6c-0.1,0.1-0.2,0.1-0.3-0.1
					c-0.1-0.1-0.1-0.2,0-0.3L87.7,0C87.7,0,87.8,0,87.8,0L87.8,0z"/>
			</g>
			<g class="st78">
				<path class="st85" d="M466.5,799.9l-32.7-147.5c0-0.1-0.1-0.2-0.2-0.2c0,0,0,0,0,0c-0.1,0-0.2,0.2-0.2,0.3L466,799.9
					L466.5,799.9L466.5,799.9z"/>
			</g>
			<g class="st76">
				<path class="st85" d="M1094,306.3L847.4,163.1c0,0-0.1,0-0.1,0c-0.1,0-0.2,0-0.2,0.1c-0.1,0.1,0,0.3,0.1,0.3L1094,306.9V306.3z"
					/>
			</g>
			<g class="st84">
				<path class="st85" d="M401.4,310.9c0.1,0,0.2,0.1,0.2,0.2l95.5,271.7c0,0.1,0,0.3-0.1,0.3c-0.1,0-0.3,0-0.3-0.1l-95.5-271.7
					C401.1,311.1,401.2,311,401.4,310.9C401.4,310.9,401.4,310.9,401.4,310.9L401.4,310.9z"/>
			</g>
			<g>
				<path class="st85" d="M496.9,582.6c0.1,0,0.1,0,0.2,0.1c0.1,0.1,0.1,0.2,0,0.3l-63.4,69.6c-0.1,0.1-0.2,0.1-0.3,0
					c-0.1-0.1-0.1-0.2,0-0.3l63.4-69.6C496.7,582.6,496.8,582.6,496.9,582.6L496.9,582.6z"/>
			</g>
			<g class="st115">
				<path class="st85" d="M560.4,547.9c0.1,0,0.1,0,0.2,0.1c0.1,0.1,0.1,0.3,0,0.3L433.6,652.6c-0.1,0.1-0.2,0.1-0.3,0
					c-0.1-0.1-0.1-0.3,0-0.3l126.9-104.3C560.3,547.9,560.3,547.9,560.4,547.9z"/>
			</g>
			<g class="st125">
				<path class="st85" d="M405.7,799.9l28-147.4c0-0.1-0.1-0.3-0.2-0.3h0c-0.1,0-0.2,0.1-0.2,0.2l-28,147.5H405.7L405.7,799.9z"/>
			</g>
			<g>
				<path class="st85" d="M1094,300.9l-25.6-22.1c0,0-0.1-0.1-0.2-0.1c-0.1,0-0.1,0-0.2,0.1c-0.1,0.1-0.1,0.2,0,0.3l25.9,22.4
					L1094,300.9L1094,300.9z"/>
			</g>
			<g class="st126">
				<path class="st85" d="M1094,308.3l-99.4,59.6c-0.1,0.1-0.2,0.2-0.1,0.3c0.1,0.1,0.2,0.1,0.3,0.1l99.2-59.5V308.3z"/>
			</g>
			<g>
				<path class="st85" d="M560.4,547.9c0.1,0,0.2,0,0.2,0.1c0.1,0.1,0,0.3-0.1,0.3L497,583.1c-0.1,0.1-0.3,0-0.3-0.1
					c-0.1-0.1,0-0.3,0.1-0.3l63.5-34.7C560.3,547.9,560.3,547.9,560.4,547.9L560.4,547.9z"/>
			</g>
			<g class="st104">
				<path class="st85" d="M1068.3,278.7c0.1,0,0.1,0,0.2,0.1c0.1,0.1,0.1,0.2,0,0.3L995,368.3c-0.1,0.1-0.2,0.1-0.3,0
					c-0.1-0.1-0.1-0.2,0-0.3l73.5-89.2C1068.1,278.8,1068.2,278.7,1068.3,278.7z"/>
			</g>
			<g class="st82">
				<path class="st85" d="M12.4,775.8c0,0-0.1,0-0.1,0c-0.1,0-0.2,0-0.2,0.1l-6.8,10.9v0.9l7.3-11.6C12.5,776,12.5,775.9,12.4,775.8
					L12.4,775.8z"/>
			</g>
			<g class="st109">
				<path class="st85" d="M496.9,582.6C496.9,582.6,496.9,582.6,496.9,582.6l194,38.2c0.1,0,0.2,0.2,0.2,0.3s-0.1,0.2-0.3,0.2
					l-194-38.2c-0.1,0-0.2-0.2-0.2-0.3C496.6,582.7,496.7,582.6,496.9,582.6L496.9,582.6z"/>
			</g>
			<g>
				<path class="st85" d="M203.9,499.2C203.9,499.2,204,499.2,203.9,499.2c0.2,0,0.2,0.1,0.2,0.3L189.7,599c0,0.1-0.1,0.2-0.3,0.2
					c-0.1,0-0.2-0.1-0.2-0.3l14.5-99.5C203.7,499.3,203.8,499.2,203.9,499.2L203.9,499.2z"/>
			</g>
			<g class="st127">
				<path class="st85" d="M243.4,799.9l-53.7-201c0-0.1-0.1-0.2-0.2-0.2c0,0-0.1,0-0.1,0c-0.1,0-0.2,0.2-0.2,0.3l53.7,200.8
					L243.4,799.9L243.4,799.9z"/>
			</g>
			<g class="st128">
				<path class="st85" d="M203.9,499.2c0.1,0,0.1,0,0.2,0.1c0.1,0.1,0.1,0.2,0,0.3l-98.3,109.1c-0.1,0.1-0.2,0.1-0.3,0
					c-0.1-0.1-0.1-0.2,0-0.3l98.3-109.1C203.8,499.3,203.9,499.2,203.9,499.2L203.9,499.2z"/>
			</g>
			<g class="st129">
				<path class="st85" d="M417.5,799.9l57.7-136.7c0-0.1,0-0.3-0.1-0.3c0,0-0.1,0-0.1,0c-0.1,0-0.2,0.1-0.2,0.2L417,799.9
					L417.5,799.9L417.5,799.9z"/>
			</g>
			<g class="st83">
				<path class="st85" d="M203.9,499.2L203.9,499.2c0.1,0,0.2,0.1,0.2,0.3L195.8,647c0,0.1-0.1,0.2-0.2,0.2c-0.1,0-0.2-0.1-0.2-0.3
					l8.4-147.5C203.7,499.3,203.8,499.2,203.9,499.2z"/>
			</g>
			<g class="st101">
				<path class="st85" d="M345.6,799.9h0.7L195.7,646.8c0,0-0.1-0.1-0.2-0.1s-0.1,0-0.2,0.1c-0.1,0.1-0.1,0.2,0,0.3L345.6,799.9z"/>
			</g>
			<g>
				<path class="st85" d="M189.5,598.8c0.1,0,0.2,0.1,0.2,0.2c0,0.1-0.1,0.2-0.2,0.3l-83.8,9.6c-0.1,0-0.2-0.1-0.3-0.2
					c0-0.1,0.1-0.2,0.2-0.3L189.5,598.8L189.5,598.8L189.5,598.8z"/>
			</g>
			<g class="st129">
				<path class="st85" d="M690.9,620.8c0.1,0,0.2,0.1,0.2,0.2c0,0.1,0,0.3-0.2,0.3L475,663.4c-0.1,0-0.3-0.1-0.3-0.2
					s0.1-0.3,0.2-0.3L690.9,620.8C690.8,620.8,690.8,620.8,690.9,620.8L690.9,620.8z"/>
			</g>
			<g>
				<path class="st85" d="M189.5,598.8c0.1,0,0.2,0.1,0.2,0.2l6.1,47.9c0,0.1-0.1,0.2-0.2,0.3c-0.1,0-0.2-0.1-0.3-0.2l-6.1-47.9
					C189.2,598.9,189.3,598.8,189.5,598.8L189.5,598.8L189.5,598.8z"/>
			</g>
			<g class="st130">
				<path class="st85" d="M752,342L752,342c0.1,0,0.2,0.1,0.2,0.2l-2.6,248.4c0,0.1-0.1,0.2-0.2,0.2s-0.2-0.1-0.2-0.2l2.6-248.4
					C751.8,342.1,751.9,342,752,342L752,342z"/>
			</g>
			<g class="st76">
				<path class="st85" d="M204,499.3L5.2,444.4v0.5l198.7,54.8c0.1,0,0.3,0,0.3-0.2C204.2,499.4,204.1,499.3,204,499.3L204,499.3z"
					/>
			</g>
			<g class="st79">
				<path class="st85" d="M752,342L752,342l242.8,25.9c0.1,0,0.2,0.1,0.2,0.3s-0.1,0.2-0.3,0.2L752,342.5c-0.1,0-0.2-0.1-0.2-0.3
					C751.8,342.1,751.9,342,752,342L752,342z"/>
			</g>
			<g class="st91">
				<path class="st85" d="M140.9,453.5c0.1,0,0.1,0,0.1,0l63,45.8c0.1,0.1,0.1,0.2,0.1,0.3c-0.1,0.1-0.2,0.1-0.3,0.1l-63-45.8
					c-0.1-0.1-0.1-0.2-0.1-0.3C140.8,453.5,140.9,453.5,140.9,453.5L140.9,453.5z"/>
			</g>
			<g class="st104">
				<path class="st85" d="M124.7,422.5c0.1,0,0.1,0,0.2,0.1l79.3,76.8c0.1,0.1,0.1,0.2,0,0.3c-0.1,0.1-0.2,0.1-0.3,0l-79.3-76.8
					c-0.1-0.1-0.1-0.2,0-0.3C124.5,422.5,124.6,422.5,124.7,422.5L124.7,422.5z"/>
			</g>
			<g class="st125">
				<path class="st85" d="M560.4,547.9c0,0,0.1,0,0.1,0c0.1,0.1,0.2,0.2,0.1,0.3l-46.7,80.7c-0.1,0.1-0.2,0.2-0.3,0.1
					s-0.2-0.2-0.1-0.3l46.7-80.7C560.2,547.9,560.3,547.9,560.4,547.9L560.4,547.9z"/>
			</g>
			<g class="st131">
				<path class="st85" d="M124.7,422.5c0.1,0,0.2,0.1,0.2,0.2L189.7,599c0,0.1,0,0.3-0.1,0.3c-0.1,0-0.3,0-0.3-0.1l-64.8-176.3
					C124.4,422.7,124.5,422.5,124.7,422.5C124.6,422.5,124.6,422.5,124.7,422.5L124.7,422.5z"/>
			</g>
			<g class="st127">
				<path class="st85" d="M195.6,646.7c0.1,0,0.2,0,0.2,0.1c0.1,0.1,0.1,0.3-0.1,0.3l-183.3,129c-0.1,0.1-0.3,0-0.3-0.1
					c-0.1-0.1-0.1-0.3,0.1-0.3l183.3-129C195.4,646.8,195.5,646.7,195.6,646.7L195.6,646.7z"/>
			</g>
			<g class="st97">
				<path class="st85" d="M870.4,471.2c0.1,0,0.1,0,0.2,0.1c0.1,0.1,0.1,0.2,0,0.3l-121,119.3c-0.1,0.1-0.2,0.1-0.3,0
					c-0.1-0.1-0.1-0.2,0-0.3l121-119.3C870.2,471.2,870.3,471.2,870.4,471.2L870.4,471.2z"/>
			</g>
			<g class="st125">
				<path class="st85" d="M690.9,620.8c0.1,0,0.2,0.1,0.2,0.2c0,0.1-0.1,0.2-0.2,0.2l-177.2,7.8c-0.1,0-0.2-0.1-0.2-0.2
					c0-0.1,0.1-0.2,0.2-0.3L690.9,620.8L690.9,620.8L690.9,620.8z"/>
			</g>
			<g class="st96">
				<path class="st85" d="M249.1,799.9l46.2-157c0-0.1,0-0.3-0.2-0.3c0,0,0,0-0.1,0c-0.1,0-0.2,0.1-0.2,0.2l-46.3,157.2L249.1,799.9
					L249.1,799.9z"/>
			</g>
			<g class="st130">
				<path class="st85" d="M640.1,560c0.1,0,0.1,0,0.2,0.1l50.8,60.8c0.1,0.1,0.1,0.3,0,0.3c-0.1,0.1-0.2,0.1-0.3,0l-50.8-60.8
					c-0.1-0.1-0.1-0.2,0-0.3C640,560,640,560,640.1,560L640.1,560z"/>
			</g>
			<g class="st95">
				<path class="st85" d="M994.8,367.9c0.1,0,0.1,0,0.2,0.1c0.1,0.1,0.1,0.3,0,0.3L870.5,471.6c-0.1,0.1-0.2,0.1-0.3,0
					c-0.1-0.1-0.1-0.3,0-0.3L994.6,368C994.6,368,994.7,367.9,994.8,367.9L994.8,367.9z"/>
			</g>
			<g class="st120">
				<path class="st85" d="M295.1,642.6L295.1,642.6L475,662.9c0.1,0,0.2,0.1,0.2,0.3s-0.1,0.2-0.3,0.2l-179.9-20.3
					c-0.1,0-0.2-0.1-0.2-0.3C294.9,642.7,295,642.6,295.1,642.6L295.1,642.6z"/>
			</g>
			<g class="st132">
				<path class="st85" d="M1094,300.4l-99.4,67.5c-0.1,0.1-0.1,0.2-0.1,0.3c0.1,0.1,0.2,0.1,0.3,0.1L1094,301L1094,300.4L1094,300.4
					z"/>
			</g>
			<g>
				<path class="st85" d="M752,342c0.1,0,0.1,0,0.2,0.1l118.4,129.1c0.1,0.1,0.1,0.2,0,0.3c-0.1,0.1-0.2,0.1-0.3,0L751.8,342.4
					c-0.1-0.1-0.1-0.2,0-0.3C751.9,342,751.9,342,752,342L752,342z"/>
			</g>
			<g>
				<path class="st85" d="M425.2,609.8c0.1,0,0.1,0,0.2,0.1l49.7,53.1c0.1,0.1,0.1,0.2,0,0.3c-0.1,0.1-0.2,0.1-0.3,0l-49.7-53.1
					c-0.1-0.1-0.1-0.3,0-0.3C425.1,609.8,425.2,609.8,425.2,609.8L425.2,609.8z"/>
			</g>
			<g class="st99">
				<path class="st133" d="M236.5,799.9h0.6l-65.5-73.2c0,0-0.1-0.1-0.2-0.1s-0.1,0-0.2,0.1c-0.1,0.1-0.1,0.2,0,0.3L236.5,799.9
					L236.5,799.9z"/>
			</g>
			<g>
				<path class="st133" d="M402.3,632.6C402.3,632.6,402.4,632.6,402.3,632.6l72.8,30.4c0.1,0,0.2,0.2,0.1,0.3
					c0,0.1-0.2,0.2-0.3,0.1L402.2,633c-0.1,0-0.2-0.2-0.1-0.3C402.1,632.6,402.2,632.6,402.3,632.6z"/>
			</g>
			<g>
				<path class="st133" d="M140.9,453.5C140.9,453.5,141,453.5,140.9,453.5c0.2,0,0.3,0.2,0.2,0.3l-35.3,154.9
					c0,0.1-0.2,0.2-0.3,0.2c-0.1,0-0.2-0.2-0.2-0.3l35.3-154.9C140.7,453.6,140.8,453.5,140.9,453.5z"/>
			</g>
			<g class="st125">
				<path class="st133" d="M195.7,646.8L5.2,446.7v0.7l190.2,199.8c0.1,0.1,0.2,0.1,0.3,0C195.8,647,195.8,646.9,195.7,646.8
					L195.7,646.8z"/>
			</g>
			<g>
				<path class="st133" d="M295.1,642.6c0.1,0,0.2,0.1,0.2,0.2c0,0.1-0.1,0.2-0.2,0.2l-99.6,4.1c-0.1,0-0.2-0.1-0.2-0.2
					c0-0.1,0.1-0.2,0.2-0.3L295.1,642.6L295.1,642.6L295.1,642.6z"/>
			</g>
			<g class="st134">
				<path class="st133" d="M140.9,453.5c0.1,0,0.2,0.1,0.2,0.2l54.6,193.2c0,0.1,0,0.3-0.2,0.3c-0.1,0-0.3,0-0.3-0.2l-54.6-193.2
					C140.7,453.7,140.7,453.6,140.9,453.5C140.9,453.5,140.9,453.5,140.9,453.5L140.9,453.5z"/>
			</g>
			<g class="st79">
				<path class="st133" d="M124.7,422.5c0.1,0,0.2,0.1,0.2,0.2l70.9,224.3c0,0.1,0,0.3-0.2,0.3c-0.1,0-0.3,0-0.3-0.2l-70.9-224.3
					C124.4,422.6,124.5,422.5,124.7,422.5C124.6,422.5,124.6,422.5,124.7,422.5z"/>
			</g>
			<g class="st135">
				<path class="st133" d="M124.8,422.5l-119.6-70v0.6l119.3,69.9c0.1,0.1,0.3,0,0.3-0.1C124.9,422.7,124.9,422.6,124.8,422.5
					L124.8,422.5z"/>
			</g>
			<g class="st136">
				<path class="st133" d="M475,662.9C475,662.9,475,662.9,475,662.9c0.2,0,0.3,0.2,0.2,0.3l-26.6,116.1c0,0.1-0.2,0.2-0.3,0.2
					s-0.2-0.2-0.2-0.3l26.6-116.1C474.8,663,474.9,662.9,475,662.9L475,662.9z"/>
			</g>
			<g class="st118">
				<path class="st133" d="M140.9,453.5c0.1,0,0.1,0,0.2,0.1l154.2,189.1c0.1,0.1,0.1,0.3,0,0.3c-0.1,0.1-0.2,0.1-0.3,0L140.7,453.9
					c-0.1-0.1-0.1-0.3,0-0.3C140.8,453.5,140.9,453.5,140.9,453.5L140.9,453.5z"/>
			</g>
			<g>
				<path class="st133" d="M124.7,422.5L124.7,422.5L5.2,443.1v0.5l119.5-20.6c0.1,0,0.2-0.1,0.2-0.3
					C124.9,422.5,124.8,422.5,124.7,422.5L124.7,422.5z"/>
			</g>
			<g>
				<path class="st133" d="M402.3,632.6c0.1,0,0.2,0.1,0.2,0.2c0,0.1-0.1,0.3-0.2,0.3l-107.2,10c-0.1,0-0.2-0.1-0.3-0.2
					c0-0.1,0.1-0.2,0.2-0.3L402.3,632.6L402.3,632.6z"/>
			</g>
			<g>
				<path class="st133" d="M816.7,379.5c0.1,0,0.2,0,0.2,0.1l53.7,91.6c0.1,0.1,0,0.3-0.1,0.3c-0.1,0.1-0.3,0-0.3-0.1l-53.7-91.7
					c-0.1-0.1,0-0.3,0.1-0.3C816.7,379.5,816.7,379.5,816.7,379.5L816.7,379.5z"/>
			</g>
			<g>
				<path class="st133" d="M124.7,422.5c0.1,0,0.2,0,0.2,0.1l16.3,31c0.1,0.1,0,0.3-0.1,0.3c-0.1,0.1-0.3,0-0.3-0.1l-16.3-31
					c-0.1-0.1,0-0.3,0.1-0.3C124.6,422.5,124.6,422.5,124.7,422.5L124.7,422.5z"/>
			</g>
			<g class="st137">
				<path class="st133" d="M840.4,55.8C840.4,55.8,840.4,55.8,840.4,55.8c0.2,0,0.3,0.2,0.2,0.3l-88.4,286.2c0,0.1-0.2,0.2-0.3,0.2
					c-0.1,0-0.2-0.2-0.2-0.3L840.1,56C840.2,55.9,840.3,55.8,840.4,55.8L840.4,55.8z"/>
			</g>
			<g>
				<path class="st133" d="M475.2,541.2c0,0,0.1,0,0.1,0c0.1,0.1,0.1,0.2,0,0.3l-50,68.6c-0.1,0.1-0.2,0.1-0.3,0
					c-0.1-0.1-0.1-0.2,0-0.3l50-68.6C475.1,541.2,475.2,541.2,475.2,541.2L475.2,541.2z"/>
			</g>
			<g>
				<path class="st133" d="M109.8,707.7C109.8,707.7,109.9,707.7,109.8,707.7l61.7,19c0.1,0,0.2,0.2,0.2,0.3c0,0.1-0.2,0.2-0.3,0.2
					l-61.6-19c-0.1,0-0.2-0.2-0.2-0.3C109.7,707.8,109.7,707.7,109.8,707.7L109.8,707.7z"/>
			</g>
			<g class="st110">
				<path class="st133" d="M475.2,541.2C475.2,541.2,475.3,541.2,475.2,541.2L682.6,588c0.1,0,0.2,0.2,0.2,0.3s-0.2,0.2-0.3,0.2
					l-207.3-46.8c-0.1,0-0.2-0.2-0.2-0.3C475,541.3,475.1,541.2,475.2,541.2L475.2,541.2z"/>
			</g>
			<g>
				<path class="st133" d="M640.1,560c0,0,0.1,0,0.1,0l42.4,28c0.1,0.1,0.1,0.2,0.1,0.3c-0.1,0.1-0.2,0.1-0.3,0.1l-42.4-28
					c-0.1-0.1-0.2-0.2-0.1-0.3C639.9,560,640,560,640.1,560L640.1,560z"/>
			</g>
			<g>
				<path class="st133" d="M425.2,609.8c0.1,0,0.1,0,0.2,0.1l106.7,110c0.1,0.1,0.1,0.2,0,0.3s-0.2,0.1-0.3,0l-106.7-110
					c-0.1-0.1-0.1-0.2,0-0.3C425.1,609.8,425.2,609.8,425.2,609.8L425.2,609.8z"/>
			</g>
			<g>
				<path class="st133" d="M640.1,560c0,0,0.1,0,0.1,0c0.1,0.1,0.1,0.2,0.1,0.3L532.2,720.2c-0.1,0.1-0.2,0.1-0.3,0.1
					c-0.1-0.1-0.1-0.2-0.1-0.3l108.1-159.8C639.9,560,640,560,640.1,560L640.1,560z"/>
			</g>
			<g class="st101">
				<path class="st133" d="M144.2,365.6l-139-42.8v0.5l138.9,42.8c0.1,0,0.3,0,0.3-0.2C144.4,365.8,144.3,365.7,144.2,365.6z"/>
			</g>
			<g>
				<path class="st133" d="M402.3,632.6c0.1,0,0.2,0.1,0.2,0.2l46,146.4c0,0.1,0,0.3-0.2,0.3c-0.1,0-0.3,0-0.3-0.2l-46-146.4
					C402,632.8,402.1,632.6,402.3,632.6C402.3,632.6,402.3,632.6,402.3,632.6L402.3,632.6z"/>
			</g>
			<g>
				<path class="st133" d="M513.7,628.6C513.7,628.6,513.8,628.6,513.7,628.6c0.2,0.1,0.3,0.2,0.2,0.3l-65.4,150.4
					c-0.1,0.1-0.2,0.2-0.3,0.1c-0.1,0-0.2-0.2-0.1-0.3l65.4-150.4C513.5,628.6,513.6,628.6,513.7,628.6L513.7,628.6z"/>
			</g>
			<g class="st138">
				<path class="st133" d="M475.2,541.2L475.2,541.2c0.2,0,0.2,0.1,0.2,0.3l-26.9,237.8c0,0.1-0.1,0.2-0.3,0.2
					c-0.1,0-0.2-0.1-0.2-0.3L475,541.4C475,541.3,475.1,541.2,475.2,541.2L475.2,541.2z"/>
			</g>
			<g class="st126">
				<path class="st133" d="M40.9,473.1L5.2,427.2v0.8l35.3,45.4c0.1,0.1,0.2,0.1,0.3,0C41,473.3,41,473.2,40.9,473.1L40.9,473.1z"/>
			</g>
			<g>
				<path class="st133" d="M732.5,509.4c0,0,0.1,0,0.1,0c0.1,0.1,0.1,0.2,0.1,0.3l-49.9,78.5c-0.1,0.1-0.2,0.1-0.3,0.1
					c-0.1-0.1-0.1-0.2-0.1-0.3l49.9-78.5C732.3,509.5,732.4,509.4,732.5,509.4L732.5,509.4z"/>
			</g>
			<g class="st139">
				<path class="st133" d="M316.2,388c0.1,0,0.2,0.1,0.2,0.2c0,0.1-0.1,0.3-0.2,0.3l-191.5,34.5c-0.1,0-0.3-0.1-0.3-0.2
					c0-0.1,0.1-0.3,0.2-0.3L316.2,388C316.1,388,316.2,388,316.2,388z"/>
			</g>
			<g>
				<path class="st133" d="M870.4,471.2C870.4,471.2,870.4,471.2,870.4,471.2c0.2,0,0.3,0.2,0.2,0.3l-30.1,119.2
					c0,0.1-0.2,0.2-0.3,0.2c-0.1,0-0.2-0.2-0.2-0.3l30.1-119.2C870.2,471.3,870.3,471.2,870.4,471.2L870.4,471.2z"/>
			</g>
			<g>
				<path class="st133" d="M816.7,379.5c0,0,0.1,0,0.1,0c0.1,0.1,0.1,0.2,0.1,0.3l-84.3,129.9c-0.1,0.1-0.2,0.1-0.3,0.1
					c-0.1-0.1-0.1-0.2-0.1-0.3l84.3-129.9C816.6,379.5,816.7,379.5,816.7,379.5L816.7,379.5z"/>
			</g>
			<g>
				<path class="st133" d="M532,719.8c0.1,0,0.1,0,0.2,0.1c0.1,0.1,0,0.3-0.1,0.3l-83.6,59.2c-0.1,0.1-0.2,0-0.3-0.1
					c-0.1-0.1,0-0.3,0-0.3l83.6-59.2C531.9,719.8,531.9,719.8,532,719.8z"/>
			</g>
			<g class="st118">
				<path class="st133" d="M316.2,388c0.1,0,0.1,0,0.2,0.1l159,153.2c0.1,0.1,0.1,0.2,0,0.3c-0.1,0.1-0.2,0.1-0.3,0L316,388.4
					c-0.1-0.1-0.1-0.2,0-0.3C316,388,316.1,388,316.2,388L316.2,388z"/>
			</g>
			<g class="st101">
				<path class="st133" d="M840.4,55.8L840.4,55.8c0.1,0,0.2,0.1,0.2,0.2L817,379.8c0,0.1-0.1,0.2-0.2,0.2h0c-0.1,0-0.2-0.1-0.2-0.2
					L840.1,56C840.1,55.9,840.2,55.8,840.4,55.8L840.4,55.8z"/>
			</g>
			<g class="st76">
				<path class="st133" d="M60.6,345L5.2,326.2v0.5l55.2,18.8c0.1,0,0.3,0,0.3-0.2C60.8,345.2,60.7,345,60.6,345L60.6,345z"/>
			</g>
			<g>
				<path class="st133" d="M682.5,588L682.5,588l157.8,2.4c0.1,0,0.2,0.1,0.2,0.2s-0.1,0.2-0.2,0.2l0,0l-157.8-2.4
					c-0.1,0-0.2-0.1-0.2-0.2S682.4,588,682.5,588L682.5,588z"/>
			</g>
			<g>
				<path class="st133" d="M732.5,509.4c0.1,0,0.2,0,0.2,0.1c0.1,0.1,0,0.3-0.1,0.3l-92.3,50.5c-0.1,0.1-0.3,0-0.3-0.1
					c-0.1-0.1,0-0.3,0.1-0.3l92.4-50.5C732.3,509.5,732.4,509.4,732.5,509.4L732.5,509.4z"/>
			</g>
			<g>
				<path class="st133" d="M791.2,321.6c0.1,0,0.2,0,0.2,0.1l25.5,57.9c0,0.1,0,0.3-0.1,0.3c-0.1,0-0.3,0-0.3-0.1L791,321.9
					c0-0.1,0-0.3,0.1-0.3C791.1,321.6,791.1,321.6,791.2,321.6L791.2,321.6z"/>
			</g>
			<g>
				<path class="st133" d="M124.7,422.5c0.1,0,0.2,0,0.2,0.1c0.1,0.1,0,0.3-0.1,0.3l-84,50.6c-0.1,0.1-0.3,0-0.3-0.1
					c-0.1-0.1,0-0.3,0.1-0.3l83.9-50.5C124.5,422.5,124.6,422.5,124.7,422.5L124.7,422.5z"/>
			</g>
			<g class="st134">
				<path class="st133" d="M640.1,560L640.1,560l200.2,30.4c0.1,0,0.2,0.1,0.2,0.3c0,0.1-0.1,0.2-0.3,0.2l-200.2-30.4
					c-0.1,0-0.2-0.1-0.2-0.3C639.9,560.1,640,560,640.1,560L640.1,560z"/>
			</g>
			<g class="st100">
				<path class="st133" d="M736.3,354.6c0.1,0,0.2,0,0.2,0.1l104,235.8c0,0.1,0,0.3-0.1,0.3c-0.1,0-0.3,0-0.3-0.1L736,354.9
					C736,354.8,736,354.7,736.3,354.6C736.2,354.6,736.2,354.6,736.3,354.6L736.3,354.6z"/>
			</g>
			<g class="st93">
				<path class="st133" d="M413.6,311.5c0.1,0,0.2,0.1,0.2,0.2l61.6,229.7c0,0.1,0,0.3-0.2,0.3s-0.3,0-0.3-0.2l-61.6-229.7
					C413.3,311.7,413.4,311.6,413.6,311.5C413.6,311.5,413.6,311.5,413.6,311.5L413.6,311.5z"/>
			</g>
			<g class="st116">
				<path class="st133" d="M60.5,345c0.1,0,0.1,0,0.2,0.1l80.4,108.5c0.1,0.1,0.1,0.3,0,0.3c-0.1,0.1-0.3,0-0.3,0L60.3,345.4
					c-0.1-0.1,0-0.3,0-0.3C60.4,345,60.5,345,60.5,345L60.5,345z"/>
			</g>
			<g class="st99">
				<path class="st133" d="M816.7,379.5c0.1,0,0.2,0.1,0.2,0.2l28.9,137c0,0.1,0,0.3-0.2,0.3c-0.1,0-0.3,0-0.3-0.2l-28.9-137
					C816.5,379.7,816.6,379.6,816.7,379.5C816.7,379.5,816.7,379.5,816.7,379.5L816.7,379.5z"/>
			</g>
			<g class="st91">
				<path class="st133" d="M545.6,369.3C545.6,369.3,545.6,369.3,545.6,369.3c0.2,0.1,0.3,0.2,0.2,0.3l-70.4,171.9
					c0,0.1-0.2,0.2-0.3,0.1c-0.1,0-0.2-0.2-0.1-0.3l70.4-171.9C545.4,369.4,545.5,369.3,545.6,369.3z"/>
			</g>
			<g class="st103">
				<path class="st133" d="M736.3,354.6c0.1,0,0.2,0.1,0.2,0.2s-0.1,0.2-0.2,0.3l-190.7,14.7c-0.1,0-0.2-0.1-0.2-0.2
					s0.1-0.2,0.2-0.3L736.3,354.6L736.3,354.6L736.3,354.6z"/>
			</g>
			<g class="st107">
				<path class="st133" d="M475.2,541.2c0.1,0,0.2,0.1,0.2,0.2l3.2,175c0,0.1-0.1,0.2-0.2,0.2h0c-0.1,0-0.2-0.1-0.2-0.2l-3.2-175
					C475,541.3,475.1,541.2,475.2,541.2L475.2,541.2z"/>
			</g>
			<g>
				<path class="st133" d="M103.9,700.6C103.9,700.6,103.9,700.6,103.9,700.6l67.7,26c0.1,0,0.2,0.2,0.1,0.3
					c-0.1,0.1-0.2,0.2-0.3,0.1l-67.6-26c-0.1,0-0.2-0.2-0.1-0.3C103.7,700.7,103.8,700.6,103.9,700.6L103.9,700.6z"/>
			</g>
			<g>
				<path class="st133" d="M144.1,365.6C144.1,365.6,144.2,365.6,144.1,365.6L316.2,388c0.1,0,0.2,0.1,0.2,0.3
					c0,0.1-0.1,0.2-0.3,0.2l-172-22.4c-0.1,0-0.2-0.1-0.2-0.3C143.9,365.7,144,365.6,144.1,365.6L144.1,365.6z"/>
			</g>
			<g>
				<path class="st133" d="M732.5,509.4c0,0,0.1,0,0.1,0l107.9,81c0.1,0.1,0.1,0.2,0,0.3c-0.1,0.1-0.2,0.1-0.3,0l-107.8-81
					c-0.1-0.1-0.1-0.2,0-0.3C732.3,509.5,732.4,509.4,732.5,509.4L732.5,509.4z"/>
			</g>
			<g class="st87">
				<path class="st133" d="M840.4,55.8L840.4,55.8c0.2,0,0.3,0.1,0.2,0.3l-49.2,265.8c0,0.1-0.1,0.2-0.3,0.2c-0.1,0-0.2-0.2-0.2-0.3
					L840.1,56C840.1,55.9,840.2,55.8,840.4,55.8L840.4,55.8z"/>
			</g>
			<g class="st102">
				<path class="st133" d="M1094,231.4l-5.3,1.5c-0.1,0-0.2,0.2-0.2,0.3c0,0.1,0.2,0.2,0.3,0.2l5.2-1.4L1094,231.4L1094,231.4z"/>
			</g>
			<g class="st140">
				<path class="st133" d="M402.3,632.6c0,0,0.1,0,0.1,0l172.7,123.9c0.1,0.1,0.1,0.2,0,0.3c-0.1,0.1-0.2,0.1-0.3,0.1L402.2,633
					c-0.1-0.1-0.1-0.2,0-0.3C402.2,632.6,402.2,632.6,402.3,632.6L402.3,632.6z"/>
			</g>
			<g class="st113">
				<path class="st133" d="M513.7,628.6c0.1,0,0.2,0,0.2,0.1l61.3,127.9c0.1,0.1,0,0.3-0.1,0.3s-0.3,0-0.3-0.1l-61.3-127.9
					C513.4,628.8,513.5,628.7,513.7,628.6C513.6,628.6,513.7,628.6,513.7,628.6L513.7,628.6z"/>
			</g>
			<g class="st141">
				<path class="st133" d="M60.5,345C60.5,345,60.5,345,60.5,345l255.7,43c0.1,0,0.2,0.1,0.2,0.3c0,0.1-0.1,0.2-0.3,0.2l-255.7-43
					c-0.1,0-0.2-0.1-0.2-0.3C60.3,345.1,60.4,345,60.5,345L60.5,345z"/>
			</g>
			<g class="st94">
				<path class="st133" d="M545.6,369.3c0,0,0.1,0,0.2,0l186.9,140.1c0.1,0.1,0.1,0.2,0,0.3c-0.1,0.1-0.2,0.1-0.3,0L545.4,369.7
					c-0.1-0.1-0.1-0.2,0-0.3C545.4,369.3,545.5,369.3,545.6,369.3L545.6,369.3z"/>
			</g>
			<g>
				<path class="st133" d="M845.7,516.5L845.7,516.5c0.2,0,0.2,0.1,0.2,0.3l-5.4,73.9c0,0.1-0.1,0.2-0.3,0.2c-0.1,0-0.2-0.1-0.2-0.3
					l5.4-73.9C845.4,516.6,845.5,516.5,845.7,516.5L845.7,516.5z"/>
			</g>
			<g>
				<path class="st133" d="M60.5,345C60.5,345,60.5,345,60.5,345c0.2,0,0.2,0.1,0.2,0.3l-19.8,128c0,0.1-0.1,0.2-0.3,0.2
					c-0.1,0-0.2-0.1-0.2-0.3l19.8-128C60.3,345.1,60.4,345,60.5,345L60.5,345z"/>
			</g>
			<g class="st132">
				<path class="st133" d="M413.6,311.5c0.1,0,0.2,0.1,0.2,0.2c0,0.1-0.1,0.2-0.2,0.3L60.5,345.5c-0.1,0-0.2-0.1-0.2-0.2
					s0.1-0.2,0.2-0.3L413.6,311.5L413.6,311.5z"/>
			</g>
			<g class="st142">
				<path class="st133" d="M1094,404.7l-8.8,7.4c-0.1,0.1-0.1,0.2,0,0.3c0.1,0.1,0.2,0.1,0.3,0l8.5-7.1V404.7L1094,404.7z"/>
			</g>
			<g>
				<path class="st133" d="M413.6,311.5c0,0,0.1,0,0.1,0l132,57.8c0.1,0,0.2,0.2,0.1,0.3c0,0.1-0.2,0.2-0.3,0.1l-132-57.8
					c-0.1,0-0.2-0.2-0.1-0.3C413.4,311.5,413.5,311.5,413.6,311.5L413.6,311.5z"/>
			</g>
			<g class="st118">
				<path class="st133" d="M575,756.5c0.1,0,0.2,0.1,0.2,0.2c0,0.1-0.1,0.3-0.2,0.3l-126.6,22.5c-0.1,0-0.2-0.1-0.3-0.2
					s0.1-0.3,0.2-0.3L575,756.5C574.9,756.5,575,756.5,575,756.5L575,756.5z"/>
			</g>
			<g class="st126">
				<path class="st133" d="M1094,229.6l-5.4,3.3c-0.1,0.1-0.2,0.2-0.1,0.3c0.1,0.1,0.2,0.2,0.3,0.1l5.1-3.1V229.6L1094,229.6z"/>
			</g>
			<g class="st143">
				<path class="st133" d="M810.3,311.3C810.3,311.3,810.3,311.3,810.3,311.3c0.2,0.1,0.3,0.2,0.2,0.3l-77.8,198.2
					c0,0.1-0.2,0.2-0.3,0.1c-0.1,0-0.2-0.2-0.1-0.3l77.8-198.1C810.1,311.4,810.2,311.3,810.3,311.3L810.3,311.3z"/>
			</g>
			<g>
				<path class="st133" d="M810.3,311.3c0.1,0,0.2,0,0.2,0.1c0.1,0.1,0,0.3-0.1,0.3L791.3,322c-0.1,0.1-0.3,0-0.3-0.1
					c-0.1-0.1,0-0.3,0.1-0.3l19.1-10.3C810.2,311.3,810.2,311.3,810.3,311.3L810.3,311.3z"/>
			</g>
			<g class="st134">
				<path class="st133" d="M5.2,582.2L41,473.3c0-0.1,0-0.3-0.2-0.3c0,0,0,0-0.1,0c-0.1,0-0.2,0.1-0.2,0.2L5.2,580.7L5.2,582.2
					L5.2,582.2z"/>
			</g>
			<g class="st117">
				<path class="st133" d="M840.3,590.4c0.1,0,0.2,0,0.2,0.1c0.1,0.1,0,0.3-0.1,0.3L575.1,756.9c-0.1,0.1-0.3,0-0.3-0.1
					c-0.1-0.1,0-0.3,0.1-0.3l265.3-166.1C840.2,590.4,840.3,590.4,840.3,590.4L840.3,590.4z"/>
			</g>
			<g class="st0">
				<path class="st133" d="M1094,307.1L845.5,516.6c-0.1,0.1-0.1,0.2,0,0.3c0.1,0.1,0.2,0.1,0.3,0L1094,307.8V307.1L1094,307.1z"/>
			</g>
			<g class="st129">
				<path class="st133" d="M1094,232.7l-5.2,0.2c-0.1,0-0.2,0.1-0.2,0.2c0,0.1,0.1,0.2,0.2,0.2l5.2-0.2V232.7z"/>
			</g>
			<g class="st122">
				<path class="st144" d="M413.6,311.5c0.1,0,0.2,0.1,0.2,0.2c0,0.1,0,0.3-0.2,0.3L93.1,401.3c-0.1,0-0.3,0-0.3-0.2
					c0-0.1,0-0.3,0.2-0.3L413.6,311.5C413.6,311.5,413.6,311.5,413.6,311.5L413.6,311.5z"/>
			</g>
			<g class="st132">
				<path class="st144" d="M60.6,345L5.2,326.2v0.5l55.2,18.7c0.1,0,0.3,0,0.3-0.2C60.8,345.2,60.7,345,60.6,345L60.6,345z"/>
			</g>
			<g>
				<path class="st144" d="M103.9,700.6L5.2,677.6v0.5l98.6,23c0.1,0,0.3,0,0.3-0.2C104.1,700.8,104,700.7,103.9,700.6L103.9,700.6z
					"/>
			</g>
			<g class="st145">
				<path class="st144" d="M1094,422.2l-8.5-10.1c-0.1-0.1-0.1-0.1-0.2-0.1c-0.1,0-0.1,0-0.2,0c-0.1,0.1-0.1,0.2,0,0.3l8.9,10.5
					L1094,422.2L1094,422.2z"/>
			</g>
			<g>
				<path class="st144" d="M60.5,345c0.1,0,0.2,0,0.2,0.1l32.5,55.8c0.1,0.1,0,0.3-0.1,0.3s-0.3,0-0.3-0.1l-32.5-55.8
					c-0.1-0.1,0-0.3,0.1-0.3C60.4,345,60.5,345,60.5,345L60.5,345z"/>
			</g>
			<g class="st131">
				<path class="st144" d="M93,400.8c0.1,0,0.2,0.1,0.2,0.2l10.9,299.8c0,0.1-0.1,0.2-0.2,0.3h0c-0.1,0-0.2-0.1-0.2-0.2L92.8,401.1
					C92.8,401,92.9,400.8,93,400.8L93,400.8L93,400.8z"/>
			</g>
			<g>
				<path class="st144" d="M1094,282.2l-5-49.2c0-0.1-0.1-0.2-0.2-0.2h0c-0.1,0-0.2,0.1-0.2,0.3l5.5,53.9L1094,282.2L1094,282.2z"/>
			</g>
			<g>
				<path class="st144" d="M650.1,598.3c0.1,0,0.2,0,0.2,0.1c0.1,0.1,0,0.3-0.1,0.3l-171.6,118c-0.1,0.1-0.3,0-0.3-0.1
					c-0.1-0.1,0-0.3,0.1-0.3l171.7-118C650,598.3,650.1,598.2,650.1,598.3L650.1,598.3z"/>
			</g>
			<g>
				<path class="st144" d="M478.4,716.2C478.4,716.2,478.5,716.2,478.4,716.2l96.6,40.3c0.1,0,0.2,0.2,0.1,0.3
					c0,0.1-0.2,0.2-0.3,0.1l-96.5-40.2c-0.1,0-0.2-0.2-0.1-0.3C478.2,716.3,478.3,716.2,478.4,716.2L478.4,716.2z"/>
			</g>
			<g class="st146">
				<path class="st144" d="M144.1,365.6c0,0,0.1,0,0.1,0c0.1,0.1,0.2,0.2,0.1,0.3L74.1,495.5c-0.1,0.1-0.2,0.2-0.3,0.1
					c-0.1-0.1-0.2-0.2-0.1-0.3l70.2-129.5C144,365.7,144.1,365.6,144.1,365.6L144.1,365.6z"/>
			</g>
			<g class="st142">
				<path class="st144" d="M104,700.7L5.2,600v0.7L103.7,701c0.1,0.1,0.2,0.1,0.3,0C104.1,701,104.1,700.8,104,700.7L104,700.7z"/>
			</g>
			<g class="st147">
				<path class="st144" d="M793.7,328.5C793.7,328.5,793.7,328.5,793.7,328.5c0.2,0.1,0.3,0.2,0.2,0.3l-61.2,180.9
					c0,0.1-0.2,0.2-0.3,0.1c-0.1,0-0.2-0.2-0.2-0.3l61.2-180.9C793.5,328.6,793.6,328.5,793.7,328.5L793.7,328.5z"/>
			</g>
			<g class="st138">
				<path class="st144" d="M40.7,473c0,0,0.1,0,0.1,0l33.2,22.1c0.1,0.1,0.1,0.2,0.1,0.3c-0.1,0.1-0.2,0.1-0.3,0.1l-33.2-22.1
					c-0.1-0.1-0.1-0.2-0.1-0.3C40.5,473,40.6,473,40.7,473L40.7,473z"/>
			</g>
			<g class="st148">
				<path class="st144" d="M840.3,590.4c0.1,0,0.2,0,0.2,0.1l113.1,200.3c0.1,0.1,0,0.3-0.1,0.3c-0.1,0.1-0.3,0-0.3-0.1L840.1,590.8
					c-0.1-0.1,0-0.3,0.1-0.3C840.2,590.4,840.3,590.4,840.3,590.4L840.3,590.4z"/>
			</g>
			<g class="st82">
				<path class="st144" d="M73.9,495.1c0.1,0,0.2,0.1,0.2,0.2l30,205.5c0,0.1-0.1,0.2-0.2,0.3c-0.2,0-0.2-0.1-0.3-0.2L73.7,495.4
					C73.7,495.3,73.8,495.2,73.9,495.1C73.9,495.1,73.9,495.1,73.9,495.1L73.9,495.1z"/>
			</g>
			<g class="st0">
				<path class="st144" d="M60.5,345c0.1,0,0.2,0.1,0.2,0.2l43.3,219.2c0,0.1-0.1,0.3-0.2,0.3c-0.1,0-0.3-0.1-0.3-0.2L60.3,345.3
					C60.3,345.1,60.3,345,60.5,345C60.5,345,60.5,345,60.5,345z"/>
			</g>
			<g>
				<path class="st144" d="M93.2,400.9c-0.1-0.1-0.1-0.1-0.2-0.1c0,0-0.1,0-0.1,0L5.2,452.3v0.6l87.9-51.5
					C93.2,401.2,93.3,401.1,93.2,400.9L93.2,400.9z"/>
			</g>
			<g class="st83">
				<path class="st144" d="M104,564.3c-0.1-0.1-0.1-0.1-0.2-0.1c-0.1,0-0.1,0-0.2,0l-98.5,82v0.6l98.8-82.2
					C104.1,564.5,104.1,564.4,104,564.3L104,564.3z"/>
			</g>
			<g>
				<path class="st144" d="M810.3,311.3c0.1,0,0.1,0,0.2,0.1c0.1,0.1,0.1,0.2,0,0.3L793.9,329c-0.1,0.1-0.2,0.1-0.3,0
					c-0.1-0.1-0.1-0.2,0-0.3l16.6-17.3C810.2,311.3,810.2,311.3,810.3,311.3L810.3,311.3z"/>
			</g>
			<g>
				<path class="st144" d="M103.9,564.2l-98.7-30v0.5l98.6,29.9c0.1,0,0.3,0,0.3-0.2C104.1,564.4,104,564.2,103.9,564.2L103.9,564.2
					z"/>
			</g>
			<g>
				<path class="st144" d="M93,400.8l-87.8-4.7v0.5l87.8,4.7h0c0.1,0,0.2-0.1,0.2-0.2C93.3,401,93.2,400.8,93,400.8L93,400.8z"/>
			</g>
			<g>
				<path class="st144" d="M73.9,495.1c0.1,0,0.2,0.1,0.2,0.1l29.9,69.1c0.1,0.1,0,0.3-0.1,0.3c-0.1,0.1-0.3,0-0.3-0.1l-29.9-69.1
					C73.7,495.3,73.7,495.2,73.9,495.1C73.9,495.1,73.9,495.1,73.9,495.1L73.9,495.1z"/>
			</g>
			<g>
				<path class="st144" d="M74.1,495.2L5.2,398.4v0.8l68.5,96.3c0.1,0.1,0.2,0.1,0.3,0C74.2,495.5,74.2,495.3,74.1,495.2L74.1,495.2
					z"/>
			</g>
			<g class="st132">
				<path class="st144" d="M74,495.1L5.2,464.8v0.5l68.6,30.3c0.1,0.1,0.3,0,0.3-0.1C74.2,495.3,74.1,495.2,74,495.1z"/>
			</g>
			<g class="st105">
				<path class="st144" d="M180.6,355.1C180.6,355.1,180.6,355.1,180.6,355.1c0.2,0.1,0.3,0.2,0.2,0.3L104,564.5
					c0,0.1-0.2,0.2-0.3,0.2c-0.1,0-0.2-0.2-0.1-0.3l76.8-209.1C180.4,355.2,180.5,355.1,180.6,355.1L180.6,355.1z"/>
			</g>
		</g>
	</g>
</g>
</svg>
