<?xml version="1.0" encoding="UTF-8"?>
<svg id="Layer_1" data-name="Layer 1" xmlns="http://www.w3.org/2000/svg" viewBox="0 0 156.94 31.87">
  <defs>
    <style>
      .cls-1 {
        fill: #1f4265;
      }

      .cls-2 {
        fill: #de2127;
      }
    </style>
  </defs>
  <path class="cls-2" d="M12.93,1.57c3.68-.33,7.12.44,10.16,2.55,3.36,2.33,7.65,7.43,2.83,10.7l-18.8,7.68c-1.36.89-.34,1.72.49,2.47,2.93,2.64,6.95,3.2,10.66,1.95,2.31-.78,4.56-3.46,7.15-2.23.13.06.79.49.83.57.11.18-.15.44-.25.57-5.4,7.06-16.92,6.71-22.57.07C-4.05,17.07,1.4,2.59,12.93,1.57ZM13.4,5.17c-5.97.61-10.35,6.3-9.83,12.22.07.78.18,2.13,1.2,2.06l18.83-7.55c1.42-.6.46-1.83-.2-2.63-2.48-3.01-6.11-4.49-10-4.1Z"/>
  <path class="cls-2" d="M142.85,1.68c4.06-.39,8.79.3,11.74,3.3.06.37-1.37,1.17-1.73,1.27-1.74.48-2.42-.28-3.93-.73-2.48-.74-6.59-.83-8.68.9-2.49,2.05-2.2,4.61.49,6.26,3.28,2.01,7.34,1.25,10.91,2.8,7.55,3.28,6.93,13.07-1.31,15.13-5.6,1.4-13.19-.28-16.41-5.42.66-.87,2.01-1.1,3.06-.96,1.22.16,2.07,1.21,3.12,1.76,2.68,1.39,6.74,1.8,9.65,1.02,4.75-1.28,4.68-6.42.38-8.27-3.08-1.32-6.65-.77-10.03-2.28-8.32-3.73-6.01-13.91,2.72-14.76Z"/>
  <path class="cls-2" d="M90.22,5.25c.17-.05.19.12.27.19,4.28,4.27,4.83,12.27,2.21,17.53-3.44,6.91-12.64,11.01-19.92,7.77-3.38-1.51-3.48-6.35-.2-7.91,2.26-1.08,4.18.37,6.48.46,6.35.23,11.79-5.28,11.19-11.68-.2-2.13-1.86-4.44-.04-6.35Z"/>
  <path class="cls-1" d="M76.9.06c2.3-.19,6.3.07,8.19,1.5,2.28,1.72,1.72,5.42-.4,7.01-2.13,1.6-4.14.11-6.43-.05-6.73-.46-12.67,5.68-11.38,12.45.35,1.83,1.78,4.23-.1,5.69-5.1-5.63-5.54-13.98-1.09-20.15,2.53-3.52,6.87-6.07,11.22-6.44Z"/>
  <path class="cls-2" d="M60.33,2.23c-.28,4.94-2.45,9.6-4.54,14-1.88,3.95-4.32,8.96-6.74,12.55-2.29,3.4-5.71,2.85-7.78-.42-2.83-4.49-5.74-10.25-7.9-15.12-1.53-3.45-2.94-7.2-3.11-11.01,1.11-.14,2.3.22,3.08,1.04.84.88,1.46,3.72,1.94,5.03,1.65,4.47,4.04,9.12,6.34,13.31.74,1.34,1.94,3.86,2.83,4.96.47.58,1.26.63,1.71,0,1.26-1.75,2.71-4.73,3.75-6.71,2.69-5.08,5.18-10.32,6.81-15.86.77-1.29,2.12-1.97,3.62-1.78Z"/>
  <path class="cls-2" d="M119.65,30.26h-16.66c-1.22,0-3.31-2.22-3.31-3.43V2.23c1.95-.1,3.39,1.46,3.58,3.33v20.11c.03.78.53,1.04,1.23,1.1,3.93.37,8.41-.31,12.4.02,1.59.36,2.79,1.81,2.76,3.46Z"/>
  <path class="cls-2" d="M128.59,2.23v28.03h-3.6V5.08c0-.19.36-.92.49-1.14.61-1.06,1.87-1.82,3.11-1.71Z"/>
</svg>