<?xml version="1.0" encoding="UTF-8"?>
<svg id="Layer_1" xmlns="http://www.w3.org/2000/svg" version="1.1" viewBox="0 0 1080 1080">
  <!-- Generator: Adobe Illustrator 29.0.0, SVG Export Plug-In . SVG Version: 2.1.0 Build 186)  -->
  <defs>
    <style>
      .st0 {
        fill: #f2b61b;
      }
    </style>
  </defs>
  <path class="st0" d="M805.38,583.87v3.99c-.9.03-1.79.15-2.66.35-.37.09-.74.21-1.12.28-.24-.76-.44-1.53-.57-2.32s-.18-1.53-.22-2.3h4.57Z"/>
  <path class="st0" d="M805.38,578.86v3.99h-4.57c.06-1.57.3-3.13.79-4.62.57.14,1.13.31,1.72.41.68.12,1.37.2,2.06.22Z"/>
  <path class="st0" d="M806.42,582.85v-3.99c1.26-.04,2.5-.28,3.72-.64.54,1.48.75,3.06.81,4.63h-4.52Z"/>
  <path class="st0" d="M810.94,583.87c-.05,1.57-.27,3.15-.81,4.63-.91-.27-1.83-.47-2.78-.58-.14-.02-.94-.04-.97-.09l.03-3.96h4.52Z"/>
  <path class="st0" d="M796.27,582.85c.1-2.2,1.01-4.39,2.53-5.98.6.36,1.19.73,1.86.96-.53,1.59-.82,3.26-.85,4.94l-.05.08h-3.49Z"/>
  <path class="st0" d="M799.77,583.87c.08.02.04.46.05.56.1,1.52.36,3.02.85,4.46-.66.23-1.26.6-1.86.96-1.52-1.59-2.43-3.78-2.53-5.98h3.49Z"/>
  <path class="st0" d="M815.48,582.85h-3.51c-.06-1.7-.34-3.38-.85-5l1.86-.98c1.48,1.63,2.43,3.77,2.5,5.98Z"/>
  <path class="st0" d="M815.48,583.87c-.07,2.21-1.02,4.34-2.48,5.97l-.05.02c-.58-.39-1.2-.69-1.83-.99.51-1.62.79-3.3.85-5h3.51Z"/>
  <path class="st0" d="M805.38,573.81v4.02c-1.15-.03-2.3-.21-3.39-.59.66-1.45,1.71-3.11,3.39-3.43Z"/>
  <path class="st0" d="M805.38,588.89v4.02c-1.68-.32-2.72-1.98-3.39-3.43,1.08-.38,2.24-.55,3.39-.59Z"/>
  <path class="st0" d="M806.41,577.82v-4.02c1.67.37,2.71,1.98,3.35,3.43-.02.08-1.36.37-1.54.4-.6.11-1.21.18-1.82.19Z"/>
  <path class="st0" d="M806.37,588.89c.68.02,1.37.09,2.03.22.15.03,1.34.3,1.35.37-.65,1.49-1.68,3.02-3.34,3.46l-.04-4.05Z"/>
  <path class="st0" d="M809.13,592.43l.59-.76c.41-.58.72-1.21,1.03-1.84l1.46.77c-.9.8-1.96,1.4-3.08,1.83Z"/>
  <path class="st0" d="M802.62,574.32c-.67.76-1.18,1.64-1.6,2.56-.53-.18-1-.48-1.48-.74.89-.79,1.95-1.44,3.08-1.81Z"/>
  <path class="st0" d="M802.62,592.4c-1.13-.37-2.2-1.02-3.08-1.81.49-.26.95-.57,1.48-.74.42.92.93,1.8,1.6,2.56Z"/>
  <path class="st0" d="M812.21,576.14l-1.47.76c-.44-.91-.93-1.82-1.62-2.57,1.13.37,2.21,1.02,3.08,1.81Z"/>
</svg>