<?xml version="1.0" encoding="UTF-8"?>
<svg id="Layer_1" xmlns="http://www.w3.org/2000/svg" version="1.1" viewBox="0 0 1080 1080">
  <!-- Generator: Adobe Illustrator 29.0.0, SVG Export Plug-In . SVG Version: 2.1.0 Build 186)  -->
  <defs>
    <style>
      .st0 {
        fill: #f2b61b;
      }
    </style>
  </defs>
  <path class="st0" d="M811.27,574.13c.18.08.41.09.61.14,1.77.48,3.03,1.98,3.24,3.8v10.58c-.21,2.11-1.86,3.77-3.98,3.98h-10.58c-1.8-.21-3.33-1.49-3.8-3.25-.05-.2-.06-.42-.14-.61v-10.79c.26-1.92,1.89-3.66,3.85-3.85h10.79ZM808.29,591.55h2.9c1.14,0,2.59-1.4,2.78-2.52.13-3.75.13-7.56,0-11.31-.35-1.34-1.45-2.32-2.83-2.51-3.39.17-7.02-.24-10.38,0-1.61.11-2.9,1.41-3.06,3.01.18,3.36-.23,6.95,0,10.28.09,1.35,1.42,3.06,2.85,3.06h4.96v-6.14l-.08-.08h-2.21s-.04.07-.08.05v-2.83h2.36v-2.85c0-1.27,1.63-2.9,2.9-2.9h2.75l-.08,2.57h-1.8c-.41,0-1,.76-1,1.16v2.03h2.83l-.36,2.77h-2.39l-.08.08v6.14Z"/>
</svg>