<?xml version="1.0" encoding="UTF-8"?>
<svg id="Layer_1" xmlns="http://www.w3.org/2000/svg" version="1.1" viewBox="0 0 1080 1080">
  <!-- Generator: Adobe Illustrator 29.0.0, SVG Export Plug-In . SVG Version: 2.1.0 Build 186)  -->
  <defs>
    <style>
      .st0 {
        fill: #f2b61b;
      }
    </style>
  </defs>
  <g>
    <path class="st0" d="M800.78,574.48c3.33.08,6.73-.13,10.05,0,2.36.08,3.81,1.21,3.96,3.65.19,3.18-.09,6.5.03,9.7-.03,1.05-.04,2.04-.64,2.95-.74,1.12-1.96,1.56-3.27,1.57h-10.03c-1.43,0-2.75-.52-3.46-1.81-.46-.84-.44-1.56-.47-2.48-.09-3.01-.09-6.2,0-9.21.01-.5,0-.98.08-1.47.34-1.85,1.92-2.92,3.76-2.89ZM814.13,579.37c-.03-1.3.09-2.54-.98-3.47-.63-.55-1.34-.7-2.16-.74-2.39-.1-4.83.04-7.23-.04-1.88.19-4.44-.54-5.66,1.34-.68,1.05-.51,3.13-.52,4.39-.02,1.71-.02,3.43,0,5.14.02,1.19-.14,3.19.43,4.2.96,1.74,2.95,1.45,4.65,1.48,2.57.04,5.14.06,7.71-.03.94-.03,1.69.03,2.5-.53,1.48-1.02,1.23-2.68,1.25-4.27"/>
    <path class="st0" d="M800.86,592.59c-1.67,0-2.97-.69-3.67-1.94-.45-.82-.47-1.54-.49-2.37v-.23c-.09-2.92-.09-6.11,0-9.23,0-.12,0-.24,0-.35,0-.37,0-.76.08-1.15.35-1.86,1.92-3.09,3.92-3.09.03,0,.06,0,.09,0h0c1.54.04,3.13,0,4.67-.01,1.77-.03,3.6-.06,5.39,0,2.6.09,4.05,1.44,4.2,3.89.1,1.73.07,3.53.03,5.27-.03,1.46-.06,2.98,0,4.44v.13c-.03,1.04-.06,2.03-.68,2.96-.73,1.09-1.93,1.67-3.47,1.68h-10.04s-.01,0-.02,0ZM800.7,574.73c-1.76,0-3.13,1.07-3.43,2.69-.07.35-.07.7-.07,1.07,0,.12,0,.24,0,.36-.09,3.11-.09,6.29,0,9.2v.23c.03.8.04,1.43.44,2.14.6,1.08,1.75,1.68,3.23,1.68h10.05c.96,0,2.26-.27,3.06-1.46.54-.81.57-1.69.6-2.7v-.12c-.05-1.46-.02-2.98,0-4.45.03-1.73.07-3.51-.03-5.23-.13-2.21-1.35-3.33-3.72-3.42-1.77-.06-3.6-.03-5.36,0-1.54.02-3.13.05-4.68.01-.02,0-.05,0-.08,0ZM806.31,591.96c-1.34,0-2.58-.02-3.66-.03-.23,0-.46,0-.69,0-1.54.01-3.27.02-4.17-1.61-.49-.89-.47-2.39-.46-3.6,0-.26,0-.5,0-.72-.02-1.74-.02-3.47,0-5.15,0-.22,0-.47,0-.74-.01-1.27-.03-2.86.57-3.78.98-1.51,2.74-1.47,4.31-1.43.54.01,1.06.02,1.53-.02,1.18.04,2.36.03,3.5.02,1.24-.01,2.51-.03,3.76.03.73.03,1.57.15,2.32.8,1.04.91,1.05,2.08,1.06,3.22v8.55s-.49.01-.49.01v-8.56c-.02-1.12-.03-2.09-.89-2.85-.51-.44-1.09-.64-2.01-.68-1.23-.05-2.5-.04-3.73-.03-1.15.01-2.34.03-3.49-.02-.47.05-1,.04-1.56.02-1.5-.04-3.06-.07-3.88,1.21-.52.8-.5,2.3-.49,3.51,0,.27,0,.52,0,.75-.02,1.67-.02,3.39,0,5.13,0,.22,0,.47,0,.74-.01,1.09-.03,2.58.4,3.35.76,1.38,2.21,1.36,3.73,1.35.24,0,.48,0,.7,0,2.11.03,4.89.06,7.7-.03h.34c.77-.02,1.38-.04,2.03-.48,1.17-.8,1.16-2.07,1.15-3.4,0-.22,0-.44,0-.67h.5c0,.22,0,.44,0,.66.01,1.41.03,2.86-1.36,3.82-.77.53-1.51.55-2.3.56h-.34c-1.39.05-2.77.07-4.07.07Z"/>
  </g>
  <path class="st0" d="M811.23,588.79h-2.16v-4.16c0-.07-.1-.37-.14-.45-.38-.79-1.65-.89-2.24-.31-.2.19-.44.71-.44.98v3.93h-2.14v-7.15h2.01v1.02s.05-.01.08-.04c.49-.5.81-.81,1.52-1,1.84-.49,3.42.69,3.52,2.57v4.59Z"/>
  <polygon class="st0" points="802.86 588.79 800.64 588.79 800.64 581.67 800.68 581.64 802.82 581.64 802.86 581.67 802.86 588.79"/>
  <path class="st0" d="M801.53,578.05c1.68-.23,2.03,2.13.51,2.47-1.74.39-2.12-2.25-.51-2.47Z"/>
</svg>