<?xml version="1.0" encoding="UTF-8"?>
<svg id="Layer_1" xmlns="http://www.w3.org/2000/svg" version="1.1" viewBox="0 0 1080 1080">
  <!-- Generator: Adobe Illustrator 29.0.0, SVG Export Plug-In . SVG Version: 2.1.0 Build 186)  -->
  <defs>
    <style>
      .st0 {
        fill: #f2b61b;
      }
    </style>
  </defs>
  <path class="st0" d="M803.17,584.74c.23.24.44.5.68.73.39.37,1.89,1.65,2.34,1.74.77.15,1.37-1.41,2.37-1.42.36,0,1.38.34,1.79.45,1.1.3,2.03.29,2.34,1.55.35,1.42-.15,2.36-1.37,3.08-3.06,1.82-7.39-.88-9.64-2.99s-4.61-5.32-4.55-8.67c.03-1.64,1.29-3.53,3.08-3.41.68.05,1.44.2,1.73.91.22.53.78,2.64.81,3.2.01.15.01.36,0,.5-.11.74-1.46,1.3-1.36,2,.07.5,1.38,1.91,1.78,2.33Z"/>
  <path class="st0" d="M810.87,577.55c-1.26-1.24-2.83-2.13-4.61-2.38-.65-.48-.33-1.11.48-1.04,3.17.26,6.48,3.67,7.39,6.59.15.47.55,1.57,0,1.86-.82.43-.86-.88-1.01-1.36-.45-1.45-1.18-2.62-2.25-3.67Z"/>
  <path class="st0" d="M806,576.58c.36-.11,1.03.2,1.38.35,1.81.78,3.45,2.36,4.23,4.17.18.41.69,1.5,0,1.66-.8.19-.83-.83-1.09-1.39-.58-1.24-1.76-2.47-2.96-3.12-.35-.19-1.63-.64-1.77-.8-.24-.27-.12-.77.2-.87Z"/>
  <path class="st0" d="M809.2,582.94c-.68.58-1.09-.67-1.37-1.07-.34-.48-.82-.94-1.31-1.26-.36-.23-1.08-.4-1.13-.82-.06-.57.35-.74.84-.58.83.27,1.94,1.24,2.45,1.93.28.38.99,1.39.52,1.8Z"/>
</svg>