<?xml version="1.0" encoding="UTF-8"?>
<svg id="Layer_1" data-name="Layer 1" xmlns="http://www.w3.org/2000/svg" viewBox="0 0 32.24 32.25">
  <defs>
    <style>
      .cls-1 {
        fill: #f6b817;
        stroke: #f5b819;
        stroke-miterlimit: 10;
        stroke-width: .25px;
      }
    </style>
  </defs>
  <path class="cls-1" d="M.42,20.78c-.5-.63-.33-1.3.38-1.64.98-.48,2.22-.77,3.22-1.25.05,0,.33.51.2.6l-3.21,1.28c-.26.14-.31.42-.05.6l15.2,5.91,15.12-5.91c.26-.18.21-.46-.05-.6l-3.21-1.28c-.12-.09.15-.59.21-.61.72.45,3.27,1.03,3.69,1.6.4.54.15,1.32-.48,1.54l-14.57,5.73c-.72.35-1.24.08-1.92-.16-4.89-1.74-9.7-3.92-14.54-5.79Z"/>
  <path class="cls-1" d="M.42,26c-.56-.56-.27-1.32.38-1.64.98-.48,2.22-.77,3.22-1.25.05,0,.33.51.2.6l-3.21,1.28c-.26.14-.31.42-.05.6l15.2,5.91,15.12-5.91c.26-.18.21-.46-.05-.6l-3.21-1.28c-.12-.09.15-.59.21-.61.72.45,3.27,1.03,3.69,1.6.4.54.15,1.32-.48,1.54l-14.57,5.73c-.72.35-1.24.08-1.92-.16-4.75-1.69-9.35-3.85-14.1-5.54-.13-.06-.34-.16-.44-.25Z"/>
  <path class="cls-1" d="M3.66,13.56l-2.69,1.02c-.26.18-.21.46.05.6,4.35,1.64,8.62,3.48,12.97,5.13.41.16,1.79.75,2.1.76s.81-.24,1.12-.35c4.74-1.7,9.36-3.81,14.08-5.56.27-.21.21-.43-.05-.6-.41-.27-1.73-.71-2.27-.91-.12-.05-.24-.08-.37-.08l.28-.63c.65.38,2.78.83,3.11,1.44.31.58.05,1.2-.54,1.43l-14.57,5.73-.79.19c-5.25-1.92-10.46-4.01-15.63-6.11-1.31-1.82,1.88-2.03,2.92-2.67l.28.63Z"/>
  <path class="cls-1" d="M12,10.9c.22-.22.65-.3.95-.27v.65c-.74-.12-.74.84-.96,1.36-1.7,4.01-7.58,3.03-7.92-1.32-.15-1.87-.15-5.14,0-7.01.11-1.42,1.16-2.65,2.61-2.73-.08-.77.22-1.31,1.02-1.39.48-.04,2.6-.06,2.94.08.6.24.85,1.52.49,1.81-.27.21-3.82-.02-4.55.09-.94.15-1.79,1.1-1.86,2.06.14,2.31-.18,4.82,0,7.1.28,3.51,5.02,4.44,6.58,1.28.21-.43.41-1.41.7-1.7ZM10.58,1.5c0-.22.05-.56-.22-.64-.18-.05-2.64-.05-2.82,0-.08.02-.14.08-.18.15l-.04.49h3.26Z"/>
  <path class="cls-1" d="M25.58,1.58c1.43.06,2.52,1.33,2.61,2.73-.16,2.3.21,4.89-.01,7.17-.41,4.1-6.04,5.12-7.8,1.38-.15-.31-.4-1.35-.54-1.5-.13-.14-.36-.07-.53-.08v-.65c1.31-.13,1.23,1.14,1.64,1.99,1.52,3.13,6.32,2.24,6.59-1.29.18-2.28-.14-4.79,0-7.1-.49-3.1-4.02-1.79-6.16-2.07-.21-.03-.32-.07-.36-.29-.14-.75.08-1.57.94-1.67.46-.05,2.69-.06,3.02.08.52.21.67.8.61,1.31ZM24.93,1.5c0-.22.05-.56-.22-.64-.18-.05-2.64-.05-2.82,0-.08.02-.14.08-.18.15l-.04.49h3.26Z"/>
  <path class="cls-1" d="M12.68.21c2.14.12,4.56-.22,6.67-.02.48.04.91.3,1,.8.06.34.06,1.49-.03,1.8-.11.35-.52.66-.88.67-2.1-.15-4.46.2-6.52,0-1.19-.11-1.11-1.31-1.02-2.25.05-.52.29-.86.8-1ZM12.74.84c-.27,0-.23,1.27-.21,1.51.01.12.06.44.21.44h6.76c.27,0,.23-1.27.21-1.51-.01-.12-.06-.44-.21-.44h-6.76Z"/>
  <path class="cls-1" d="M8.77,4.12c.41-.07.88.14,1.06.53.09.2.07.51.17.64.12.14.54.12.78.28.58.37.6,1.19.04,1.59-.27.2-.71.17-.83.31-.1.13-.08.45-.17.64-.33.71-1.42.71-1.76,0-.09-.2-.07-.51-.17-.64-.16-.19-.79-.05-1.1-.61-.26-.47-.07-1.13.42-1.36.2-.09.51-.07.64-.17.22-.18.07-1.08.91-1.21ZM8.85,4.77c-.3.09-.15.9-.77,1.19-.27.13-.8.03-.76.46.04.4.91.21,1.21.84.13.27.03.8.46.76.4-.04.21-.91.84-1.21.27-.13.8-.03.76-.46-.04-.4-.91-.21-1.21-.84-.12-.26-.04-.88-.53-.75Z"/>
  <path class="cls-1" d="M15.78,8.04c2.78-.4,3.64,3.59,1.08,4.42-3.17,1.03-4.23-3.97-1.08-4.42ZM15.78,8.69c-1.97.34-1.59,3.61.69,3.22,1.97-.34,1.59-3.61-.69-3.22Z"/>
  <path class="cls-1" d="M23.11,4.44c.96-.19,1.12,1.18.28,1.27-.9.11-.98-1.14-.28-1.27Z"/>
  <path class="cls-1" d="M21.81,5.75c.96-.19,1.12,1.18.28,1.27-.9.11-.98-1.14-.28-1.27Z"/>
  <path class="cls-1" d="M24.42,5.75c.96-.19,1.12,1.18.28,1.27-.9.11-.98-1.14-.28-1.27Z"/>
  <path class="cls-1" d="M23.11,7.05c.96-.19,1.12,1.18.28,1.27-.9.11-.98-1.14-.28-1.27Z"/>
  <rect class="cls-1" x="13.52" y="6.71" width="1.3" height=".65"/>
  <rect class="cls-1" x="17.43" y="6.71" width="1.3" height=".65"/>
</svg>