<?xml version="1.0" encoding="UTF-8"?>
<svg id="Layer_1" data-name="Layer 1" xmlns="http://www.w3.org/2000/svg" viewBox="0 0 40.16 40.16">
  <defs>
    <style>
      .cls-1 {
        fill: #f6b817;
      }
    </style>
  </defs>
  <path class="cls-1" d="M24.21,4.17c5.71,1.46,10.33,6.08,11.79,11.79,2.67.04,4.65,2.44,4.06,5.07-.41,1.83-2.18,3.21-4.06,3.19-1.45,5.71-6.08,10.33-11.78,11.79,0,1.9-1.34,3.63-3.19,4.06-2.59.6-5.05-1.41-5.07-4.06-5.7-1.46-10.34-6.08-11.78-11.79-1.89.01-3.64-1.35-4.06-3.19-.6-2.61,1.41-5.04,4.06-5.06,1.44-5.71,6.08-10.34,11.78-11.79.04-2.66,2.44-4.65,5.07-4.06,1.84.42,3.19,2.18,3.19,4.06ZM19.97.93c-4.24.16-3.92,6.73.44,6.34,4-.36,3.59-6.49-.44-6.34ZM16.15,5.11c-5.32,1.31-9.73,5.71-11.04,11.04,4.1.91,4.1,6.95,0,7.86,1.3,5.31,5.71,9.74,11.04,11.04.91-4.09,6.93-4.11,7.86,0,5.32-1.32,9.73-5.71,11.04-11.04-4.1-.91-4.1-6.95,0-7.86-1.31-5.32-5.71-9.72-11.04-11.04-.91,4.11-6.96,4.09-7.86,0ZM3.69,16.92c-3.97.52-3.4,6.59.63,6.33,4.25-.27,3.65-6.89-.63-6.33ZM35.68,16.93c-4.51.49-3.04,7.64,1.38,6.15,3.57-1.21,2.36-6.56-1.38-6.15ZM19.59,32.92c-4.49.61-2.79,7.85,1.74,6.04,3.29-1.31,2.05-6.56-1.74-6.04Z"/>
  <path class="cls-1" d="M29.53,13.81c-.96,6.45-3.84,13.11-9.48,16.73-5.57-3.71-8.47-10.27-9.41-16.73,3.46-.39,7-1.51,9.41-4.11.15-.03.83.77,1.02.93,2.37,1.96,5.45,2.84,8.46,3.18ZM23.07,18.3v-2.85s-.25-.63-.3-.73c-1.08-2.17-4.32-2.17-5.39,0-.05.1-.3.69-.3.73v2.85h-1.31v4.07c0,.48.62,1.66.94,2.06,1.72,2.14,5.01,2.14,6.73,0,.32-.4.94-1.58.94-2.06v-4.07h-1.31Z"/>
  <path class="cls-1" d="M22.14,18.3h-4.12v-2.57s.23-.57.28-.66c.71-1.25,2.64-1.35,3.45-.17.07.1.39.77.39.83v2.57Z"/>
  <path class="cls-1" d="M20.64,23.73h-1.12c.01-.29-.02-.59,0-.89.02-.31.21-1.16.16-1.39-.05-.27-.57-.24-.44-1.03.19-1.16,2.05-.8,1.66.54-.06.22-.42.32-.45.58l.19,2.2Z"/>
</svg>