<?xml version="1.0" encoding="UTF-8"?>
<svg id="Layer_1" data-name="Layer 1" xmlns="http://www.w3.org/2000/svg" viewBox="0 0 34.07 34.14">
  <defs>
    <style>
      .cls-1 {
        fill: #f6b817;
      }

      .cls-2 {
        fill: #23190f;
      }
    </style>
  </defs>
  <g>
    <path class="cls-1" d="M18.95,24.83h13.2c.16,0,.56-.48.48-.69V2.22c0-.52-.33-.8-.85-.77l-29.76.02c-.37.07-.54.32-.57.68v5.21c-.51.15-.9.47-1.32.78V2.08C.13.98,1.24.1,2.29.13h29.49c1.37.1,2.07.8,2.17,2.17v21.69c.04,1.01-.83,2.17-1.88,2.17h-13.01l-.11-.11v-1.21Z"/>
    <path class="cls-2" d="M32.07,26.28h-13.07l-.18-.18v-1.39h13.32s.2-.14.31-.33c.06-.11.07-.18.06-.2v-.04s0-21.92,0-21.92c0-.21-.06-.37-.17-.49-.12-.12-.32-.17-.54-.16l-29.77.02c-.27.05-.42.23-.44.57v5.3s-.08.03-.08.03c-.44.13-.79.39-1.16.66l-.33.24V2.08c0-.51.22-1,.62-1.39C1.08.24,1.71-.01,2.29,0h29.49c1.44.11,2.19.85,2.29,2.28v21.7c.02.58-.24,1.22-.68,1.68-.38.39-.85.61-1.32.61ZM19.11,26.03h12.96c.4,0,.81-.19,1.14-.53.4-.41.63-.99.61-1.5V2.29c-.1-1.29-.75-1.95-2.05-2.04H2.29c-.54-.02-1.09.22-1.49.61-.35.35-.55.78-.55,1.21v5.82c.33-.24.67-.48,1.08-.62V2.15c.03-.46.26-.73.67-.8l29.78-.02c.3-.01.54.06.72.23.17.16.25.39.25.67v21.9c.05.17-.07.37-.14.48-.03.04-.25.36-.46.36h-13.07v1.04l.04.04Z"/>
  </g>
  <g>
    <path class="cls-1" d="M18.36,9.24v11.95l-1.32,1.4v9.49c-.14,1.23-.99,1.8-2.17,1.88-3.25.21-6.73-.17-10.01,0-1.11-.08-1.89-.6-2.09-1.73v-9.63s-1.32-1.4-1.32-1.4v-11.95h16.91ZM17.04,10.57H2.77v10.11l1.25,1.33v9.85c.04.35.15.63.51.74l10.79-.02c.17-.12.39-.26.39-.49v-10s1.32-1.4,1.32-1.4v-10.11Z"/>
    <path class="cls-2" d="M12.6,34.14c-.97,0-1.96-.03-2.92-.05-1.59-.04-3.24-.09-4.81-.01-1.27-.09-2.02-.71-2.22-1.83v-9.6s-1.32-1.4-1.32-1.4v-12.12h17.16v12.12l-1.32,1.4v9.44c-.14,1.21-.95,1.91-2.28,2-.75.05-1.51.07-2.28.07ZM6.76,33.78c.97,0,1.96.03,2.92.05,1.72.05,3.49.1,5.18-.01.85-.05,1.89-.41,2.05-1.77v-9.52s1.32-1.4,1.32-1.4v-11.77H1.57v11.77l1.32,1.4v9.68c.18.97.85,1.52,1.98,1.6.62-.03,1.25-.04,1.89-.04ZM4.52,32.71h-.02c-.46-.14-.56-.52-.6-.85v-9.82s-1.25-1.33-1.25-1.33v-10.28h14.51v10.28l-1.32,1.4v9.95c0,.28-.23.44-.4.56l-.07.05h-.04l-10.81.02ZM2.9,20.63l1.25,1.33v9.9c.05.36.16.53.41.61l10.74-.03c.14-.1.29-.21.3-.36v-10.05s1.32-1.4,1.32-1.4v-9.93H2.9v9.93Z"/>
  </g>
  <g>
    <rect class="cls-1" x="27.4" y="2.77" width="2.65" height="20.73"/>
    <path class="cls-2" d="M30.17,23.63h-2.9V2.65h2.9v20.98ZM27.53,23.38h2.4V2.9h-2.4v20.48Z"/>
  </g>
  <g>
    <rect class="cls-1" x="20.93" y="2.77" width="1.32" height="20.73"/>
    <path class="cls-2" d="M22.38,23.63h-1.57V2.65h1.57v20.98ZM21.06,23.38h1.07V2.9h-1.07v20.48Z"/>
  </g>
  <g>
    <rect class="cls-1" x="24.83" y="2.77" width="1.32" height="20.73"/>
    <path class="cls-2" d="M26.28,23.63h-1.57V2.65h1.57v20.98ZM24.95,23.38h1.07V2.9h-1.07v20.48Z"/>
  </g>
  <g>
    <rect class="cls-1" x="6.67" y="2.77" width="2.57" height="4.56"/>
    <path class="cls-2" d="M9.37,7.46h-2.82V2.65h2.82v4.81ZM6.79,7.21h2.32V2.9h-2.32v4.31Z"/>
  </g>
  <g>
    <rect class="cls-1" x="14.46" y="2.77" width="2.57" height="4.56"/>
    <path class="cls-2" d="M17.16,7.46h-2.82V2.65h2.82v4.81ZM14.59,7.21h2.32V2.9h-2.32v4.31Z"/>
  </g>
  <g>
    <path class="cls-1" d="M19.61,2.77v5.37c-.37-.32-.75-.65-1.25-.74V2.77h1.25Z"/>
    <path class="cls-2" d="M19.73,8.42l-.21-.18c-.35-.31-.72-.63-1.19-.71l-.1-.02V2.65h1.5v5.77ZM18.48,7.3c.39.09.71.32,1,.56V2.9h-1v4.4Z"/>
  </g>
  <g>
    <polygon class="cls-1" points="5.35 2.77 5.35 7.33 4.13 7.33 4.02 7.22 4.02 2.77 5.35 2.77"/>
    <path class="cls-2" d="M5.47,7.46h-1.39l-.18-.18V2.65h1.57v4.81ZM4.18,7.21h1.04V2.9h-1.07v4.27l.04.04Z"/>
  </g>
  <g>
    <polygon class="cls-1" points="13.14 2.77 13.14 7.33 11.93 7.33 11.82 7.22 11.82 2.77 13.14 2.77"/>
    <path class="cls-2" d="M13.26,7.46h-1.39l-.18-.18V2.65h1.57v4.81ZM11.98,7.21h1.04V2.9h-1.07v4.27l.04.04Z"/>
  </g>
  <g>
    <path class="cls-1" d="M19.61,23.51h-.66c-.13-.12.53-.72.62-.81l.04.81Z"/>
    <path class="cls-2" d="M19.74,23.63h-.84s-.04-.03-.04-.03c-.04-.03-.06-.08-.06-.13,0-.15.17-.37.62-.8l.26-.26.05,1.22ZM19.1,23.38h.38s-.02-.4-.02-.4c-.21.2-.31.33-.36.4Z"/>
  </g>
  <g>
    <path class="cls-1" d="M14.46,22.26v9.04H5.35v-9.04h9.12ZM7.92,23.51h-1.25v1.32h1.25v-1.32ZM10.57,23.51h-1.32v1.32h1.32v-1.32ZM13.14,23.51h-1.21l-.11.11v1.21h1.32v-1.32ZM7.92,26.15h-1.25v1.25h1.25v-1.25ZM10.57,26.15h-1.32v1.25h1.32v-1.25ZM13.14,26.15h-1.32v1.25h1.32v-1.25ZM7.92,28.73h-1.25v1.32h1.25v-1.32ZM10.57,28.73h-1.32v1.32h1.21l.11-.11v-1.21ZM13.14,28.73h-1.32v1.21l.11.11h1.21v-1.32Z"/>
    <path class="cls-2" d="M14.59,31.43H5.22v-9.29h9.37v9.29ZM5.47,31.18h8.87v-8.79H5.47v8.79ZM13.26,30.18h-1.39l-.18-.18v-1.39h1.57v1.57ZM11.98,29.93h1.04v-1.07h-1.07v1.04l.04.04ZM10.51,30.18h-1.39v-1.57h1.57v1.39l-.18.18ZM9.37,29.93h1.04l.04-.04v-1.04h-1.07v1.07ZM8.04,30.18h-1.5v-1.57h1.5v1.57ZM6.79,29.93h1v-1.07h-1v1.07ZM13.26,27.53h-1.57v-1.5h1.57v1.5ZM11.94,27.28h1.07v-1h-1.07v1ZM10.69,27.53h-1.57v-1.5h1.57v1.5ZM9.37,27.28h1.07v-1h-1.07v1ZM8.04,27.53h-1.5v-1.5h1.5v1.5ZM6.79,27.28h1v-1h-1v1ZM13.26,24.96h-1.57v-1.39l.18-.18h1.39v1.57ZM11.94,24.71h1.07v-1.07h-1.04l-.04.04v1.04ZM10.69,24.96h-1.57v-1.57h1.57v1.57ZM9.37,24.71h1.07v-1.07h-1.07v1.07ZM8.04,24.96h-1.5v-1.57h1.5v1.57ZM6.79,24.71h1v-1.07h-1v1.07Z"/>
  </g>
  <g>
    <path class="cls-1" d="M15.71,11.82v7.79H4.02v-7.68l.11-.11h11.58ZM14.46,13.14H5.35v5.22h9.01l.11-.11v-5.11Z"/>
    <path class="cls-2" d="M15.84,19.74H3.9v-7.86l.18-.18h11.76v8.04ZM4.15,19.49h11.44v-7.54H4.18l-.04.04v7.51ZM14.4,18.49H5.22v-5.47h9.37v5.29l-.18.18ZM5.47,18.24h8.83l.04-.04v-4.93H5.47v4.97Z"/>
  </g>
</svg>