<?xml version="1.0" encoding="UTF-8"?>
<svg id="Layer_1" data-name="Layer 1" xmlns="http://www.w3.org/2000/svg" viewBox="0 0 34.56 34.32">
  <defs>
    <style>
      .cls-1 {
        fill: #f6b817;
      }
    </style>
  </defs>
  <path class="cls-1" d="M8.22,5.74c.17-.11.17-.24.19-.41.18-1.52-.15-3.37,0-4.93l.32-.4,17.28.08.17.32v5.21s2.76.19,2.76.19c.05.03.24.33.24.36v5.7h3.78c.61,0,1.41.77,1.49,1.39-.23,3.51.34,7.47.01,10.92-.07.72-.49,1.48-1.27,1.61-.96.16-4.36.12-5.4.01-.62-.06-.8-.27-.54-.89.07-.11.21-.15.33-.17,1.03-.2,5.08.2,5.56-.09.2-.12.22-.5.24-.72.3-3.28-.24-7.01,0-10.34l-.4-.56-31.31-.04c-.27.11-.49.28-.48.6.24,3.33-.3,7.05,0,10.34.02.22.04.6.24.72.45.27,4.38-.08,5.34.07.77.12.72.96.12,1.07-1.7-.14-3.74.21-5.4,0-.69-.08-1.27-.7-1.37-1.39.24-3.5-.35-7.48-.02-10.92.07-.73.73-1.61,1.51-1.61h3.78v-5.7c0-.08.23-.34.32-.41.21-.14.27,0,.34,0h2.16ZM25.09,1.06h-15.61v9.55c0,.42-1.08.5-1.08.12v-3.9h-1.92v5.04h21.61v-5.04h-1.92v3.9c0,.38-1.08.3-1.08-.12V1.06Z"/>
  <path class="cls-1" d="M8.88,33.24h16.93l-.73-10.27c.53-1.27,1.11-.61,1.21.49.27,3.07.49,6.51.61,9.6,0,.24.06,1.27-.3,1.27H7.98c-.07,0-.31-.4-.28-.53.21-2.92.38-5.85.58-8.77.06-.82-.2-3.96,1.21-2.15l-.6,10.38Z"/>
  <path class="cls-1" d="M7.32,23.45c-.09.32-.7.39-.93.15s-.23-3.04,0-3.3l.4-.14c6.78.27,13.9-.4,20.65-.02.22.01.65-.02.78.21.18.34.2,2.9,0,3.19-.22.34-.97.16-.97-.1v-2.04l-.18-.18H7.5l-.18.18c-.1.55.13,1.57,0,2.04Z"/>
  <path class="cls-1" d="M11.1,31.44c-.38-.12-.36-1.08.12-1.08h12.49c.38,0,.38,1.08,0,1.08h-12.61Z"/>
  <path class="cls-1" d="M23.38,28.52c-.13.13-.44.14-.63.15-3.5.29-7.4-.23-10.94,0-.64.07-1.02-.46-.61-.98l12.08-.05c.3.15.3.66.09.87Z"/>
  <path class="cls-1" d="M11.85,24.74l10.66-.03c.83-.01.94.99.12,1.09l-11.06-.11c-.33-.37-.23-.85.28-.95Z"/>
  <path class="cls-1" d="M4.4,16.21c1.15-.34,1.03,2.16-.09,1.6-.37-.18-.39-1.46.09-1.6Z"/>
  <path class="cls-1" d="M30.22,16.21c1.15-.34,1.03,2.16-.09,1.6-.37-.18-.39-1.46.09-1.6Z"/>
  <path class="cls-1" d="M6.38,17.72c-.24-.24-.24-1.3.12-1.45,1.38-.58.89,2.47-.12,1.45Z"/>
</svg>